<?xml version="1.0" encoding="UTF-8" standalone="yes"?>
<!DOCTYPE svg PUBLIC "-//W3C//DTD SVG 1.1//EN" "http://www.w3.org/Graphics/SVG/1.1/DTD/svg11.dtd">

<svg width="700" height="350" viewBox="0 0 700 350" xmlns="http://www.w3.org/2000/svg" xmlns:xlink="http://www.w3.org/1999/xlink" version="1.1" baseProfile="full">
    <defs>
        <radialGradient id="8759718413772416" cx="284" cy="179" r="333" fx="165" fy="276" gradientUnits="userSpaceOnUse">
            <stop offset="0%" style="stop-color:#fffcda;stop-opacity:1.000000"></stop>
            <stop offset="100%" style="stop-color:#fcb7a0;stop-opacity:1.000000"></stop>
        </radialGradient>
    </defs>
    <g transform="scale(1,-1) translate(0,-350)">
        <path d="M 1.000000 1.000000 L 701.000000 1.000000 L 701.000000 351.000000 L 1.000000 351.000000 Z" transform="scale(1.000000,1.000000) translate(-1.000000,-1.000000)" fill="url(#8759718413772416)" opacity="1.000000"></path>
        <path d="M 47.238911 31.791069 L 50.212310 32.698209 L 51.459623 32.924993 L 52.547351 33.000587 L 53.794668 32.876696 L 54.983184 32.505023 L 56.112906 31.885565 L 57.183836 31.018321 L 58.095177 29.999889 L 58.746133 28.926864 L 59.136704 27.799242 L 59.266894 26.617020 L 58.998112 24.399571 L 61.450747 25.155521 L 63.567402 25.407502 L 64.622584 25.330858 L 65.537074 25.100926 L 66.310872 24.717704 L 66.943978 24.181192 L 67.436393 23.491390 L 67.788117 22.648297 L 67.999152 21.651912 L 68.069496 20.502235 L 67.872111 18.834945 L 67.279954 17.260054 L 66.293022 15.777558 L 64.911311 14.387451 L 63.281818 13.211527 L 61.551539 12.371584 L 59.720467 11.867621 L 57.788595 11.699633 L 56.024716 11.834023 L 53.555282 12.237197 L 51.717901 9.654362 L 49.834328 7.415909 L 47.904562 5.521837 L 45.928601 3.972144 L 43.906444 2.766830 L 41.838087 1.905893 L 39.723529 1.389332 L 37.562768 1.217145 L 35.379959 1.358884 L 33.300048 1.784102 L 31.323034 2.492800 L 29.448915 3.484980 L 27.677690 4.760641 L 26.009356 6.319786 L 24.443913 8.162415 L 22.981359 10.288529 L 20.621113 9.318392 L 18.512859 8.625439 L 16.656590 8.209669 L 15.052297 8.071080 L 12.148187 8.255866 L 9.550668 8.810226 L 7.259729 9.734163 L 5.275361 11.027679 L 3.673165 12.627772 L 3.043732 13.519159 L 2.528743 14.471442 L 1.842093 16.558698 L 1.613210 18.889545 L 1.783297 20.871815 L 2.293560 22.719686 L 3.144002 24.433166 L 4.334625 26.012261 L 5.756231 27.335176 L 7.299622 28.280111 L 8.964806 28.847070 L 10.751789 29.036056 L 12.750852 28.868069 L 15.253883 28.364102 L 14.951503 30.732742 L 14.850711 32.597414 L 14.922630 34.036871 L 15.138389 35.432227 L 15.497987 36.783484 L 16.001426 38.090642 L 16.648706 39.353703 L 17.439828 40.572669 L 18.374792 41.747539 L 19.453598 42.878316 L 20.626897 43.917750 L 21.845339 44.818591 L 23.108926 45.580840 L 24.417658 46.204496 L 25.771539 46.689562 L 27.170567 47.036036 L 28.614746 47.243920 L 30.104075 47.313215 L 31.728320 47.234471 L 33.308464 46.998239 L 34.844508 46.604517 L 36.336453 46.053306 L 37.784301 45.344606 L 39.188054 44.478414 L 40.547711 43.454732 L 41.863276 42.273557 L 43.778349 40.257693 L 44.954266 38.510613 L 45.928599 36.024386 L 47.238911 31.791069 Z" transform="scale(1.000000,1.000000) translate(306.000000,249.000000)" fill="#0b2365" opacity="0.343112"></path>
        <path d="M 3.206012 7.133331 L 3.206012 2.871734 L 4.464113 2.871734 Q 5.429839 2.871734 5.810814 3.824170 Q 6.019021 4.346902 6.019021 5.068982 Q 6.019021 6.065717 5.706710 6.599524 Q 5.394400 7.133331 4.464113 7.133331 Z M 4.694470 8.267395 Q 5.301371 8.258535 5.704495 8.125637 Q 6.391135 7.899710 6.816409 7.297239 Q 7.157514 6.809946 7.281552 6.242914 Q 7.405590 5.675883 7.405590 5.162010 Q 7.405590 3.859609 6.882858 2.955902 Q 6.174068 1.737670 4.694470 1.737670 L 1.881461 1.737670 L 1.881461 8.267395 Z M 10.497685 2.628087 Q 11.051427 2.628087 11.348233 3.022351 Q 11.645039 3.416616 11.645039 4.143125 Q 11.645039 4.869634 11.348233 5.261684 Q 11.051427 5.653733 10.497685 5.653733 Q 9.943944 5.653733 9.644923 5.261684 Q 9.345902 4.869634 9.345902 4.143125 Q 9.345902 3.416616 9.644923 3.022351 Q 9.943944 2.628087 10.497685 2.628087 Z M 12.969589 4.143125 Q 12.969589 3.079940 12.358258 2.324636 Q 11.746927 1.569332 10.502115 1.569332 Q 9.257304 1.569332 8.645972 2.324636 Q 8.034641 3.079940 8.034641 4.143125 Q 8.034641 5.188590 8.645972 5.954969 Q 9.257304 6.721347 10.502115 6.721347 Q 11.746927 6.721347 12.358258 5.954969 Q 12.969589 5.188590 12.969589 4.143125 Z M 16.757184 4.834195 Q 16.721745 5.104421 16.575557 5.321488 Q 16.362920 5.613864 15.915497 5.613864 Q 15.277586 5.613864 15.042799 4.980383 Q 14.918761 4.643708 14.918761 4.085536 Q 14.918761 3.553944 15.042799 3.230558 Q 15.268726 2.628087 15.893347 2.628087 Q 16.336340 2.628087 16.522398 2.867304 Q 16.708455 3.106520 16.748324 3.487495 L 18.037436 3.487495 Q 17.993136 2.911603 17.621022 2.397730 Q 17.027410 1.569332 15.862337 1.569332 Q 14.697264 1.569332 14.147952 2.260402 Q 13.598640 2.951472 13.598640 4.054526 Q 13.598640 5.299338 14.205541 5.990408 Q 14.812443 6.681478 15.880057 6.681478 Q 16.788194 6.681478 17.366300 6.273924 Q 17.944407 5.866370 18.050725 4.834195 Z M 18.905703 8.245245 L 20.146085 8.245245 L 20.146085 4.727876 L 21.718712 6.544150 L 23.282479 6.544150 L 21.594674 4.696867 L 23.348928 1.737670 L 21.825030 1.737670 L 20.668817 3.802020 L 20.146085 3.257138 L 20.146085 1.737670 L 18.905703 1.737670 Z M 25.869562 5.653733 Q 25.430998 5.653733 25.189566 5.379077 Q 24.948135 5.104421 24.886116 4.634848 L 26.848577 4.634848 Q 26.817568 5.135431 26.545127 5.394582 Q 26.272686 5.653733 25.869562 5.653733 Z M 25.869562 6.694768 Q 26.472033 6.694768 26.954896 6.468841 Q 27.437759 6.242914 27.752284 5.755622 Q 28.035800 5.325918 28.119969 4.758886 Q 28.168698 4.426641 28.159838 3.802020 L 24.855106 3.802020 Q 24.881686 3.075511 25.311390 2.783135 Q 25.572756 2.601507 25.940441 2.601507 Q 26.330275 2.601507 26.573921 2.823004 Q 26.706819 2.942612 26.808708 3.155249 L 28.097819 3.155249 Q 28.049090 2.725546 27.650396 2.282552 Q 27.030205 1.578192 25.913861 1.578192 Q 24.992434 1.578192 24.288075 2.171804 Q 23.583715 2.765415 23.583715 4.103256 Q 23.583715 5.356927 24.219411 6.025848 Q 24.855106 6.694768 25.869562 6.694768 Z M 31.632908 6.681478 Q 31.668347 6.681478 31.692712 6.679263 Q 31.717076 6.677048 31.801245 6.672618 L 31.801245 5.379077 Q 31.681637 5.392367 31.588608 5.396797 Q 31.495580 5.401227 31.437990 5.401227 Q 30.676042 5.401227 30.414675 4.905074 Q 30.268487 4.625988 30.268487 4.045666 L 30.268487 1.737670 L 28.997096 1.737670 L 28.997096 6.566300 L 30.202038 6.566300 L 30.202038 5.724612 Q 30.494414 6.207475 30.711481 6.384672 Q 31.065876 6.681478 31.632908 6.681478 Z" transform="scale(1.000000,1.000000) translate(324.000000,265.000000)" fill="#100065" opacity="0.455704"></path>
        <path d="M 47.488914 31.805355 L 50.462313 32.712495 L 51.709626 32.939279 L 52.797353 33.014873 L 54.044670 32.890982 L 55.233187 32.519309 L 56.362908 31.899851 L 57.433838 31.032607 L 58.345180 30.014175 L 58.996135 28.941150 L 59.386707 27.813528 L 59.516897 26.631306 L 59.248115 24.413857 L 61.700750 25.169806 L 63.817405 25.421788 L 64.872587 25.345144 L 65.787077 25.115211 L 66.560874 24.731989 L 67.193980 24.195478 L 67.686395 23.505676 L 68.038120 22.662583 L 68.249154 21.666198 L 68.319499 20.516521 L 68.122114 18.849231 L 67.529957 17.274340 L 66.543025 15.791844 L 65.161313 14.401737 L 63.531820 13.225813 L 61.801541 12.385870 L 59.970469 11.881906 L 58.038597 11.713919 L 56.274719 11.848309 L 53.805285 12.251483 L 51.967903 9.668647 L 50.084330 7.430194 L 48.154565 5.536122 L 46.178604 3.986430 L 44.156446 2.781116 L 42.088089 1.920179 L 39.973531 1.403618 L 37.812771 1.231431 L 35.629961 1.373170 L 33.550050 1.798388 L 31.573036 2.507086 L 29.698918 3.499265 L 27.927692 4.774927 L 26.259359 6.334072 L 24.693916 8.176701 L 23.231361 10.302815 L 20.871115 9.332678 L 18.762862 8.639725 L 16.906592 8.223955 L 15.302300 8.085365 L 12.398190 8.270152 L 9.800670 8.824512 L 7.509731 9.748448 L 5.525364 11.041965 L 3.923167 12.642058 L 3.293735 13.533445 L 2.778746 14.485728 L 2.092095 16.572983 L 1.863212 18.903831 L 2.033300 20.886101 L 2.543563 22.733972 L 3.394005 24.447452 L 4.584628 26.026547 L 6.006233 27.349462 L 7.549625 28.294397 L 9.214809 28.861356 L 11.001792 29.050342 L 13.000854 28.882355 L 15.503886 28.378388 L 15.201506 30.747028 L 15.100713 32.611700 L 15.172633 34.051157 L 15.388391 35.446513 L 15.747990 36.797770 L 16.251429 38.104928 L 16.898709 39.367989 L 17.689830 40.586954 L 18.624794 41.761825 L 19.703601 42.892602 L 20.876899 43.932036 L 22.095341 44.832877 L 23.358928 45.595125 L 24.667661 46.218782 L 26.021541 46.703847 L 27.420570 47.050322 L 28.864748 47.258206 L 30.354077 47.327501 L 31.978323 47.248757 L 33.558467 47.012524 L 35.094511 46.618803 L 36.586456 46.067592 L 38.034304 45.358891 L 39.438056 44.492700 L 40.797714 43.469017 L 42.113279 42.287843 L 44.028352 40.271979 L 45.204269 38.524899 L 46.178601 36.038672 L 47.488914 31.805355 Z" transform="scale(1.000000,1.000000) translate(95.000000,259.000000)" fill="#0b2365" opacity="0.343112"></path>
        <path d="M 1.664691 8.279466 L 3.006962 8.279466 L 3.006962 5.590495 L 5.527595 8.279466 L 7.290709 8.279466 L 4.615028 5.590495 L 7.428037 1.749741 L 5.673783 1.749741 L 3.658162 4.602619 L 3.006962 3.933699 L 3.006962 1.749741 L 1.664691 1.749741 Z M 9.350629 6.578371 L 9.350629 3.667903 Q 9.350629 3.255919 9.448088 3.047712 Q 9.620855 2.680027 10.125868 2.680027 Q 10.772639 2.680027 11.011855 3.202760 Q 11.135893 3.486276 11.135893 3.951419 L 11.135893 6.578371 L 12.416145 6.578371 L 12.416145 1.749741 L 11.189053 1.749741 L 11.189053 2.431951 Q 11.171333 2.409801 11.100454 2.299053 Q 11.029575 2.188305 10.932116 2.104136 Q 10.635311 1.838340 10.358440 1.740881 Q 10.081569 1.643422 9.709454 1.643422 Q 8.637410 1.643422 8.265295 2.414231 Q 8.057088 2.839505 8.057088 3.667903 L 8.057088 6.578371 Z M 16.243609 6.684689 Q 17.196045 6.684689 17.734282 5.998049 Q 18.272519 5.311409 18.272519 4.226075 Q 18.272519 3.100871 17.740927 2.361072 Q 17.209335 1.621273 16.256899 1.621273 Q 15.658858 1.621273 15.295603 1.860489 Q 15.078536 2.002247 14.826030 2.356642 L 14.826030 1.749741 L 13.590078 1.749741 L 13.590078 8.270606 L 14.848179 8.270606 L 14.848179 5.949320 Q 15.087396 6.285995 15.375342 6.463192 Q 15.716447 6.684689 16.243609 6.684689 Z M 15.920224 2.662308 Q 16.407517 2.662308 16.677743 3.056572 Q 16.947969 3.450836 16.947969 4.093177 Q 16.947969 4.607049 16.815071 4.943724 Q 16.562564 5.581635 15.884784 5.581635 Q 15.198144 5.581635 14.941208 4.957014 Q 14.808310 4.624769 14.808310 4.097607 Q 14.808310 3.477416 15.082966 3.069862 Q 15.357622 2.662308 15.920224 2.662308 Z M 21.081099 5.665804 Q 20.642535 5.665804 20.401103 5.391148 Q 20.159672 5.116492 20.097653 4.646919 L 22.060114 4.646919 Q 22.029105 5.147501 21.756664 5.406653 Q 21.484223 5.665804 21.081099 5.665804 Z M 21.081099 6.706839 Q 21.683570 6.706839 22.166433 6.480912 Q 22.649296 6.254985 22.963821 5.767692 Q 23.247337 5.337989 23.331506 4.770957 Q 23.380235 4.438712 23.371375 3.814091 L 20.066643 3.814091 Q 20.093223 3.087581 20.522927 2.795206 Q 20.784293 2.613578 21.151978 2.613578 Q 21.541812 2.613578 21.785458 2.835075 Q 21.918356 2.954683 22.020245 3.167320 L 23.309356 3.167320 Q 23.260627 2.737617 22.861933 2.294623 Q 22.241742 1.590263 21.125398 1.590263 Q 20.203971 1.590263 19.499612 2.183875 Q 18.795252 2.777486 18.795252 4.115326 Q 18.795252 5.368998 19.430948 6.037918 Q 20.066643 6.706839 21.081099 6.706839 Z M 26.844445 6.693549 Q 26.879884 6.693549 26.904249 6.691334 Q 26.928613 6.689119 27.012782 6.684689 L 27.012782 5.391148 Q 26.893174 5.404438 26.800145 5.408868 Q 26.707117 5.413298 26.649527 5.413298 Q 25.887579 5.413298 25.626212 4.917145 Q 25.480024 4.638059 25.480024 4.057737 L 25.480024 1.749741 L 24.208633 1.749741 L 24.208633 6.578371 L 25.413575 6.578371 L 25.413575 5.736683 Q 25.705951 6.219546 25.923018 6.396743 Q 26.277413 6.693549 26.844445 6.693549 Z M 30.428262 6.693549 Q 31.176921 6.693549 31.653140 6.301500 Q 32.129358 5.909450 32.129358 5.001314 L 32.129358 1.749741 L 30.835816 1.749741 L 30.835816 4.686788 Q 30.835816 5.067763 30.733928 5.271540 Q 30.547871 5.643654 30.025138 5.643654 Q 29.382798 5.643654 29.143581 5.098772 Q 29.019543 4.810826 29.019543 4.363403 L 29.019543 1.749741 L 27.761441 1.749741 L 27.761441 6.569511 L 28.979673 6.569511 L 28.979673 5.865151 Q 29.223320 6.237266 29.440387 6.401173 Q 29.830221 6.693549 30.428262 6.693549 Z M 35.199303 5.665804 Q 34.760739 5.665804 34.519308 5.391148 Q 34.277876 5.116492 34.215857 4.646919 L 36.178319 4.646919 Q 36.147309 5.147501 35.874868 5.406653 Q 35.602427 5.665804 35.199303 5.665804 Z M 35.199303 6.706839 Q 35.801774 6.706839 36.284637 6.480912 Q 36.767500 6.254985 37.082025 5.767692 Q 37.365541 5.337989 37.449710 4.770957 Q 37.498439 4.438712 37.489580 3.814091 L 34.184848 3.814091 Q 34.211427 3.087581 34.641131 2.795206 Q 34.902497 2.613578 35.270182 2.613578 Q 35.660016 2.613578 35.903663 2.835075 Q 36.036561 2.954683 36.138449 3.167320 L 37.427560 3.167320 Q 37.378831 2.737617 36.980137 2.294623 Q 36.359946 1.590263 35.243602 1.590263 Q 34.322176 1.590263 33.617816 2.183875 Q 32.913456 2.777486 32.913456 4.115326 Q 32.913456 5.368998 33.549152 6.037918 Q 34.184848 6.706839 35.199303 6.706839 Z M 37.843974 5.634794 L 37.843974 6.534071 L 38.517325 6.534071 L 38.517325 7.880772 L 39.766566 7.880772 L 39.766566 6.534071 L 40.550665 6.534071 L 40.550665 5.634794 L 39.766566 5.634794 L 39.766566 3.083152 Q 39.766566 2.786346 39.841875 2.713252 Q 39.917184 2.640158 40.302589 2.640158 Q 40.360178 2.640158 40.424412 2.642373 Q 40.488646 2.644588 40.550665 2.649018 L 40.550665 1.705442 L 39.952624 1.683292 Q 39.057777 1.652282 38.729961 1.993387 Q 38.517325 2.210454 38.517325 2.662308 L 38.517325 5.634794 Z M 43.266215 5.665804 Q 42.827652 5.665804 42.586220 5.391148 Q 42.344789 5.116492 42.282770 4.646919 L 44.245231 4.646919 Q 44.214222 5.147501 43.941781 5.406653 Q 43.669340 5.665804 43.266215 5.665804 Z M 43.266215 6.706839 Q 43.868687 6.706839 44.351550 6.480912 Q 44.834413 6.254985 45.148938 5.767692 Q 45.432454 5.337989 45.516623 4.770957 Q 45.565352 4.438712 45.556492 3.814091 L 42.251760 3.814091 Q 42.278340 3.087581 42.708044 2.795206 Q 42.969410 2.613578 43.337094 2.613578 Q 43.726929 2.613578 43.970575 2.835075 Q 44.103473 2.954683 44.205362 3.167320 L 45.494473 3.167320 Q 45.445744 2.737617 45.047049 2.294623 Q 44.426859 1.590263 43.310515 1.590263 Q 42.389088 1.590263 41.684728 2.183875 Q 40.980369 2.777486 40.980369 4.115326 Q 40.980369 5.368998 41.616064 6.037918 Q 42.251760 6.706839 43.266215 6.706839 Z M 47.390485 3.291358 Q 47.430355 2.954683 47.563253 2.812925 Q 47.798039 2.560419 48.431520 2.560419 Q 48.803635 2.560419 49.022917 2.671168 Q 49.242198 2.781916 49.242198 3.003413 Q 49.242198 3.216050 49.065001 3.326798 Q 48.887804 3.437546 47.749310 3.707772 Q 46.929772 3.911549 46.593097 4.217215 Q 46.256422 4.518451 46.256422 5.085482 Q 46.256422 5.754403 46.781369 6.235051 Q 47.306317 6.715699 48.258753 6.715699 Q 49.162460 6.715699 49.731706 6.354659 Q 50.300953 5.993619 50.385122 5.107632 L 49.122590 5.107632 Q 49.096010 5.351278 48.985262 5.493036 Q 48.777055 5.749973 48.276472 5.749973 Q 47.864488 5.749973 47.689506 5.621505 Q 47.514524 5.493036 47.514524 5.320269 Q 47.514524 5.103202 47.700581 5.005744 Q 47.886638 4.903855 49.016272 4.655779 Q 49.769361 4.478581 50.145905 4.119756 Q 50.518020 3.756502 50.518020 3.211620 Q 50.518020 2.493970 49.984213 2.039902 Q 49.450405 1.585833 48.334062 1.585833 Q 47.195568 1.585833 46.652901 2.066481 Q 46.110234 2.547129 46.110234 3.291358 Z" transform="scale(1.000000,1.000000) translate(104.000000,275.000000)" fill="#100065" opacity="0.455704"></path>
        <path d="M 46.863912 31.674999 L 49.837312 32.582139 L 51.084625 32.808923 L 52.172352 32.884517 L 53.419669 32.760626 L 54.608186 32.388953 L 55.737907 31.769495 L 56.808837 30.902251 L 57.720179 29.883819 L 58.371134 28.810794 L 58.761705 27.683172 L 58.891895 26.500950 L 58.623114 24.283501 L 61.075748 25.039450 L 63.192403 25.291432 L 64.247586 25.214788 L 65.162075 24.984855 L 65.935873 24.601634 L 66.568979 24.065122 L 67.061394 23.375320 L 67.413119 22.532227 L 67.624153 21.535842 L 67.694498 20.386165 L 67.497113 18.718875 L 66.904956 17.143984 L 65.918023 15.661488 L 64.536312 14.271381 L 62.906819 13.095457 L 61.176540 12.255514 L 59.345468 11.751550 L 57.413596 11.583563 L 55.649718 11.717953 L 53.180283 12.121127 L 51.342902 9.538291 L 49.459329 7.299839 L 47.529563 5.405766 L 45.553603 3.856074 L 43.531445 2.650760 L 41.463088 1.789823 L 39.348530 1.273262 L 37.187769 1.101075 L 35.004960 1.242814 L 32.925049 1.668032 L 30.948035 2.376730 L 29.073916 3.368910 L 27.302691 4.644571 L 25.634358 6.203716 L 24.068915 8.046345 L 22.606360 10.172459 L 20.246114 9.202322 L 18.137860 8.509369 L 16.281591 8.093599 L 14.677298 7.955009 L 11.773189 8.139796 L 9.175669 8.694156 L 6.884730 9.618092 L 4.900362 10.911609 L 3.298166 12.511702 L 2.668734 13.403089 L 2.153744 14.355372 L 1.467094 16.442627 L 1.238211 18.773475 L 1.408298 20.755745 L 1.918561 22.603616 L 2.769003 24.317096 L 3.959626 25.896191 L 5.381232 27.219106 L 6.924624 28.164041 L 8.589808 28.731000 L 10.376790 28.919986 L 12.375853 28.751999 L 14.878885 28.248032 L 14.576505 30.616672 L 14.475712 32.481344 L 14.547631 33.920801 L 14.763390 35.316157 L 15.122989 36.667414 L 15.626428 37.974572 L 16.273708 39.237633 L 17.064829 40.456599 L 17.999793 41.631469 L 19.078599 42.762246 L 20.251898 43.801680 L 21.470340 44.702521 L 22.733927 45.464769 L 24.042660 46.088426 L 25.396540 46.573491 L 26.795568 46.919966 L 28.239747 47.127850 L 29.729076 47.197145 L 31.353322 47.118401 L 32.933466 46.882169 L 34.469509 46.488447 L 35.961455 45.937236 L 37.409303 45.228536 L 38.813055 44.362344 L 40.172713 43.338661 L 41.488277 42.157487 L 43.403351 40.141623 L 44.579267 38.394543 L 45.553600 35.908316 L 46.863912 31.674999 Z" transform="scale(1.000000,1.000000) translate(201.000000,203.000000)" fill="#0b2365" opacity="0.343112"></path>
        <path d="M 1.490024 4.740275 Q 1.490024 6.450230 2.407020 7.376086 Q 3.204409 8.182334 4.435931 8.182334 Q 6.083867 8.182334 6.845816 7.101430 Q 7.266660 6.494529 7.297669 5.883198 L 5.933249 5.883198 Q 5.800351 6.352771 5.592144 6.591988 Q 5.220029 7.017261 4.489090 7.017261 Q 3.744861 7.017261 3.315157 6.417005 Q 2.885453 5.816749 2.885453 4.718125 Q 2.885453 3.619501 3.339522 3.072404 Q 3.793590 2.525307 4.493520 2.525307 Q 5.211170 2.525307 5.587714 2.994880 Q 5.795921 3.247386 5.933249 3.752399 L 7.284379 3.752399 Q 7.107182 2.684784 6.378458 2.015864 Q 5.649733 1.346944 4.511240 1.346944 Q 3.102520 1.346944 2.296272 2.250651 Q 1.490024 3.158788 1.490024 4.740275 Z M 9.574656 1.528571 L 8.219096 1.528571 L 8.219096 8.058296 L 9.574656 8.058296 Z M 12.188318 8.257643 L 13.238213 8.257643 L 10.699860 1.528571 L 9.658825 1.528571 Z M 13.083165 4.740275 Q 13.083165 6.450230 14.000162 7.376086 Q 14.797550 8.182334 16.029072 8.182334 Q 17.677008 8.182334 18.438957 7.101430 Q 18.859801 6.494529 18.890810 5.883198 L 17.526390 5.883198 Q 17.393492 6.352771 17.185285 6.591988 Q 16.813171 7.017261 16.082231 7.017261 Q 15.338002 7.017261 14.908298 6.417005 Q 14.478595 5.816749 14.478595 4.718125 Q 14.478595 3.619501 14.932663 3.072404 Q 15.386731 2.525307 16.086661 2.525307 Q 16.804311 2.525307 17.180855 2.994880 Q 17.389062 3.247386 17.526390 3.752399 L 18.877520 3.752399 Q 18.700323 2.684784 17.971599 2.015864 Q 17.242874 1.346944 16.104381 1.346944 Q 14.695661 1.346944 13.889413 2.250651 Q 13.083165 3.158788 13.083165 4.740275 Z M 21.243106 6.924233 L 21.243106 2.662635 L 22.501208 2.662635 Q 23.466934 2.662635 23.847908 3.615071 Q 24.056115 4.137803 24.056115 4.859883 Q 24.056115 5.856618 23.743805 6.390425 Q 23.431494 6.924233 22.501208 6.924233 Z M 22.731564 8.058296 Q 23.338466 8.049436 23.741590 7.916538 Q 24.428230 7.690612 24.853503 7.088140 Q 25.194608 6.600847 25.318647 6.033816 Q 25.442685 5.466784 25.442685 4.952911 Q 25.442685 3.650510 24.919952 2.746804 Q 24.211163 1.528571 22.731564 1.528571 L 19.918555 1.528571 L 19.918555 8.058296 Z" transform="scale(1.000000,1.000000) translate(222.000000,219.000000)" fill="#100065" opacity="0.455704"></path>
        <path d="M 47.613910 31.674999 L 50.587309 32.582139 L 51.834622 32.808923 L 52.922349 32.884517 L 54.169666 32.760626 L 55.358183 32.388953 L 56.487904 31.769495 L 57.558834 30.902251 L 58.470176 29.883819 L 59.121132 28.810794 L 59.511703 27.683172 L 59.641893 26.500950 L 59.373111 24.283501 L 61.825746 25.039450 L 63.942401 25.291432 L 64.997583 25.214788 L 65.912073 24.984855 L 66.685871 24.601634 L 67.318977 24.065122 L 67.811392 23.375320 L 68.163116 22.532227 L 68.374150 21.535842 L 68.444495 20.386165 L 68.247110 18.718875 L 67.654953 17.143984 L 66.668021 15.661488 L 65.286310 14.271381 L 63.656817 13.095457 L 61.926538 12.255514 L 60.095466 11.751550 L 58.163593 11.583563 L 56.399715 11.717953 L 53.930281 12.121127 L 52.092899 9.538291 L 50.209327 7.299839 L 48.279561 5.405766 L 46.303600 3.856074 L 44.281442 2.650760 L 42.213085 1.789823 L 40.098528 1.273262 L 37.937767 1.101075 L 35.754957 1.242814 L 33.675047 1.668032 L 31.698033 2.376730 L 29.823914 3.368910 L 28.052689 4.644571 L 26.384355 6.203716 L 24.818912 8.046345 L 23.356357 10.172459 L 20.996112 9.202322 L 18.887858 8.509369 L 17.031588 8.093599 L 15.427296 7.955009 L 12.523186 8.139796 L 9.925666 8.694156 L 7.634727 9.618092 L 5.650360 10.911609 L 4.048164 12.511702 L 3.418731 13.403089 L 2.903742 14.355372 L 2.217091 16.442627 L 1.988209 18.773475 L 2.158296 20.755745 L 2.668559 22.603616 L 3.519001 24.317096 L 4.709624 25.896191 L 6.131229 27.219106 L 7.674621 28.164041 L 9.339805 28.731000 L 11.126788 28.919986 L 13.125851 28.751999 L 15.628882 28.248032 L 15.326502 30.616672 L 15.225710 32.481344 L 15.297629 33.920801 L 15.513388 35.316157 L 15.872986 36.667414 L 16.376425 37.974572 L 17.023705 39.237633 L 17.814827 40.456599 L 18.749790 41.631469 L 19.828597 42.762246 L 21.001895 43.801680 L 22.220337 44.702521 L 23.483924 45.464769 L 24.792657 46.088426 L 26.146537 46.573491 L 27.545566 46.919966 L 28.989744 47.127850 L 30.479074 47.197145 L 32.103319 47.118401 L 33.683463 46.882169 L 35.219507 46.488447 L 36.711452 45.937236 L 38.159300 45.228536 L 39.563052 44.362344 L 40.922710 43.338661 L 42.238275 42.157487 L 44.153348 40.141623 L 45.329265 38.394543 L 46.303597 35.908316 L 47.613910 31.674999 Z" transform="scale(1.000000,1.000000) translate(411.000000,203.000000)" fill="#0b2365" opacity="0.343112"></path>
        <path d="M 2.508264 3.690380 Q 2.570283 3.242956 2.751911 3.021460 Q 3.084156 2.618335 3.890404 2.618335 Q 4.373267 2.618335 4.674503 2.724654 Q 5.245964 2.928431 5.245964 3.482173 Q 5.245964 3.805558 4.962448 3.982756 Q 4.678932 4.155523 4.072031 4.288421 L 3.380961 4.443469 Q 2.362076 4.673826 1.972242 4.944052 Q 1.312182 5.395905 1.312182 6.357201 Q 1.312182 7.234328 1.950092 7.814650 Q 2.588003 8.394971 3.823955 8.394971 Q 4.856130 8.394971 5.584854 7.847874 Q 6.313579 7.300777 6.349018 6.259742 L 5.037757 6.259742 Q 5.002318 6.848924 4.523885 7.097000 Q 4.204929 7.260908 3.730926 7.260908 Q 3.203764 7.260908 2.889239 7.048271 Q 2.574713 6.835634 2.574713 6.454660 Q 2.574713 6.104695 2.884809 5.931927 Q 3.084156 5.816749 3.735356 5.661701 L 4.860560 5.391475 Q 5.600359 5.214278 5.976904 4.917472 Q 6.561655 4.456759 6.561655 3.584061 Q 6.561655 2.689214 5.877230 2.097818 Q 5.192805 1.506422 3.943563 1.506422 Q 2.667742 1.506422 1.936802 2.088958 Q 1.205863 2.671495 1.205863 3.690380 Z M 10.446708 2.649345 Q 10.681495 2.649345 10.898562 2.706934 Q 11.018170 2.737944 11.204227 2.817683 L 10.544167 3.446733 L 11.248527 4.182103 L 11.908587 3.553052 Q 12.063635 3.872007 12.125654 4.111224 Q 12.223113 4.470048 12.223113 4.948482 Q 12.223113 6.047105 11.773474 6.647362 Q 11.323836 7.247618 10.459998 7.247618 Q 9.649320 7.247618 9.166457 6.671726 Q 8.683594 6.095835 8.683594 4.948482 Q 8.683594 3.606211 9.374664 3.025890 Q 9.822088 2.649345 10.446708 2.649345 Z M 13.587533 5.045940 Q 13.587533 4.173243 13.374896 3.584061 Q 13.202128 3.021460 12.865453 2.649345 L 13.618542 1.944985 L 12.905323 1.200756 L 12.116794 1.944985 Q 11.757969 1.727918 11.496603 1.639320 Q 11.058040 1.493132 10.446708 1.493132 Q 9.170887 1.493132 8.338059 2.255081 Q 7.328034 3.172077 7.328034 4.948482 Q 7.328034 6.738175 8.364639 7.655172 Q 9.210756 8.403831 10.468858 8.403831 Q 11.735820 8.403831 12.595227 7.610873 Q 13.587533 6.693876 13.587533 5.045940 Z M 14.628568 8.204484 L 15.992988 8.204484 L 15.992988 2.848692 L 19.226841 2.848692 L 19.226841 1.674759 L 14.628568 1.674759 Z" transform="scale(1.000000,1.000000) translate(436.000000,219.000000)" fill="#100065" opacity="0.455704"></path>
        <path d="M 46.988909 31.791069 L 49.962308 32.698209 L 51.209621 32.924993 L 52.297348 33.000587 L 53.544665 32.876696 L 54.733182 32.505023 L 55.862903 31.885565 L 56.933833 31.018321 L 57.845175 29.999889 L 58.496130 28.926864 L 58.886702 27.799242 L 59.016892 26.617020 L 58.748110 24.399571 L 61.200745 25.155521 L 63.317400 25.407502 L 64.372582 25.330858 L 65.287072 25.100926 L 66.060869 24.717704 L 66.693975 24.181192 L 67.186390 23.491390 L 67.538115 22.648297 L 67.749149 21.651912 L 67.819494 20.502235 L 67.622109 18.834945 L 67.029952 17.260054 L 66.043020 15.777558 L 64.661308 14.387451 L 63.031815 13.211527 L 61.301536 12.371584 L 59.470464 11.867621 L 57.538592 11.699633 L 55.774714 11.834023 L 53.305280 12.237197 L 51.467898 9.654362 L 49.584325 7.415909 L 47.654560 5.521837 L 45.678599 3.972144 L 43.656441 2.766830 L 41.588084 1.905893 L 39.473526 1.389332 L 37.312766 1.217145 L 35.129956 1.358884 L 33.050045 1.784102 L 31.073031 2.492800 L 29.198913 3.484980 L 27.427687 4.760641 L 25.759354 6.319786 L 24.193911 8.162415 L 22.731356 10.288529 L 20.371110 9.318392 L 18.262857 8.625439 L 16.406587 8.209669 L 14.802295 8.071080 L 11.898185 8.255866 L 9.300665 8.810226 L 7.009726 9.734163 L 5.025359 11.027679 L 3.423162 12.627772 L 2.793730 13.519159 L 2.278741 14.471442 L 1.592090 16.558698 L 1.363207 18.889545 L 1.533295 20.871815 L 2.043558 22.719686 L 2.894000 24.433166 L 4.084623 26.012261 L 5.506228 27.335176 L 7.049620 28.280111 L 8.714804 28.847070 L 10.501787 29.036056 L 12.500849 28.868069 L 15.003881 28.364102 L 14.701501 30.732742 L 14.600708 32.597414 L 14.672628 34.036871 L 14.888386 35.432227 L 15.247985 36.783484 L 15.751424 38.090642 L 16.398704 39.353703 L 17.189825 40.572669 L 18.124789 41.747539 L 19.203596 42.878316 L 20.376894 43.917750 L 21.595336 44.818591 L 22.858923 45.580840 L 24.167656 46.204496 L 25.521536 46.689562 L 26.920565 47.036036 L 28.364743 47.243920 L 29.854072 47.313215 L 31.478318 47.234471 L 33.058462 46.998239 L 34.594506 46.604517 L 36.086451 46.053306 L 37.534299 45.344606 L 38.938051 44.478414 L 40.297709 43.454732 L 41.613274 42.273557 L 43.528347 40.257693 L 44.704264 38.510613 L 45.678596 36.024386 L 46.988909 31.791069 Z" transform="scale(1.000000,1.000000) translate(517.000000,249.000000)" fill="#0b2365" opacity="0.343112"></path>
        <path d="M 3.041459 7.133331 L 3.041459 5.379077 L 4.587507 5.379077 Q 5.048220 5.379077 5.278577 5.485395 Q 5.686131 5.671453 5.686131 6.220765 Q 5.686131 6.814376 5.291866 7.018153 Q 5.070370 7.133331 4.627376 7.133331 Z M 4.910892 8.267395 Q 5.597532 8.254105 5.967432 8.099057 Q 6.337331 7.944010 6.594267 7.642774 Q 6.806904 7.394698 6.930943 7.093462 Q 7.054981 6.792226 7.054981 6.406822 Q 7.054981 5.941679 6.820194 5.492040 Q 6.585408 5.042402 6.044955 4.856345 Q 6.496809 4.674717 6.685081 4.340257 Q 6.873353 4.005797 6.873353 3.319157 L 6.873353 2.880593 Q 6.873353 2.433170 6.908793 2.273692 Q 6.961952 2.021186 7.156869 1.901578 L 7.156869 1.737670 L 5.655121 1.737670 Q 5.593102 1.954737 5.566522 2.087635 Q 5.513363 2.362291 5.508933 2.650237 L 5.500073 3.257138 Q 5.491214 3.881759 5.271932 4.089966 Q 5.052650 4.298173 4.450179 4.298173 L 3.041459 4.298173 L 3.041459 1.737670 L 1.708049 1.737670 L 1.708049 8.267395 Z M 10.031897 5.653733 Q 9.593334 5.653733 9.351902 5.379077 Q 9.110471 5.104421 9.048452 4.634848 L 11.010913 4.634848 Q 10.979904 5.135431 10.707463 5.394582 Q 10.435022 5.653733 10.031897 5.653733 Z M 10.031897 6.694768 Q 10.634369 6.694768 11.117232 6.468841 Q 11.600095 6.242914 11.914620 5.755622 Q 12.198136 5.325918 12.282305 4.758886 Q 12.331034 4.426641 12.322174 3.802020 L 9.017442 3.802020 Q 9.044022 3.075511 9.473726 2.783135 Q 9.735092 2.601507 10.102776 2.601507 Q 10.492611 2.601507 10.736257 2.823004 Q 10.869155 2.942612 10.971044 3.155249 L 12.260155 3.155249 Q 12.211426 2.725546 11.812731 2.282552 Q 11.192541 1.578192 10.076197 1.578192 Q 9.154770 1.578192 8.450410 2.171804 Q 7.746051 2.765415 7.746051 4.103256 Q 7.746051 5.356927 8.381746 6.025848 Q 9.017442 6.694768 10.031897 6.694768 Z M 15.835113 4.085536 Q 15.715505 4.010227 15.593681 3.963713 Q 15.471858 3.917198 15.259221 3.877329 L 14.975705 3.824170 Q 14.577011 3.753291 14.404244 3.651402 Q 14.111868 3.478635 14.111868 3.115380 Q 14.111868 2.791995 14.291280 2.648022 Q 14.470693 2.504049 14.727629 2.504049 Q 15.135183 2.504049 15.478503 2.743265 Q 15.821823 2.982482 15.835113 3.615963 Z M 15.068734 4.674717 Q 15.418699 4.719017 15.569317 4.785466 Q 15.839543 4.900644 15.839543 5.144290 Q 15.839543 5.441096 15.633551 5.554059 Q 15.427559 5.667023 15.028865 5.667023 Q 14.581441 5.667023 14.395384 5.445526 Q 14.262486 5.281618 14.218186 5.002532 L 12.999954 5.002532 Q 13.039824 5.636013 13.354349 6.043567 Q 13.854932 6.681478 15.073164 6.681478 Q 15.866122 6.681478 16.481883 6.366953 Q 17.097644 6.052427 17.097644 5.179730 L 17.097644 2.964762 Q 17.097644 2.734406 17.106504 2.406590 Q 17.119794 2.158514 17.181813 2.069915 Q 17.243832 1.981316 17.367871 1.923727 L 17.367871 1.737670 L 15.994591 1.737670 Q 15.937001 1.883858 15.914852 2.012326 Q 15.892702 2.140794 15.879412 2.304702 Q 15.618046 2.021186 15.276941 1.821839 Q 14.869387 1.587052 14.355514 1.587052 Q 13.699884 1.587052 13.272395 1.961382 Q 12.844906 2.335711 12.844906 3.022351 Q 12.844906 3.912768 13.531546 4.311463 Q 13.908091 4.528529 14.639030 4.621558 Z M 21.102306 4.834195 Q 21.066867 5.104421 20.920679 5.321488 Q 20.708042 5.613864 20.260618 5.613864 Q 19.622708 5.613864 19.387921 4.980383 Q 19.263883 4.643708 19.263883 4.085536 Q 19.263883 3.553944 19.387921 3.230558 Q 19.613848 2.628087 20.238469 2.628087 Q 20.681462 2.628087 20.867520 2.867304 Q 21.053577 3.106520 21.093446 3.487495 L 22.382558 3.487495 Q 22.338258 2.911603 21.966144 2.397730 Q 21.372532 1.569332 20.207459 1.569332 Q 19.042386 1.569332 18.493074 2.260402 Q 17.943762 2.951472 17.943762 4.054526 Q 17.943762 5.299338 18.550663 5.990408 Q 19.157564 6.681478 20.225179 6.681478 Q 21.133316 6.681478 21.711422 6.273924 Q 22.289529 5.866370 22.395847 4.834195 Z M 22.767962 5.622723 L 22.767962 6.522000 L 23.441312 6.522000 L 23.441312 7.868701 L 24.690554 7.868701 L 24.690554 6.522000 L 25.474652 6.522000 L 25.474652 5.622723 L 24.690554 5.622723 L 24.690554 3.071081 Q 24.690554 2.774275 24.765863 2.701181 Q 24.841172 2.628087 25.226576 2.628087 Q 25.284165 2.628087 25.348399 2.630302 Q 25.412633 2.632517 25.474652 2.636947 L 25.474652 1.693371 L 24.876611 1.671221 Q 23.981764 1.640211 23.653949 1.981316 Q 23.441312 2.198383 23.441312 2.650237 L 23.441312 5.622723 Z" transform="scale(1.000000,1.000000) translate(538.000000,265.000000)" fill="#100065" opacity="0.455704"></path>
        <path d="M 47.497840 32.569638 L 50.471239 33.476779 L 51.718552 33.703562 L 52.806279 33.779156 L 54.053596 33.655265 L 55.242113 33.283592 L 56.371834 32.664134 L 57.442764 31.796891 L 58.354106 30.778458 L 59.005061 29.705433 L 59.395633 28.577812 L 59.525823 27.395589 L 59.257041 25.178140 L 61.709676 25.934090 L 63.826331 26.186072 L 64.881513 26.109428 L 65.796003 25.879495 L 66.569801 25.496273 L 67.202907 24.959761 L 67.695322 24.269959 L 68.047046 23.426866 L 68.258080 22.430481 L 68.328425 21.280805 L 68.131040 19.613514 L 67.538883 18.038624 L 66.551951 16.556128 L 65.170239 15.166020 L 63.540747 13.990096 L 61.810468 13.150153 L 59.979395 12.646190 L 58.047523 12.478202 L 56.283645 12.612593 L 53.814211 13.015766 L 51.976829 10.432931 L 50.093257 8.194478 L 48.163491 6.300406 L 46.187530 4.750713 L 44.165372 3.545399 L 42.097015 2.684462 L 39.982458 2.167901 L 37.821697 1.995714 L 35.638887 2.137453 L 33.558976 2.562671 L 31.581962 3.271370 L 29.707844 4.263549 L 27.936618 5.539210 L 26.268285 7.098355 L 24.702842 8.940984 L 23.240287 11.067098 L 20.880042 10.096961 L 18.771788 9.404008 L 16.915518 8.988238 L 15.311226 8.849649 L 12.407116 9.034435 L 9.809596 9.588795 L 7.518657 10.512732 L 5.534290 11.806248 L 3.932093 13.406341 L 3.302661 14.297729 L 2.787672 15.250012 L 2.101021 17.337267 L 1.872139 19.668114 L 2.042226 21.650384 L 2.552489 23.498255 L 3.402931 25.211735 L 4.593554 26.790831 L 6.015159 28.113745 L 7.558551 29.058681 L 9.223735 29.625640 L 11.010718 29.814625 L 13.009781 29.646638 L 15.512812 29.142671 L 15.210432 31.511311 L 15.109639 33.375983 L 15.181559 34.815440 L 15.397318 36.210796 L 15.756916 37.562053 L 16.260355 38.869211 L 16.907635 40.132273 L 17.698757 41.351238 L 18.633720 42.526108 L 19.712527 43.656885 L 20.885825 44.696319 L 22.104267 45.597160 L 23.367854 46.359409 L 24.676587 46.983065 L 26.030467 47.468131 L 27.429496 47.814605 L 28.873674 48.022490 L 30.363003 48.091784 L 31.987249 48.013040 L 33.567393 47.776808 L 35.103437 47.383087 L 36.595382 46.831876 L 38.043230 46.123175 L 39.446982 45.256983 L 40.806640 44.233301 L 42.122205 43.052126 L 44.037278 41.036263 L 45.213195 39.289182 L 46.187527 36.802955 L 47.497840 32.569638 Z" transform="scale(1.000000,1.000000) translate(312.000000,93.000000)" fill="#0b2365" opacity="0.343112"></path>
        <path d="M 1.136307 4.639344 Q 1.136307 6.349299 2.053304 7.275155 Q 2.850692 8.081404 4.082214 8.081404 Q 5.730150 8.081404 6.492099 7.000499 Q 6.912943 6.393598 6.943953 5.782267 L 5.579533 5.782267 Q 5.446635 6.251840 5.238428 6.491057 Q 4.866313 6.916331 4.135374 6.916331 Q 3.391144 6.916331 2.961441 6.316074 Q 2.531737 5.715818 2.531737 4.617194 Q 2.531737 3.518570 2.985805 2.971473 Q 3.439874 2.424376 4.139804 2.424376 Q 4.857453 2.424376 5.233998 2.893949 Q 5.442205 3.146456 5.579533 3.651468 L 6.930663 3.651468 Q 6.753465 2.583854 6.024741 1.914933 Q 5.296017 1.246013 4.157523 1.246013 Q 2.748804 1.246013 1.942556 2.149720 Q 1.136307 3.057857 1.136307 4.639344 Z M 8.959573 3.443261 Q 9.021592 2.995838 9.203220 2.774341 Q 9.535465 2.371217 10.341713 2.371217 Q 10.824576 2.371217 11.125812 2.477535 Q 11.697273 2.681312 11.697273 3.235054 Q 11.697273 3.558440 11.413758 3.735637 Q 11.130242 3.908404 10.523341 4.041302 L 9.832271 4.196350 Q 8.813385 4.426707 8.423551 4.696933 Q 7.763491 5.148786 7.763491 6.110082 Q 7.763491 6.987210 8.401401 7.567531 Q 9.039312 8.147853 10.275264 8.147853 Q 11.307439 8.147853 12.036164 7.600756 Q 12.764888 7.053659 12.800327 6.012624 L 11.489066 6.012624 Q 11.453627 6.601805 10.975194 6.849882 Q 10.656239 7.013789 10.182236 7.013789 Q 9.655073 7.013789 9.340548 6.801152 Q 9.026022 6.588515 9.026022 6.207541 Q 9.026022 5.857576 9.336118 5.684809 Q 9.535465 5.569630 10.186665 5.414582 L 11.311869 5.144356 Q 12.051668 4.967159 12.428213 4.670353 Q 13.012964 4.209640 13.012964 3.336943 Q 13.012964 2.442096 12.328539 1.850699 Q 11.644114 1.259303 10.394872 1.259303 Q 9.119051 1.259303 8.388112 1.841840 Q 7.657172 2.424376 7.657172 3.443261 Z M 15.010865 3.443261 Q 15.072884 2.995838 15.254512 2.774341 Q 15.586757 2.371217 16.393005 2.371217 Q 16.875868 2.371217 17.177104 2.477535 Q 17.748565 2.681312 17.748565 3.235054 Q 17.748565 3.558440 17.465049 3.735637 Q 17.181534 3.908404 16.574632 4.041302 L 15.883562 4.196350 Q 14.864677 4.426707 14.474843 4.696933 Q 13.814783 5.148786 13.814783 6.110082 Q 13.814783 6.987210 14.452693 7.567531 Q 15.090604 8.147853 16.326556 8.147853 Q 17.358731 8.147853 18.087455 7.600756 Q 18.816180 7.053659 18.851619 6.012624 L 17.540358 6.012624 Q 17.504919 6.601805 17.026486 6.849882 Q 16.707530 7.013789 16.233527 7.013789 Q 15.706365 7.013789 15.391840 6.801152 Q 15.077314 6.588515 15.077314 6.207541 Q 15.077314 5.857576 15.387410 5.684809 Q 15.586757 5.569630 16.237957 5.414582 L 17.363161 5.144356 Q 18.102960 4.967159 18.479505 4.670353 Q 19.064256 4.209640 19.064256 3.336943 Q 19.064256 2.442096 18.379831 1.850699 Q 17.695406 1.259303 16.446164 1.259303 Q 15.170343 1.259303 14.439404 1.841840 Q 13.708464 2.424376 13.708464 3.443261 Z" transform="scale(1.000000,1.000000) translate(337.000000,110.000000)" fill="#100065" opacity="0.455704"></path>
        <path d="M 46.747842 31.583924 L 49.721242 32.491064 L 50.968555 32.717848 L 52.056282 32.793442 L 53.303599 32.669551 L 54.492116 32.297878 L 55.621837 31.678420 L 56.692767 30.811177 L 57.604109 29.792744 L 58.255064 28.719719 L 58.645635 27.592098 L 58.775825 26.409875 L 58.507044 24.192426 L 60.959678 24.948376 L 63.076333 25.200357 L 64.131516 25.123713 L 65.046005 24.893781 L 65.819803 24.510559 L 66.452909 23.974047 L 66.945324 23.284245 L 67.297049 22.441152 L 67.508083 21.444767 L 67.578427 20.295091 L 67.381043 18.627800 L 66.788886 17.052910 L 65.801953 15.570413 L 64.420242 14.180306 L 62.790749 13.004382 L 61.060470 12.164439 L 59.229398 11.660476 L 57.297526 11.492488 L 55.533647 11.626878 L 53.064213 12.030052 L 51.226832 9.447217 L 49.343259 7.208764 L 47.413493 5.314692 L 45.437533 3.764999 L 43.415375 2.559685 L 41.347018 1.698748 L 39.232460 1.182187 L 37.071699 1.010000 L 34.888890 1.151739 L 32.808979 1.576957 L 30.831965 2.285655 L 28.957846 3.277835 L 27.186621 4.553496 L 25.518288 6.112641 L 23.952844 7.955270 L 22.490290 10.081384 L 20.130044 9.111247 L 18.021790 8.418294 L 16.165521 8.002524 L 14.561228 7.863935 L 11.657119 8.048721 L 9.059599 8.603081 L 6.768660 9.527018 L 4.784292 10.820534 L 3.182096 12.420627 L 2.552663 13.312015 L 2.037674 14.264297 L 1.351024 16.351553 L 1.122141 18.682400 L 1.292228 20.664670 L 1.802491 22.512541 L 2.652933 24.226021 L 3.843556 25.805116 L 5.265162 27.128031 L 6.808553 28.072966 L 8.473738 28.639925 L 10.260720 28.828911 L 12.259783 28.660924 L 14.762815 28.156957 L 14.460435 30.525597 L 14.359642 32.390269 L 14.431561 33.829726 L 14.647320 35.225082 L 15.006919 36.576339 L 15.510358 37.883497 L 16.157638 39.146558 L 16.948759 40.365524 L 17.883723 41.540394 L 18.962529 42.671171 L 20.135828 43.710605 L 21.354270 44.611446 L 22.617857 45.373695 L 23.926590 45.997351 L 25.280470 46.482417 L 26.679498 46.828891 L 28.123677 47.036775 L 29.613006 47.106070 L 31.237251 47.027326 L 32.817395 46.791094 L 34.353439 46.397372 L 35.845385 45.846162 L 37.293233 45.137461 L 38.696985 44.271269 L 40.056643 43.247587 L 41.372207 42.066412 L 43.287281 40.050549 L 44.463197 38.303468 L 45.437530 35.817241 L 46.747842 31.583924 Z" transform="scale(1.000000,1.000000) translate(102.000000,104.000000)" fill="#0b2365" opacity="0.343112"></path>
        <path d="M 2.405549 5.852977 L 2.405549 5.702359 Q 2.423269 4.944840 2.571672 4.636959 Q 2.720075 4.329079 3.207368 4.329079 Q 3.690231 4.329079 3.845278 4.665754 Q 3.938307 4.865101 3.938307 5.339104 L 3.938307 9.906368 L 5.302727 9.906368 L 5.302727 5.361254 Q 5.302727 4.528426 5.014781 4.041133 Q 4.527488 3.217165 3.256097 3.217165 Q 1.984705 3.217165 1.550572 3.883870 Q 1.116438 4.550576 1.116438 5.702359 L 1.116438 5.852977 Z M 9.214360 5.724509 Q 9.094752 5.649200 8.972929 5.602685 Q 8.851105 5.556171 8.638468 5.516302 L 8.354953 5.463142 Q 7.956258 5.392263 7.783491 5.290375 Q 7.491115 5.117607 7.491115 4.754353 Q 7.491115 4.430967 7.670528 4.286995 Q 7.849940 4.143022 8.106876 4.143022 Q 8.514430 4.143022 8.857750 4.382238 Q 9.201070 4.621455 9.214360 5.254935 Z M 8.447981 6.313690 Q 8.797946 6.357989 8.948564 6.424438 Q 9.218790 6.539617 9.218790 6.783263 Q 9.218790 7.080069 9.012798 7.193032 Q 8.806806 7.305996 8.408112 7.305996 Q 7.960688 7.305996 7.774631 7.084499 Q 7.641733 6.920591 7.597434 6.641505 L 6.379201 6.641505 Q 6.419071 7.274986 6.733596 7.682540 Q 7.234179 8.320451 8.452411 8.320451 Q 9.245370 8.320451 9.861131 8.005925 Q 10.476892 7.691400 10.476892 6.818703 L 10.476892 4.603735 Q 10.476892 4.373378 10.485752 4.045563 Q 10.499041 3.797487 10.561060 3.708888 Q 10.623080 3.620289 10.747118 3.562700 L 10.747118 3.376643 L 9.373838 3.376643 Q 9.316249 3.522831 9.294099 3.651299 Q 9.271949 3.779767 9.258659 3.943675 Q 8.997293 3.660159 8.656188 3.460812 Q 8.248634 3.226025 7.734762 3.226025 Q 7.079131 3.226025 6.651642 3.600355 Q 6.224154 3.974684 6.224154 4.661324 Q 6.224154 5.551741 6.910794 5.950435 Q 7.287338 6.167502 8.018278 6.260531 Z M 14.574582 8.205272 L 15.930142 8.205272 L 14.189178 3.376643 L 12.855767 3.376643 L 11.123662 8.205272 L 12.541242 8.205272 L 13.546837 4.643604 Z M 19.305753 5.724509 Q 19.186145 5.649200 19.064322 5.602685 Q 18.942498 5.556171 18.729862 5.516302 L 18.446346 5.463142 Q 18.047651 5.392263 17.874884 5.290375 Q 17.582508 5.117607 17.582508 4.754353 Q 17.582508 4.430967 17.761921 4.286995 Q 17.941333 4.143022 18.198269 4.143022 Q 18.605823 4.143022 18.949143 4.382238 Q 19.292463 4.621455 19.305753 5.254935 Z M 18.539374 6.313690 Q 18.889339 6.357989 19.039957 6.424438 Q 19.310183 6.539617 19.310183 6.783263 Q 19.310183 7.080069 19.104191 7.193032 Q 18.898199 7.305996 18.499505 7.305996 Q 18.052081 7.305996 17.866024 7.084499 Q 17.733126 6.920591 17.688827 6.641505 L 16.470594 6.641505 Q 16.510464 7.274986 16.824989 7.682540 Q 17.325572 8.320451 18.543804 8.320451 Q 19.336763 8.320451 19.952524 8.005925 Q 20.568285 7.691400 20.568285 6.818703 L 20.568285 4.603735 Q 20.568285 4.373378 20.577145 4.045563 Q 20.590434 3.797487 20.652454 3.708888 Q 20.714473 3.620289 20.838511 3.562700 L 20.838511 3.376643 L 19.465231 3.376643 Q 19.407642 3.522831 19.385492 3.651299 Q 19.363342 3.779767 19.350052 3.943675 Q 19.088686 3.660159 18.747581 3.460812 Q 18.340027 3.226025 17.826155 3.226025 Q 17.170524 3.226025 16.743035 3.600355 Q 16.315547 3.974684 16.315547 4.661324 Q 16.315547 5.551741 17.002187 5.950435 Q 17.378731 6.167502 18.109671 6.260531 Z M 22.672504 4.918260 Q 22.712374 4.581585 22.845272 4.439827 Q 23.080058 4.187321 23.713539 4.187321 Q 24.085654 4.187321 24.304935 4.298069 Q 24.524217 4.408818 24.524217 4.630315 Q 24.524217 4.842951 24.347020 4.953700 Q 24.169822 5.064448 23.031329 5.334674 Q 22.211791 5.538451 21.875116 5.844117 Q 21.538441 6.145352 21.538441 6.712384 Q 21.538441 7.381304 22.063388 7.861952 Q 22.588335 8.342600 23.540771 8.342600 Q 24.444478 8.342600 25.013725 7.981561 Q 25.582972 7.620521 25.667140 6.734534 L 24.404609 6.734534 Q 24.378029 6.978180 24.267281 7.119938 Q 24.059074 7.376875 23.558491 7.376875 Q 23.146507 7.376875 22.971525 7.248406 Q 22.796542 7.119938 22.796542 6.947171 Q 22.796542 6.730104 22.982600 6.632645 Q 23.168657 6.530757 24.298290 6.282680 Q 25.051379 6.105483 25.427924 5.746658 Q 25.800039 5.383404 25.800039 4.838522 Q 25.800039 4.120872 25.266231 3.666804 Q 24.732424 3.212735 23.616080 3.212735 Q 22.477587 3.212735 21.934920 3.693383 Q 21.392253 4.174031 21.392253 4.918260 Z M 29.618643 6.473168 Q 29.583203 6.743394 29.437016 6.960461 Q 29.224379 7.252836 28.776955 7.252836 Q 28.139044 7.252836 27.904258 6.619356 Q 27.780220 6.282680 27.780220 5.724509 Q 27.780220 5.192916 27.904258 4.869531 Q 28.130185 4.267060 28.754806 4.267060 Q 29.197799 4.267060 29.383856 4.506276 Q 29.569914 4.745493 29.609783 5.126467 L 30.898894 5.126467 Q 30.854595 4.550576 30.482480 4.036703 Q 29.888869 3.208305 28.723796 3.208305 Q 27.558723 3.208305 27.009411 3.899375 Q 26.460099 4.590445 26.460099 5.693499 Q 26.460099 6.938311 27.067000 7.629381 Q 27.673901 8.320451 28.741516 8.320451 Q 29.649652 8.320451 30.227759 7.912897 Q 30.805866 7.505343 30.912184 6.473168 Z M 34.402973 8.320451 Q 34.438413 8.320451 34.462777 8.318236 Q 34.487142 8.316021 34.571311 8.311591 L 34.571311 7.018050 Q 34.451703 7.031340 34.358674 7.035769 Q 34.265645 7.040199 34.208056 7.040199 Q 33.446107 7.040199 33.184741 6.544047 Q 33.038553 6.264961 33.038553 5.684639 L 33.038553 3.376643 L 31.767162 3.376643 L 31.767162 8.205272 L 32.972104 8.205272 L 32.972104 7.363585 Q 33.264480 7.846448 33.481547 8.023645 Q 33.835941 8.320451 34.402973 8.320451 Z M 36.609081 8.781164 L 35.328830 8.781164 L 35.328830 9.946237 L 36.609081 9.946237 Z M 35.328830 8.205272 L 36.609081 8.205272 L 36.609081 3.376643 L 35.328830 3.376643 Z M 41.158625 5.790958 Q 41.158625 6.349130 40.903904 6.778833 Q 40.649182 7.208537 40.077721 7.208537 Q 39.391081 7.208537 39.134144 6.557336 Q 39.001246 6.211802 39.001246 5.680209 Q 39.001246 4.838522 39.448670 4.497416 Q 39.714466 4.298069 40.077721 4.298069 Q 40.604883 4.298069 40.881754 4.705623 Q 41.158625 5.113178 41.158625 5.790958 Z M 40.440975 8.311591 Q 41.287093 8.311591 41.874059 7.686970 Q 42.461026 7.062349 42.461026 5.852977 Q 42.461026 4.577155 41.887349 3.908235 Q 41.313673 3.239315 40.409966 3.239315 Q 39.834074 3.239315 39.453100 3.527261 Q 39.244893 3.686738 39.045546 3.992404 L 39.045546 1.476200 L 37.796304 1.476200 L 37.796304 8.205272 L 39.005676 8.205272 L 39.005676 7.492053 Q 39.209453 7.806578 39.439810 7.988206 Q 39.860654 8.311591 40.440975 8.311591 Z M 42.877440 7.261696 L 42.877440 8.160973 L 43.550790 8.160973 L 43.550790 9.507673 L 44.800032 9.507673 L 44.800032 8.160973 L 45.584130 8.160973 L 45.584130 7.261696 L 44.800032 7.261696 L 44.800032 4.710053 Q 44.800032 4.413248 44.875341 4.340154 Q 44.950650 4.267060 45.336054 4.267060 Q 45.393643 4.267060 45.457877 4.269275 Q 45.522111 4.271490 45.584130 4.275920 L 45.584130 3.332343 L 44.986089 3.310194 Q 44.091242 3.279184 43.763427 3.620289 Q 43.550790 3.837356 43.550790 4.289210 L 43.550790 7.261696 Z" transform="scale(1.000000,1.000000) translate(113.000000,119.000000)" fill="#100065" opacity="0.455704"></path>
        <path d="M 47.122841 32.453568 L 50.096240 33.360708 L 51.343553 33.587492 L 52.431280 33.663086 L 53.678597 33.539195 L 54.867114 33.167522 L 55.996836 32.548064 L 57.067766 31.680821 L 57.979107 30.662388 L 58.630063 29.589363 L 59.020634 28.461742 L 59.150824 27.279519 L 58.882042 25.062070 L 61.334677 25.818020 L 63.451332 26.070002 L 64.506514 25.993357 L 65.421004 25.763425 L 66.194802 25.380203 L 66.827908 24.843691 L 67.320323 24.153889 L 67.672047 23.310796 L 67.883082 22.314411 L 67.953426 21.164735 L 67.756041 19.497444 L 67.163884 17.922554 L 66.176952 16.440057 L 64.795241 15.049950 L 63.165748 13.874026 L 61.435469 13.034083 L 59.604397 12.530120 L 57.672524 12.362132 L 55.908646 12.496523 L 53.439212 12.899696 L 51.601830 10.316861 L 49.718258 8.078408 L 47.788492 6.184336 L 45.812531 4.634643 L 43.790373 3.429329 L 41.722017 2.568392 L 39.607459 2.051831 L 37.446698 1.879644 L 35.263889 2.021383 L 33.183978 2.446601 L 31.206964 3.155299 L 29.332845 4.147479 L 27.561620 5.423140 L 25.893286 6.982285 L 24.327843 8.824914 L 22.865288 10.951028 L 20.505043 9.980891 L 18.396789 9.287938 L 16.540520 8.872168 L 14.936227 8.733579 L 12.032117 8.918365 L 9.434598 9.472725 L 7.143659 10.396662 L 5.159291 11.690178 L 3.557095 13.290271 L 2.927662 14.181659 L 2.412673 15.133941 L 1.726022 17.221197 L 1.497140 19.552044 L 1.667227 21.534314 L 2.177490 23.382185 L 3.027932 25.095665 L 4.218555 26.674760 L 5.640160 27.997675 L 7.183552 28.942610 L 8.848736 29.509569 L 10.635719 29.698555 L 12.634782 29.530568 L 15.137813 29.026601 L 14.835433 31.395241 L 14.734641 33.259913 L 14.806560 34.699370 L 15.022319 36.094726 L 15.381917 37.445983 L 15.885356 38.753141 L 16.532636 40.016203 L 17.323758 41.235168 L 18.258722 42.410038 L 19.337528 43.540815 L 20.510827 44.580249 L 21.729269 45.481090 L 22.992855 46.243339 L 24.301588 46.866995 L 25.655468 47.352061 L 27.054497 47.698535 L 28.498675 47.906419 L 29.988005 47.975714 L 31.612250 47.896970 L 33.192394 47.660738 L 34.728438 47.267016 L 36.220383 46.715806 L 37.668231 46.007105 L 39.071984 45.140913 L 40.431641 44.117231 L 41.747206 42.936056 L 43.662279 40.920193 L 44.838196 39.173112 L 45.812529 36.686885 L 47.122841 32.453568 Z" transform="scale(1.000000,1.000000) translate(207.000000,47.000000)" fill="#0b2365" opacity="0.343112"></path>
        <path d="M 1.596120 1.316000 L 1.596120 7.845725 L 2.947250 7.845725 L 2.947250 5.356102 L 5.498893 5.356102 L 5.498893 7.845725 L 6.854453 7.845725 L 6.854453 1.316000 L 5.498893 1.316000 L 5.498893 4.230898 L 2.947250 4.230898 L 2.947250 1.316000 Z M 12.901315 7.845725 L 12.901315 6.689512 L 10.947713 6.689512 L 10.947713 1.316000 L 9.574433 1.316000 L 9.574433 6.689512 L 7.611972 6.689512 L 7.611972 7.845725 Z M 18.026750 7.845725 L 19.989212 7.845725 L 19.989212 1.316000 L 18.717820 1.316000 L 18.717820 5.732646 Q 18.717820 5.923133 18.722250 6.266453 Q 18.726680 6.609773 18.726680 6.795831 L 17.490728 1.316000 L 16.166177 1.316000 L 14.939085 6.795831 Q 14.939085 6.609773 14.943515 6.266453 Q 14.947945 5.923133 14.947945 5.732646 L 14.947945 1.316000 L 13.676554 1.316000 L 13.676554 7.845725 L 15.661165 7.845725 L 16.848387 2.711430 Z M 21.256173 7.845725 L 22.620593 7.845725 L 22.620593 2.489933 L 25.854446 2.489933 L 25.854446 1.316000 L 21.256173 1.316000 Z" transform="scale(1.000000,1.000000) translate(228.000000,64.000000)" fill="#100065" opacity="0.455704"></path>
        <path d="M 46.872838 32.453568 L 49.846238 33.360708 L 51.093551 33.587492 L 52.181278 33.663086 L 53.428595 33.539195 L 54.617112 33.167522 L 55.746833 32.548064 L 56.817763 31.680821 L 57.729105 30.662388 L 58.380060 29.589363 L 58.770632 28.461742 L 58.900822 27.279519 L 58.632040 25.062070 L 61.084675 25.818020 L 63.201329 26.070002 L 64.256512 25.993357 L 65.171002 25.763425 L 65.944799 25.380203 L 66.577905 24.843691 L 67.070320 24.153889 L 67.422045 23.310796 L 67.633079 22.314411 L 67.703424 21.164735 L 67.506039 19.497444 L 66.913882 17.922554 L 65.926950 16.440057 L 64.545238 15.049950 L 62.915745 13.874026 L 61.185466 13.034083 L 59.354394 12.530120 L 57.422522 12.362132 L 55.658644 12.496523 L 53.189209 12.899696 L 51.351828 10.316861 L 49.468255 8.078408 L 47.538490 6.184336 L 45.562529 4.634643 L 43.540371 3.429329 L 41.472014 2.568392 L 39.357456 2.051831 L 37.196696 1.879644 L 35.013886 2.021383 L 32.933975 2.446601 L 30.956961 3.155299 L 29.082842 4.147479 L 27.311617 5.423140 L 25.643284 6.982285 L 24.077841 8.824914 L 22.615286 10.951028 L 20.255040 9.980891 L 18.146787 9.287938 L 16.290517 8.872168 L 14.686225 8.733579 L 11.782115 8.918365 L 9.184595 9.472725 L 6.893656 10.396662 L 4.909289 11.690178 L 3.307092 13.290271 L 2.677660 14.181659 L 2.162670 15.133941 L 1.476020 17.221197 L 1.247137 19.552044 L 1.417224 21.534314 L 1.927488 23.382185 L 2.777929 25.095665 L 3.968552 26.674760 L 5.390158 27.997675 L 6.933550 28.942610 L 8.598734 29.509569 L 10.385717 29.698555 L 12.384779 29.530568 L 14.887811 29.026601 L 14.585431 31.395241 L 14.484638 33.259913 L 14.556558 34.699370 L 14.772316 36.094726 L 15.131915 37.445983 L 15.635354 38.753141 L 16.282634 40.016203 L 17.073755 41.235168 L 18.008719 42.410038 L 19.087526 43.540815 L 20.260824 44.580249 L 21.479266 45.481090 L 22.742853 46.243339 L 24.051586 46.866995 L 25.405466 47.352061 L 26.804495 47.698535 L 28.248673 47.906419 L 29.738002 47.975714 L 31.362248 47.896970 L 32.942392 47.660738 L 34.478436 47.267016 L 35.970381 46.715806 L 37.418229 46.007105 L 38.821981 45.140913 L 40.181639 44.117231 L 41.497204 42.936056 L 43.412277 40.920193 L 44.588194 39.173112 L 45.562526 36.686885 L 46.872838 32.453568 Z" transform="scale(1.000000,1.000000) translate(418.000000,47.000000)" fill="#0b2365" opacity="0.343112"></path>
        <path d="M 3.412798 3.772400 L 5.069594 3.772400 L 4.254486 6.341762 Z M 3.496967 7.834650 L 5.038584 7.834650 L 7.351011 1.304926 L 5.871412 1.304926 L 5.450568 2.647196 L 3.045113 2.647196 L 2.593260 1.304926 L 1.166821 1.304926 Z M 9.069826 7.834650 L 9.933663 4.095785 L 10.119720 3.054750 L 10.310207 4.073635 L 11.045577 7.834650 L 12.485306 7.834650 L 13.260544 4.095785 L 13.459892 3.054750 L 13.659239 4.055915 L 14.531936 7.834650 L 15.918506 7.834650 L 14.080083 1.304926 L 12.777682 1.304926 L 11.989153 5.123530 L 11.758796 6.386062 L 11.528440 5.123530 L 10.739911 1.304926 L 9.472950 1.304926 L 7.621237 7.834650 Z M 17.730349 3.320546 Q 17.792368 2.873123 17.973996 2.651626 Q 18.306241 2.248502 19.112489 2.248502 Q 19.595352 2.248502 19.896588 2.354820 Q 20.468049 2.558597 20.468049 3.112339 Q 20.468049 3.435725 20.184534 3.612922 Q 19.901018 3.785689 19.294117 3.918587 L 18.603047 4.073635 Q 17.584161 4.303992 17.194327 4.574218 Q 16.534267 5.026071 16.534267 5.987367 Q 16.534267 6.864495 17.172177 7.444816 Q 17.810088 8.025138 19.046040 8.025138 Q 20.078215 8.025138 20.806940 7.478041 Q 21.535664 6.930944 21.571103 5.889909 L 20.259843 5.889909 Q 20.224403 6.479090 19.745970 6.727167 Q 19.427015 6.891074 18.953012 6.891074 Q 18.425849 6.891074 18.111324 6.678437 Q 17.796798 6.465800 17.796798 6.084826 Q 17.796798 5.734861 18.106894 5.562094 Q 18.306241 5.446915 18.957441 5.291867 L 20.082645 5.021641 Q 20.822444 4.844444 21.198989 4.547638 Q 21.783740 4.086925 21.783740 3.214228 Q 21.783740 2.319381 21.099315 1.727984 Q 20.414890 1.136588 19.165648 1.136588 Q 17.889827 1.136588 17.158888 1.719125 Q 16.427948 2.301661 16.427948 3.320546 Z" transform="scale(1.000000,1.000000) translate(441.000000,64.000000)" fill="#100065" opacity="0.455704"></path>
        <path d="M 47.247837 32.569638 L 50.221237 33.476779 L 51.468550 33.703562 L 52.556277 33.779156 L 53.803594 33.655265 L 54.992111 33.283592 L 56.121832 32.664134 L 57.192762 31.796891 L 58.104104 30.778458 L 58.755059 29.705433 L 59.145630 28.577812 L 59.275820 27.395589 L 59.007039 25.178140 L 61.459673 25.934090 L 63.576328 26.186072 L 64.631511 26.109428 L 65.546000 25.879495 L 66.319798 25.496273 L 66.952904 24.959761 L 67.445319 24.269959 L 67.797044 23.426866 L 68.008078 22.430481 L 68.078422 21.280805 L 67.881038 19.613514 L 67.288881 18.038624 L 66.301948 16.556128 L 64.920237 15.166020 L 63.290744 13.990096 L 61.560465 13.150153 L 59.729393 12.646190 L 57.797521 12.478202 L 56.033642 12.612593 L 53.564208 13.015766 L 51.726827 10.432931 L 49.843254 8.194478 L 47.913488 6.300406 L 45.937528 4.750713 L 43.915370 3.545399 L 41.847013 2.684462 L 39.732455 2.167901 L 37.571694 1.995714 L 35.388885 2.137453 L 33.308974 2.562671 L 31.331960 3.271370 L 29.457841 4.263549 L 27.686616 5.539210 L 26.018283 7.098355 L 24.452839 8.940984 L 22.990285 11.067098 L 20.630039 10.096961 L 18.521785 9.404008 L 16.665516 8.988238 L 15.061223 8.849649 L 12.157114 9.034435 L 9.559594 9.588795 L 7.268655 10.512732 L 5.284287 11.806248 L 3.682091 13.406341 L 3.052658 14.297729 L 2.537669 15.250012 L 1.851019 17.337267 L 1.622136 19.668114 L 1.792223 21.650384 L 2.302486 23.498255 L 3.152928 25.211735 L 4.343551 26.790831 L 5.765157 28.113745 L 7.308548 29.058681 L 8.973733 29.625640 L 10.760715 29.814625 L 12.759778 29.646638 L 15.262810 29.142671 L 14.960430 31.511311 L 14.859637 33.375983 L 14.931556 34.815440 L 15.147315 36.210796 L 15.506914 37.562053 L 16.010353 38.869211 L 16.657633 40.132273 L 17.448754 41.351238 L 18.383718 42.526108 L 19.462524 43.656885 L 20.635823 44.696319 L 21.854265 45.597160 L 23.117852 46.359409 L 24.426585 46.983065 L 25.780465 47.468131 L 27.179493 47.814605 L 28.623672 48.022490 L 30.113001 48.091784 L 31.737246 48.013040 L 33.317390 47.776808 L 34.853434 47.383087 L 36.345380 46.831876 L 37.793228 46.123175 L 39.196980 45.256983 L 40.556638 44.233301 L 41.872202 43.052126 L 43.787276 41.036263 L 44.963192 39.289182 L 45.937525 36.802955 L 47.247837 32.569638 Z" transform="scale(1.000000,1.000000) translate(523.000000,93.000000)" fill="#0b2365" opacity="0.343112"></path>
        <path d="M 5.446814 8.026029 L 7.409276 8.026029 L 7.409276 1.496305 L 6.137884 1.496305 L 6.137884 5.912950 Q 6.137884 6.103437 6.142314 6.446757 Q 6.146744 6.790077 6.146744 6.976135 L 4.910792 1.496305 L 3.586241 1.496305 L 2.359149 6.976135 Q 2.359149 6.790077 2.363579 6.446757 Q 2.368009 6.103437 2.368009 5.912950 L 2.368009 1.496305 L 1.096618 1.496305 L 1.096618 8.026029 L 3.081229 8.026029 L 4.268451 2.891734 Z M 9.872320 6.900826 L 8.592068 6.900826 L 8.592068 8.065899 L 9.872320 8.065899 Z M 8.592068 6.324934 L 9.872320 6.324934 L 9.872320 1.496305 L 8.592068 1.496305 Z M 13.978870 4.592829 Q 13.943430 4.863056 13.797243 5.080122 Q 13.584606 5.372498 13.137182 5.372498 Q 12.499272 5.372498 12.264485 4.739017 Q 12.140447 4.402342 12.140447 3.844170 Q 12.140447 3.312578 12.264485 2.989193 Q 12.490412 2.386722 13.115033 2.386722 Q 13.558026 2.386722 13.744083 2.625938 Q 13.930141 2.865155 13.970010 3.246129 L 15.259121 3.246129 Q 15.214822 2.670237 14.842707 2.156365 Q 14.249096 1.327967 13.084023 1.327967 Q 11.918950 1.327967 11.369638 2.019037 Q 10.820326 2.710107 10.820326 3.813161 Q 10.820326 5.057973 11.427227 5.749043 Q 12.034128 6.440113 13.101743 6.440113 Q 14.009880 6.440113 14.587986 6.032558 Q 15.166093 5.625004 15.272411 4.592829 Z M 18.763200 6.440113 Q 18.798640 6.440113 18.823004 6.437898 Q 18.847369 6.435683 18.931538 6.431253 L 18.931538 5.137712 Q 18.811930 5.151001 18.718901 5.155431 Q 18.625872 5.159861 18.568283 5.159861 Q 17.806334 5.159861 17.544968 4.663708 Q 17.398780 4.384622 17.398780 3.804301 L 17.398780 1.496305 L 16.127389 1.496305 L 16.127389 6.324934 L 17.332331 6.324934 L 17.332331 5.483246 Q 17.624707 5.966109 17.841774 6.143307 Q 18.196169 6.440113 18.763200 6.440113 Z M 21.837575 2.386722 Q 22.391317 2.386722 22.688123 2.780986 Q 22.984929 3.175250 22.984929 3.901760 Q 22.984929 4.628269 22.688123 5.020318 Q 22.391317 5.412368 21.837575 5.412368 Q 21.283834 5.412368 20.984813 5.020318 Q 20.685792 4.628269 20.685792 3.901760 Q 20.685792 3.175250 20.984813 2.780986 Q 21.283834 2.386722 21.837575 2.386722 Z M 24.309479 3.901760 Q 24.309479 2.838575 23.698148 2.083271 Q 23.086817 1.327967 21.842005 1.327967 Q 20.597194 1.327967 19.985862 2.083271 Q 19.374531 2.838575 19.374531 3.901760 Q 19.374531 4.947224 19.985862 5.713603 Q 20.597194 6.479982 21.842005 6.479982 Q 23.086817 6.479982 23.698148 5.713603 Q 24.309479 4.947224 24.309479 3.901760 Z M 26.196632 3.037922 Q 26.236501 2.701247 26.369399 2.559489 Q 26.604186 2.306983 27.237667 2.306983 Q 27.609781 2.306983 27.829063 2.417731 Q 28.048345 2.528480 28.048345 2.749976 Q 28.048345 2.962613 27.871148 3.073362 Q 27.693950 3.184110 26.555457 3.454336 Q 25.735919 3.658113 25.399244 3.963779 Q 25.062569 4.265014 25.062569 4.832046 Q 25.062569 5.500966 25.587516 5.981614 Q 26.112463 6.462262 27.064899 6.462262 Q 27.968606 6.462262 28.537853 6.101222 Q 29.107100 5.740183 29.191268 4.854196 L 27.928737 4.854196 Q 27.902157 5.097842 27.791409 5.239600 Q 27.583202 5.496536 27.082619 5.496536 Q 26.670635 5.496536 26.495653 5.368068 Q 26.320670 5.239600 26.320670 5.066833 Q 26.320670 4.849766 26.506727 4.752307 Q 26.692785 4.650419 27.822418 4.402342 Q 28.575507 4.225145 28.952052 3.866320 Q 29.324166 3.503065 29.324166 2.958183 Q 29.324166 2.240534 28.790359 1.786465 Q 28.256552 1.332397 27.140208 1.332397 Q 26.001715 1.332397 25.459048 1.813045 Q 24.916381 2.293693 24.916381 3.037922 Z M 32.163755 5.412368 Q 31.725191 5.412368 31.483760 5.137712 Q 31.242329 4.863056 31.180309 4.393482 L 33.142771 4.393482 Q 33.111761 4.894065 32.839320 5.153216 Q 32.566879 5.412368 32.163755 5.412368 Z M 32.163755 6.453402 Q 32.766226 6.453402 33.249089 6.227476 Q 33.731952 6.001549 34.046478 5.514256 Q 34.329994 5.084552 34.414162 4.517521 Q 34.462892 4.185275 34.454032 3.560654 L 31.149300 3.560654 Q 31.175879 2.834145 31.605583 2.541769 Q 31.866949 2.360142 32.234634 2.360142 Q 32.624468 2.360142 32.868115 2.581639 Q 33.001013 2.701247 33.102901 2.913884 L 34.392013 2.913884 Q 34.343283 2.484180 33.944589 2.041187 Q 33.324398 1.336827 32.208054 1.336827 Q 31.286628 1.336827 30.582268 1.930438 Q 29.877908 2.524050 29.877908 3.861890 Q 29.877908 5.115562 30.513604 5.784482 Q 31.149300 6.453402 32.163755 6.453402 Z M 37.927101 6.440113 Q 37.962541 6.440113 37.986905 6.437898 Q 38.011270 6.435683 38.095439 6.431253 L 38.095439 5.137712 Q 37.975830 5.151001 37.882802 5.155431 Q 37.789773 5.159861 37.732184 5.159861 Q 36.970235 5.159861 36.708869 4.663708 Q 36.562681 4.384622 36.562681 3.804301 L 36.562681 1.496305 L 35.291290 1.496305 L 35.291290 6.324934 L 36.496232 6.324934 L 36.496232 5.483246 Q 36.788608 5.966109 37.005675 6.143307 Q 37.360069 6.440113 37.927101 6.440113 Z M 41.812155 6.324934 L 43.167715 6.324934 L 41.426750 1.496305 L 40.093340 1.496305 L 38.361235 6.324934 L 39.778814 6.324934 L 40.784410 2.763266 Z M 45.178906 6.900826 L 43.898654 6.900826 L 43.898654 8.065899 L 45.178906 8.065899 Z M 43.898654 6.324934 L 45.178906 6.324934 L 45.178906 1.496305 L 43.898654 1.496305 Z M 49.285456 4.592829 Q 49.250016 4.863056 49.103828 5.080122 Q 48.891191 5.372498 48.443768 5.372498 Q 47.805857 5.372498 47.571071 4.739017 Q 47.447032 4.402342 47.447032 3.844170 Q 47.447032 3.312578 47.571071 2.989193 Q 47.796997 2.386722 48.421618 2.386722 Q 48.864612 2.386722 49.050669 2.625938 Q 49.236726 2.865155 49.276596 3.246129 L 50.565707 3.246129 Q 50.521408 2.670237 50.149293 2.156365 Q 49.555682 1.327967 48.390609 1.327967 Q 47.225536 1.327967 46.676224 2.019037 Q 46.126912 2.710107 46.126912 3.813161 Q 46.126912 5.057973 46.733813 5.749043 Q 47.340714 6.440113 48.408328 6.440113 Q 49.316465 6.440113 49.894572 6.032558 Q 50.472678 5.625004 50.578997 4.592829 Z M 53.352136 5.412368 Q 52.913573 5.412368 52.672141 5.137712 Q 52.430710 4.863056 52.368691 4.393482 L 54.331152 4.393482 Q 54.300143 4.894065 54.027702 5.153216 Q 53.755261 5.412368 53.352136 5.412368 Z M 53.352136 6.453402 Q 53.954608 6.453402 54.437471 6.227476 Q 54.920334 6.001549 55.234859 5.514256 Q 55.518375 5.084552 55.602544 4.517521 Q 55.651273 4.185275 55.642413 3.560654 L 52.337681 3.560654 Q 52.364261 2.834145 52.793965 2.541769 Q 53.055331 2.360142 53.423015 2.360142 Q 53.812850 2.360142 54.056496 2.581639 Q 54.189394 2.701247 54.291283 2.913884 L 55.580394 2.913884 Q 55.531665 2.484180 55.132971 2.041187 Q 54.512780 1.336827 53.396436 1.336827 Q 52.475009 1.336827 51.770650 1.930438 Q 51.066290 2.524050 51.066290 3.861890 Q 51.066290 5.115562 51.701986 5.784482 Q 52.337681 6.453402 53.352136 6.453402 Z M 57.476406 3.037922 Q 57.516276 2.701247 57.649174 2.559489 Q 57.883960 2.306983 58.517441 2.306983 Q 58.889556 2.306983 59.108838 2.417731 Q 59.328119 2.528480 59.328119 2.749976 Q 59.328119 2.962613 59.150922 3.073362 Q 58.973725 3.184110 57.835231 3.454336 Q 57.015693 3.658113 56.679018 3.963779 Q 56.342343 4.265014 56.342343 4.832046 Q 56.342343 5.500966 56.867290 5.981614 Q 57.392238 6.462262 58.344674 6.462262 Q 59.248381 6.462262 59.817627 6.101222 Q 60.386874 5.740183 60.471043 4.854196 L 59.208511 4.854196 Q 59.181932 5.097842 59.071183 5.239600 Q 58.862976 5.496536 58.362394 5.496536 Q 57.950410 5.496536 57.775427 5.368068 Q 57.600445 5.239600 57.600445 5.066833 Q 57.600445 4.849766 57.786502 4.752307 Q 57.972559 4.650419 59.102193 4.402342 Q 59.855282 4.225145 60.231826 3.866320 Q 60.603941 3.503065 60.603941 2.958183 Q 60.603941 2.240534 60.070134 1.786465 Q 59.536326 1.332397 58.419983 1.332397 Q 57.281489 1.332397 56.738822 1.813045 Q 56.196155 2.293693 56.196155 3.037922 Z" transform="scale(1.000000,1.000000) translate(527.000000,110.000000)" fill="#100065" opacity="0.455704"></path>
    </g>
</svg>