<?xml version="1.0" encoding="UTF-8" standalone="yes"?>
<!DOCTYPE svg PUBLIC "-//W3C//DTD SVG 1.1//EN" "http://www.w3.org/Graphics/SVG/1.1/DTD/svg11.dtd">

<svg width="768" height="500" viewBox="0 0 768 500" xmlns="http://www.w3.org/2000/svg" xmlns:xlink="http://www.w3.org/1999/xlink" version="1.1" baseProfile="full">
    <defs>
        <radialGradient id="8739019211411328" cx="312" cy="256" r="365" fx="181" fy="394" gradientUnits="userSpaceOnUse">
            <stop offset="0%" style="stop-color:#fffcda;stop-opacity:1.000000"></stop>
            <stop offset="100%" style="stop-color:#fcb7a0;stop-opacity:1.000000"></stop>
        </radialGradient>
    </defs>
    <g transform="scale(1,-1) translate(0,-500)">
        <path d="M 1.000000 1.000000 L 769.000000 1.000000 L 769.000000 501.000000 L 1.000000 501.000000 Z" transform="scale(1.000000,1.000000) translate(-1.000000,-1.000000)" fill="url(#8739019211411328)" opacity="1.000000"></path>
        <path d="M 84.701121 57.647493 L 90.150988 59.310167 L 92.437155 59.725832 L 94.430822 59.864386 L 96.716997 59.637310 L 98.895398 58.956080 L 100.966035 57.820692 L 102.928915 56.231144 L 104.599289 54.364486 L 105.792408 52.397767 L 106.508277 50.330979 L 106.746898 48.164115 L 106.254255 44.099810 L 110.749626 45.485370 L 114.629187 45.947221 L 116.563204 45.806742 L 118.239348 45.385305 L 119.657622 44.682907 L 120.818025 43.699549 L 121.720560 42.435229 L 122.365226 40.889946 L 122.752026 39.063699 L 122.880958 36.956486 L 122.519177 33.900553 L 121.433828 31.013978 L 119.624905 28.296750 L 117.092403 25.748858 L 114.105748 23.593538 L 110.934364 22.054029 L 107.578240 21.130328 L 104.037361 20.822428 L 100.804395 21.068748 L 96.278233 21.807714 L 92.910545 17.073703 L 89.458193 12.970902 L 85.921176 9.499307 L 82.299489 6.658916 L 78.593129 4.449728 L 74.802091 2.871739 L 70.926373 1.924947 L 66.965971 1.609351 L 62.965157 1.869141 L 59.152942 2.648512 L 55.529325 3.947466 L 52.094301 5.766005 L 48.847869 8.104132 L 45.790024 10.961847 L 42.920764 14.339153 L 40.240085 18.236052 L 35.914052 16.457913 L 32.049889 15.187819 L 28.647581 14.425765 L 25.707115 14.171747 L 20.384248 14.510437 L 15.623322 15.526509 L 11.424319 17.219969 L 7.787224 19.590820 L 4.850600 22.523589 L 3.696930 24.157390 L 2.753019 25.902804 L 1.494475 29.728479 L 1.074962 34.000628 L 1.386710 37.633879 L 2.321959 41.020794 L 3.880711 44.161386 L 6.062973 47.055668 L 8.668597 49.480404 L 11.497439 51.212351 L 14.549512 52.251515 L 17.824826 52.597902 L 21.488856 52.290002 L 26.076597 51.366294 L 25.522373 55.707713 L 25.337633 59.125422 L 25.469452 61.763765 L 25.864911 64.321276 L 26.524009 66.797959 L 27.446749 69.193815 L 28.633132 71.508847 L 30.083158 73.743056 L 31.796829 75.896445 L 33.774145 77.969017 L 35.924653 79.874168 L 38.157904 81.525296 L 40.473899 82.922401 L 42.872642 84.065485 L 45.354134 84.954548 L 47.918377 85.589592 L 50.565374 85.970618 L 53.295126 86.097626 L 56.272164 85.953299 L 59.168368 85.520314 L 61.983743 84.798673 L 64.718291 83.788373 L 67.372014 82.489414 L 69.944915 80.901794 L 72.436996 79.025513 L 74.848260 76.860570 L 78.358348 73.165746 L 80.513655 69.963568 L 82.299484 65.406628 L 84.701121 57.647493 Z" transform="scale(1.000000,1.000000) translate(321.000000,362.000000)" fill="#0b2365" opacity="0.343112"></path>
        <path d="M 3.329811 11.779362 L 3.329811 3.969930 L 4.865898 3.969930 Q 6.045007 3.969930 6.510160 5.715282 Q 6.764371 6.673195 6.764371 7.996415 Q 6.764371 9.822945 6.383054 10.801154 Q 6.001737 11.779362 4.865898 11.779362 Z M 5.147153 13.857548 Q 5.888153 13.841312 6.380349 13.597774 Q 7.218707 13.183761 7.737947 12.079725 Q 8.154421 11.186754 8.305866 10.147662 Q 8.457312 9.108569 8.457312 8.166891 Q 8.457312 5.780225 7.819078 4.124171 Q 6.953678 1.891745 5.147153 1.891745 L 1.712594 1.891745 L 1.712594 13.857548 Z M 12.232623 3.523445 Q 12.908717 3.523445 13.271104 4.245939 Q 13.633490 4.968434 13.633490 6.299771 Q 13.633490 7.631109 13.271104 8.349544 Q 12.908717 9.067979 12.232623 9.067979 Q 11.556528 9.067979 11.191437 8.349544 Q 10.826346 7.631109 10.826346 6.299771 Q 10.826346 4.968434 11.191437 4.245939 Q 11.556528 3.523445 12.232623 3.523445 Z M 15.250708 6.299771 Q 15.250708 4.351472 14.504300 2.967368 Q 13.757892 1.583264 12.238031 1.583264 Q 10.718171 1.583264 9.971763 2.967368 Q 9.225355 4.351472 9.225355 6.299771 Q 9.225355 8.215599 9.971763 9.619997 Q 10.718171 11.024396 12.238031 11.024396 Q 13.757892 11.024396 14.504300 9.619997 Q 15.250708 8.215599 15.250708 6.299771 Z M 19.875194 7.566166 Q 19.831924 8.061358 19.653435 8.459136 Q 19.393815 8.994918 18.847530 8.994918 Q 18.068670 8.994918 17.782006 7.834057 Q 17.630561 7.217095 17.630561 6.194238 Q 17.630561 5.220089 17.782006 4.627481 Q 18.057852 3.523445 18.820487 3.523445 Q 19.361362 3.523445 19.588530 3.961813 Q 19.815698 4.400180 19.864376 5.098320 L 21.438324 5.098320 Q 21.384237 4.042992 20.929901 3.101314 Q 20.205128 1.583264 18.782625 1.583264 Q 17.360123 1.583264 16.689437 2.849659 Q 16.018751 4.116053 16.018751 6.137413 Q 16.018751 8.418546 16.759751 9.684941 Q 17.500750 10.951335 18.804260 10.951335 Q 19.913055 10.951335 20.618898 10.204487 Q 21.324740 9.457639 21.454551 7.566166 Z M 22.498440 13.816958 L 24.012892 13.816958 L 24.012892 7.371336 L 25.933000 10.699680 L 27.842291 10.699680 L 25.781555 7.314510 L 27.923422 1.891745 L 26.062810 1.891745 L 24.651125 5.674692 L 24.012892 4.676189 L 24.012892 1.891745 L 22.498440 1.891745 Z M 31.001004 9.067979 Q 30.465537 9.067979 30.170760 8.564669 Q 29.875983 8.061358 29.800260 7.200859 L 32.196339 7.200859 Q 32.158477 8.118184 31.825839 8.593081 Q 31.493200 9.067979 31.001004 9.067979 Z M 31.001004 10.975689 Q 31.736594 10.975689 32.326149 10.561675 Q 32.915703 10.147662 33.299725 9.254691 Q 33.645885 8.467254 33.748651 7.428161 Q 33.808148 6.819318 33.797330 5.674692 L 29.762399 5.674692 Q 29.794851 4.343354 30.319500 3.807572 Q 30.638617 3.474738 31.087544 3.474738 Q 31.563514 3.474738 31.860996 3.880633 Q 32.023258 4.099817 32.147660 4.489477 L 33.721608 4.489477 Q 33.662111 3.702039 33.175323 2.890248 Q 32.418098 1.599500 31.055091 1.599500 Q 29.930070 1.599500 29.070078 2.687300 Q 28.210086 3.775101 28.210086 6.226710 Q 28.210086 8.524079 28.986242 9.749884 Q 29.762399 10.975689 31.001004 10.975689 Z M 38.037794 10.951335 Q 38.081064 10.951335 38.110812 10.947276 Q 38.140561 10.943217 38.243327 10.935099 L 38.243327 8.564669 Q 38.097291 8.589022 37.983707 8.597140 Q 37.870123 8.605258 37.799809 8.605258 Q 36.869503 8.605258 36.550387 7.696052 Q 36.371898 7.184624 36.371898 6.121177 L 36.371898 1.891745 L 34.819585 1.891745 L 34.819585 10.740269 L 36.290766 10.740269 L 36.290766 9.197866 Q 36.647744 10.082718 36.912773 10.407435 Q 37.345474 10.951335 38.037794 10.951335 Z" transform="scale(1.000000,1.000000) translate(363.000000,392.000000)" fill="#100065" opacity="0.455704"></path>
        <path d="M 85.384695 57.998797 L 90.834561 59.661471 L 93.120728 60.077136 L 95.114395 60.215691 L 97.400570 59.988614 L 99.578972 59.307384 L 101.649608 58.171997 L 103.612488 56.582448 L 105.282863 54.715790 L 106.475982 52.749071 L 107.191850 50.682283 L 107.430472 48.515419 L 106.937829 44.451114 L 111.433199 45.836675 L 115.312761 46.298526 L 117.246777 46.158047 L 118.922921 45.736609 L 120.341195 45.034211 L 121.501599 44.050853 L 122.404133 42.786533 L 123.048800 41.241250 L 123.435599 39.415003 L 123.564532 37.307791 L 123.202750 34.251858 L 122.117401 31.365282 L 120.308479 28.648054 L 117.775976 26.100162 L 114.789321 23.944842 L 111.617938 22.405334 L 108.261813 21.481632 L 104.720935 21.173732 L 101.487968 21.420052 L 96.961807 22.159018 L 93.594118 17.425008 L 90.141767 13.322206 L 86.604749 9.850611 L 82.983062 7.010221 L 79.276702 4.801032 L 75.485664 3.223043 L 71.609947 2.276252 L 67.649545 1.960655 L 63.648730 2.220445 L 59.836515 2.999816 L 56.212898 4.298770 L 52.777874 6.117309 L 49.531442 8.455436 L 46.473597 11.313151 L 43.604337 14.690457 L 40.923659 18.587356 L 36.597626 16.809217 L 32.733462 15.539123 L 29.331155 14.777069 L 26.390688 14.523052 L 21.067821 14.861741 L 16.306895 15.877813 L 12.107893 17.571273 L 8.470797 19.942125 L 5.534173 22.874893 L 4.380503 24.508694 L 3.436592 26.254108 L 2.178049 30.079784 L 1.758535 34.351933 L 2.070284 37.985183 L 3.005532 41.372098 L 4.564284 44.512690 L 6.746546 47.406972 L 9.352170 49.831708 L 12.181013 51.563655 L 15.233085 52.602819 L 18.508399 52.949206 L 22.172429 52.641307 L 26.760171 51.717599 L 26.205946 56.059017 L 26.021206 59.476726 L 26.153025 62.115069 L 26.548484 64.672580 L 27.207583 67.149263 L 28.130323 69.545119 L 29.316705 71.860151 L 30.766731 74.094360 L 32.480402 76.247750 L 34.457718 78.320321 L 36.608227 80.225472 L 38.841477 81.876600 L 41.157473 83.273705 L 43.556215 84.416789 L 46.037707 85.305853 L 48.601950 85.940897 L 51.248947 86.321922 L 53.978700 86.448931 L 56.955737 86.304603 L 59.851942 85.871619 L 62.667317 85.149977 L 65.401864 84.139677 L 68.055587 82.840718 L 70.628488 81.253099 L 73.120569 79.376818 L 75.531834 77.211874 L 79.041921 73.517051 L 81.197229 70.314872 L 82.983057 65.757932 L 85.384695 57.998797 Z" transform="scale(1.000000,1.000000) translate(63.000000,380.000000)" fill="#0b2365" opacity="0.343112"></path>
        <path d="M 1.837657 14.204793 L 3.476510 14.204793 L 3.476510 9.277220 L 6.554091 14.204793 L 8.706776 14.204793 L 5.439888 9.277220 L 8.874447 2.238990 L 6.732580 2.238990 L 4.271597 7.466926 L 3.476510 6.241121 L 3.476510 2.238990 L 1.837657 2.238990 Z M 11.221847 11.087514 L 11.221847 5.754046 Q 11.221847 4.999080 11.340840 4.617538 Q 11.551781 3.943752 12.168379 3.943752 Q 12.958058 3.943752 13.250131 4.901665 Q 13.401576 5.421212 13.401576 6.273593 L 13.401576 11.087514 L 14.964706 11.087514 L 14.964706 2.238990 L 13.466481 2.238990 L 13.466481 3.489149 Q 13.444846 3.448559 13.358306 3.245611 Q 13.271766 3.042663 13.152773 2.888423 Q 12.790386 2.401348 12.452339 2.222754 Q 12.114292 2.044160 11.659956 2.044160 Q 10.351038 2.044160 9.896702 3.456677 Q 9.642491 4.235997 9.642491 5.754046 L 9.642491 11.087514 Z M 19.637871 11.282344 Q 20.800753 11.282344 21.457917 10.024068 Q 22.115080 8.765792 22.115080 6.776903 Q 22.115080 4.714953 21.466030 3.359262 Q 20.816979 2.003571 19.654097 2.003571 Q 18.923915 2.003571 18.480397 2.441938 Q 18.215368 2.701711 17.907069 3.351144 L 17.907069 2.238990 L 16.398026 2.238990 L 16.398026 14.188557 L 17.934113 14.188557 L 17.934113 9.934771 Q 18.226185 10.551732 18.577754 10.876449 Q 18.994229 11.282344 19.637871 11.282344 Z M 19.243031 3.911280 Q 19.837994 3.911280 20.167929 4.633774 Q 20.497863 5.356268 20.497863 6.533366 Q 20.497863 7.475044 20.335600 8.092005 Q 20.027301 9.260984 19.199761 9.260984 Q 18.361404 9.260984 18.047696 8.116359 Q 17.885434 7.507515 17.885434 6.541484 Q 17.885434 5.404976 18.220777 4.658128 Q 18.556119 3.911280 19.243031 3.911280 Z M 25.544231 9.415225 Q 25.008765 9.415225 24.713987 8.911914 Q 24.419210 8.408603 24.343488 7.548105 L 26.739566 7.548105 Q 26.701705 8.465429 26.369067 8.940327 Q 26.036428 9.415225 25.544231 9.415225 Z M 25.544231 11.322934 Q 26.279822 11.322934 26.869376 10.908920 Q 27.458931 10.494907 27.842952 9.601937 Q 28.189113 8.814499 28.291879 7.775406 Q 28.351375 7.166563 28.340558 6.021937 L 24.305626 6.021937 Q 24.338079 4.690600 24.862728 4.154817 Q 25.181845 3.821983 25.630771 3.821983 Q 26.106742 3.821983 26.404223 4.227879 Q 26.566486 4.447062 26.690887 4.836722 L 28.264835 4.836722 Q 28.205339 4.049285 27.718551 3.237493 Q 26.961325 1.946745 25.598319 1.946745 Q 24.473298 1.946745 23.613306 3.034546 Q 22.753314 4.122346 22.753314 6.573955 Q 22.753314 8.871324 23.529470 10.097129 Q 24.305626 11.322934 25.544231 11.322934 Z M 32.581022 11.298580 Q 32.624292 11.298580 32.654040 11.294521 Q 32.683788 11.290462 32.786555 11.282344 L 32.786555 8.911914 Q 32.640518 8.936268 32.526934 8.944386 Q 32.413351 8.952504 32.343037 8.952504 Q 31.412731 8.952504 31.093614 8.043297 Q 30.915125 7.531869 30.915125 6.468422 L 30.915125 2.238990 L 29.362813 2.238990 L 29.362813 11.087514 L 30.833994 11.087514 L 30.833994 9.545111 Q 31.190972 10.429964 31.456001 10.754680 Q 31.888701 11.298580 32.581022 11.298580 Z M 36.956705 11.298580 Q 37.870785 11.298580 38.452226 10.580145 Q 39.033667 9.861710 39.033667 8.197538 L 39.033667 2.238990 L 37.454311 2.238990 L 37.454311 7.621166 Q 37.454311 8.319306 37.329909 8.692730 Q 37.102741 9.374635 36.464508 9.374635 Q 35.680239 9.374635 35.388166 8.376132 Q 35.236721 7.848467 35.236721 7.028558 L 35.236721 2.238990 L 33.700634 2.238990 L 33.700634 11.071279 L 35.188042 11.071279 L 35.188042 9.780531 Q 35.485524 10.462435 35.750553 10.762798 Q 36.226523 11.298580 36.956705 11.298580 Z M 42.781934 9.415225 Q 42.246468 9.415225 41.951691 8.911914 Q 41.656913 8.408603 41.581191 7.548105 L 43.977269 7.548105 Q 43.939408 8.465429 43.606770 8.940327 Q 43.274131 9.415225 42.781934 9.415225 Z M 42.781934 11.322934 Q 43.517525 11.322934 44.107080 10.908920 Q 44.696634 10.494907 45.080656 9.601937 Q 45.426816 8.814499 45.529582 7.775406 Q 45.589079 7.166563 45.578261 6.021937 L 41.543330 6.021937 Q 41.575782 4.690600 42.100431 4.154817 Q 42.419548 3.821983 42.868475 3.821983 Q 43.344445 3.821983 43.641927 4.227879 Q 43.804189 4.447062 43.928591 4.836722 L 45.502538 4.836722 Q 45.443042 4.049285 44.956254 3.237493 Q 44.199028 1.946745 42.836022 1.946745 Q 41.711001 1.946745 40.851009 3.034546 Q 39.991017 4.122346 39.991017 6.573955 Q 39.991017 8.871324 40.767173 10.097129 Q 41.543330 11.322934 42.781934 11.322934 Z M 46.010961 9.358399 L 46.010961 11.006335 L 46.833092 11.006335 L 46.833092 13.474181 L 48.358361 13.474181 L 48.358361 11.006335 L 49.315711 11.006335 L 49.315711 9.358399 L 48.358361 9.358399 L 48.358361 4.682482 Q 48.358361 4.138582 48.450310 4.004636 Q 48.542259 3.870690 49.012821 3.870690 Q 49.083134 3.870690 49.161561 3.874749 Q 49.239988 3.878808 49.315711 3.886926 L 49.315711 2.157811 L 48.585529 2.117221 Q 47.492960 2.060396 47.092712 2.685475 Q 46.833092 3.083253 46.833092 3.911280 L 46.833092 9.358399 Z M 52.631278 9.415225 Q 52.095811 9.415225 51.801034 8.911914 Q 51.506257 8.408603 51.430534 7.548105 L 53.826613 7.548105 Q 53.788752 8.465429 53.456113 8.940327 Q 53.123475 9.415225 52.631278 9.415225 Z M 52.631278 11.322934 Q 53.366869 11.322934 53.956423 10.908920 Q 54.545977 10.494907 54.929999 9.601937 Q 55.276159 8.814499 55.378926 7.775406 Q 55.438422 7.166563 55.427604 6.021937 L 51.392673 6.021937 Q 51.425125 4.690600 51.949775 4.154817 Q 52.268891 3.821983 52.717818 3.821983 Q 53.193788 3.821983 53.491270 4.227879 Q 53.653533 4.447062 53.777934 4.836722 L 55.351882 4.836722 Q 55.292386 4.049285 54.805598 3.237493 Q 54.048372 1.946745 52.685365 1.946745 Q 51.560344 1.946745 50.700352 3.034546 Q 49.840360 4.122346 49.840360 6.573955 Q 49.840360 8.871324 50.616517 10.097129 Q 51.392673 11.322934 52.631278 11.322934 Z M 57.666829 5.064024 Q 57.715508 4.447062 57.877771 4.187289 Q 58.164435 3.724568 58.937887 3.724568 Q 59.392222 3.724568 59.659955 3.927516 Q 59.927689 4.130464 59.927689 4.536359 Q 59.927689 4.926019 59.711339 5.128967 Q 59.494988 5.331915 58.104938 5.827107 Q 57.104319 6.200531 56.693253 6.760667 Q 56.282188 7.312685 56.282188 8.351778 Q 56.282188 9.577583 56.923125 10.458376 Q 57.564063 11.339170 58.726945 11.339170 Q 59.830331 11.339170 60.525356 10.677560 Q 61.220381 10.015950 61.323148 8.392368 L 59.781652 8.392368 Q 59.749200 8.838853 59.613981 9.098626 Q 59.359770 9.569465 58.748580 9.569465 Q 58.245566 9.569465 58.031920 9.334045 Q 57.818274 9.098626 57.818274 8.782027 Q 57.818274 8.384250 58.045442 8.205656 Q 58.272610 8.018944 59.651842 7.564341 Q 60.571331 7.239624 61.031075 6.582073 Q 61.485410 5.916404 61.485410 4.917901 Q 61.485410 3.602799 60.833655 2.770713 Q 60.181900 1.938627 58.818894 1.938627 Q 57.428844 1.938627 56.766271 2.819421 Q 56.103699 3.700214 56.103699 5.064024 Z" transform="scale(1.000000,1.000000) translate(94.000000,410.000000)" fill="#100065" opacity="0.455704"></path>
        <path d="M 85.042908 57.139217 L 90.492774 58.801891 L 92.778942 59.217556 L 94.772608 59.356110 L 97.058783 59.129034 L 99.237185 58.447804 L 101.307822 57.312416 L 103.270701 55.722868 L 104.941076 53.856210 L 106.134195 51.889491 L 106.850063 49.822703 L 107.088685 47.655839 L 106.596042 43.591534 L 111.091412 44.977095 L 114.970974 45.438946 L 116.904990 45.298467 L 118.581135 44.877029 L 119.999408 44.174631 L 121.159812 43.191273 L 122.062347 41.926953 L 122.707013 40.381670 L 123.093812 38.555423 L 123.222745 36.448211 L 122.860964 33.392278 L 121.775615 30.505702 L 119.966692 27.788474 L 117.434189 25.240582 L 114.447534 23.085262 L 111.276151 21.545754 L 107.920026 20.622052 L 104.379148 20.314152 L 101.146182 20.560472 L 96.620020 21.299438 L 93.252331 16.565428 L 89.799980 12.462626 L 86.262963 8.991031 L 82.641276 6.150641 L 78.934915 3.941452 L 75.143878 2.363463 L 71.268160 1.416672 L 67.307758 1.101075 L 63.306943 1.360865 L 59.494729 2.140236 L 55.871111 3.439190 L 52.436088 5.257729 L 49.189655 7.595856 L 46.131810 10.453571 L 43.262550 13.830877 L 40.581872 17.727776 L 36.255839 15.949637 L 32.391676 14.679543 L 28.989368 13.917489 L 26.048902 13.663472 L 20.726035 14.002161 L 15.965108 15.018233 L 11.766106 16.711693 L 8.129010 19.082545 L 5.192387 22.015313 L 4.038716 23.649114 L 3.094806 25.394528 L 1.836262 29.220204 L 1.416749 33.492353 L 1.728497 37.125603 L 2.663745 40.512518 L 4.222498 43.653110 L 6.404760 46.547392 L 9.010384 48.972128 L 11.839226 50.704075 L 14.891299 51.743239 L 18.166613 52.089626 L 21.830643 51.781727 L 26.418384 50.858019 L 25.864160 55.199437 L 25.679419 58.617146 L 25.811239 61.255489 L 26.206697 63.813000 L 26.865796 66.289683 L 27.788536 68.685539 L 28.974919 71.000571 L 30.424945 73.234780 L 32.138615 75.388170 L 34.115932 77.460741 L 36.266440 79.365892 L 38.499691 81.017020 L 40.815686 82.414125 L 43.214429 83.557209 L 45.695920 84.446273 L 48.260163 85.081317 L 50.907160 85.462342 L 53.636913 85.589351 L 56.613950 85.445023 L 59.510155 85.012039 L 62.325530 84.290397 L 65.060078 83.280097 L 67.713800 81.981138 L 70.286701 80.393519 L 72.778783 78.517238 L 75.190047 76.352294 L 78.700135 72.657470 L 80.855442 69.455292 L 82.641271 64.898352 L 85.042908 57.139217 Z" transform="scale(1.000000,1.000000) translate(192.000000,278.000000)" fill="#0b2365" opacity="0.343112"></path>
        <path d="M 1.697177 8.098479 Q 1.697177 11.231993 2.816789 12.928637 Q 3.790365 14.406097 5.293999 14.406097 Q 7.306056 14.406097 8.236362 12.425327 Q 8.750194 11.313173 8.788055 10.192901 L 7.122159 10.192901 Q 6.959896 11.053399 6.705684 11.491767 Q 6.251349 12.271086 5.358904 12.271086 Q 4.450233 12.271086 3.925584 11.171109 Q 3.400935 10.071132 3.400935 8.057890 Q 3.400935 6.044647 3.955332 5.042085 Q 4.509730 4.039523 5.364313 4.039523 Q 6.240531 4.039523 6.700276 4.900022 Q 6.954487 5.362743 7.122159 6.288185 L 8.771829 6.288185 Q 8.555479 4.331768 7.665738 3.105963 Q 6.775998 1.880159 5.385948 1.880159 Q 3.665964 1.880159 2.681570 3.536213 Q 1.697177 5.200385 1.697177 8.098479 Z M 11.568155 2.212993 L 9.913076 2.212993 L 9.913076 14.178796 L 11.568155 14.178796 Z M 14.759321 14.544102 L 16.041196 14.544102 L 12.941979 2.212993 L 11.670922 2.212993 Z M 15.851890 8.098479 Q 15.851890 11.231993 16.971502 12.928637 Q 17.945078 14.406097 19.448712 14.406097 Q 21.460769 14.406097 22.391075 12.425327 Q 22.904907 11.313173 22.942768 10.192901 L 21.276871 10.192901 Q 21.114609 11.053399 20.860397 11.491767 Q 20.406062 12.271086 19.513617 12.271086 Q 18.604946 12.271086 18.080297 11.171109 Q 17.555648 10.071132 17.555648 8.057890 Q 17.555648 6.044647 18.110045 5.042085 Q 18.664442 4.039523 19.519026 4.039523 Q 20.395244 4.039523 20.854988 4.900022 Q 21.109200 5.362743 21.276871 6.288185 L 22.926542 6.288185 Q 22.710191 4.331768 21.820451 3.105963 Q 20.930711 1.880159 19.540661 1.880159 Q 17.820677 1.880159 16.836283 3.536213 Q 15.851890 5.200385 15.851890 8.098479 Z M 25.814817 12.100610 L 25.814817 4.291178 L 27.350903 4.291178 Q 28.530012 4.291178 28.995165 6.036530 Q 29.249377 6.994443 29.249377 8.317663 Q 29.249377 10.144193 28.868059 11.122402 Q 28.486742 12.100610 27.350903 12.100610 Z M 27.632159 14.178796 Q 28.373158 14.162560 28.865355 13.919022 Q 29.703712 13.505009 30.222952 12.400973 Q 30.639427 11.508002 30.790872 10.468910 Q 30.942317 9.429817 30.942317 8.488139 Q 30.942317 6.101473 30.304084 4.445419 Q 29.438683 2.212993 27.632159 2.212993 L 24.197599 2.212993 L 24.197599 14.178796 Z" transform="scale(1.000000,1.000000) translate(238.000000,307.000000)" fill="#100065" opacity="0.455704"></path>
        <path d="M 85.359335 57.139217 L 90.809201 58.801891 L 93.095369 59.217556 L 95.089035 59.356110 L 97.375210 59.129034 L 99.553612 58.447804 L 101.624248 57.312416 L 103.587128 55.722868 L 105.257503 53.856210 L 106.450622 51.889491 L 107.166490 49.822703 L 107.405112 47.655839 L 106.912469 43.591534 L 111.407839 44.977095 L 115.287401 45.438946 L 117.221417 45.298467 L 118.897561 44.877029 L 120.315835 44.174631 L 121.476239 43.191273 L 122.378773 41.926953 L 123.023440 40.381670 L 123.410239 38.555423 L 123.539172 36.448211 L 123.177390 33.392278 L 122.092041 30.505702 L 120.283119 27.788474 L 117.750616 25.240582 L 114.763961 23.085262 L 111.592578 21.545754 L 108.236453 20.622052 L 104.695575 20.314152 L 101.462608 20.560472 L 96.936447 21.299438 L 93.568758 16.565428 L 90.116407 12.462626 L 86.579389 8.991031 L 82.957702 6.150641 L 79.251342 3.941452 L 75.460305 2.363463 L 71.584587 1.416672 L 67.624185 1.101075 L 63.623370 1.360865 L 59.811155 2.140236 L 56.187538 3.439190 L 52.752514 5.257729 L 49.506082 7.595856 L 46.448237 10.453571 L 43.578977 13.830877 L 40.898299 17.727776 L 36.572266 15.949637 L 32.708102 14.679543 L 29.305795 13.917489 L 26.365328 13.663472 L 21.042461 14.002161 L 16.281535 15.018233 L 12.082533 16.711693 L 8.445437 19.082545 L 5.508813 22.015313 L 4.355143 23.649114 L 3.411233 25.394528 L 2.152689 29.220204 L 1.733176 33.492353 L 2.044924 37.125603 L 2.980172 40.512518 L 4.538925 43.653110 L 6.721186 46.547392 L 9.326810 48.972128 L 12.155653 50.704075 L 15.207725 51.743239 L 18.483040 52.089626 L 22.147070 51.781727 L 26.734811 50.858019 L 26.180586 55.199437 L 25.995846 58.617146 L 26.127665 61.255489 L 26.523124 63.813000 L 27.182223 66.289683 L 28.104963 68.685539 L 29.291345 71.000571 L 30.741372 73.234780 L 32.455042 75.388170 L 34.432359 77.460741 L 36.582867 79.365892 L 38.816117 81.017020 L 41.132113 82.414125 L 43.530855 83.557209 L 46.012347 84.446273 L 48.576590 85.081317 L 51.223587 85.462342 L 53.953340 85.589351 L 56.930377 85.445023 L 59.826582 85.012039 L 62.641957 84.290397 L 65.376504 83.280097 L 68.030227 81.981138 L 70.603128 80.393519 L 73.095209 78.517238 L 75.506474 76.352294 L 79.016561 72.657470 L 81.171869 69.455292 L 82.957697 64.898352 L 85.359335 57.139217 Z" transform="scale(1.000000,1.000000) translate(449.000000,278.000000)" fill="#0b2365" opacity="0.343112"></path>
        <path d="M 3.224939 6.174534 Q 3.300662 5.354625 3.522421 4.948729 Q 3.928078 4.209999 4.912471 4.209999 Q 5.502025 4.209999 5.869821 4.404829 Q 6.567550 4.778253 6.567550 5.792992 Q 6.567550 6.385600 6.221390 6.710316 Q 5.875230 7.026915 5.134230 7.270452 L 4.290464 7.554579 Q 3.046451 7.976711 2.570480 8.471903 Q 1.764576 9.299930 1.764576 11.061517 Q 1.764576 12.668864 2.543436 13.732310 Q 3.322297 14.795757 4.831340 14.795757 Q 6.091580 14.795757 6.981320 13.793195 Q 7.871060 12.790633 7.914330 10.882923 L 6.313339 10.882923 Q 6.270069 11.962606 5.685923 12.417209 Q 5.296493 12.717571 4.717756 12.717571 Q 4.074114 12.717571 3.690092 12.327912 Q 3.306071 11.938252 3.306071 11.240111 Q 3.306071 10.598796 3.684684 10.282198 Q 3.928078 10.071132 4.723165 9.787005 L 6.096989 9.291812 Q 7.000251 8.967096 7.459995 8.423196 Q 8.173951 7.578933 8.173951 5.979704 Q 8.173951 4.339886 7.338298 3.256145 Q 6.502645 2.172403 4.977376 2.172403 Q 3.419655 2.172403 2.527210 3.239909 Q 1.634765 4.307414 1.634765 6.174534 Z M 12.917429 4.266825 Q 13.204093 4.266825 13.469122 4.372358 Q 13.615158 4.429183 13.842326 4.575305 L 13.036422 5.728049 L 13.896414 7.075622 L 14.702318 5.922879 Q 14.891625 6.507368 14.967347 6.945736 Q 15.086340 7.603287 15.086340 8.480021 Q 15.086340 10.493263 14.537351 11.593240 Q 13.988363 12.693218 12.933655 12.693218 Q 11.943853 12.693218 11.354299 11.637889 Q 10.764744 10.582560 10.764744 8.480021 Q 10.764744 6.020294 11.608510 4.956847 Q 12.154794 4.266825 12.917429 4.266825 Z M 16.752236 8.658615 Q 16.752236 7.059387 16.492616 5.979704 Q 16.281675 4.948729 15.870609 4.266825 L 16.790098 2.976077 L 15.919288 1.612267 L 14.956530 2.976077 Q 14.518421 2.578299 14.199304 2.415941 Q 13.663837 2.148050 12.917429 2.148050 Q 11.359707 2.148050 10.342861 3.544331 Q 9.109665 5.224738 9.109665 8.480021 Q 9.109665 11.759658 10.375314 13.440066 Q 11.408386 14.811993 12.944473 14.811993 Q 14.491377 14.811993 15.540675 13.358886 Q 16.752236 11.678479 16.752236 8.658615 Z M 18.023294 14.446687 L 19.689191 14.446687 L 19.689191 4.632131 L 23.637582 4.632131 L 23.637582 2.480884 L 18.023294 2.480884 Z" transform="scale(1.000000,1.000000) translate(499.000000,307.000000)" fill="#100065" opacity="0.455704"></path>
        <path d="M 85.017548 57.647493 L 90.467414 59.310167 L 92.753582 59.725832 L 94.747249 59.864386 L 97.033423 59.637310 L 99.211825 58.956080 L 101.282462 57.820692 L 103.245341 56.231144 L 104.915716 54.364486 L 106.108835 52.397767 L 106.824703 50.330979 L 107.063325 48.164115 L 106.570682 44.099810 L 111.066052 45.485370 L 114.945614 45.947221 L 116.879630 45.806742 L 118.555775 45.385305 L 119.974048 44.682907 L 121.134452 43.699549 L 122.036987 42.435229 L 122.681653 40.889946 L 123.068452 39.063699 L 123.197385 36.956486 L 122.835604 33.900553 L 121.750255 31.013978 L 119.941332 28.296750 L 117.408829 25.748858 L 114.422174 23.593538 L 111.250791 22.054029 L 107.894667 21.130328 L 104.353788 20.822428 L 101.120822 21.068748 L 96.594660 21.807714 L 93.226971 17.073703 L 89.774620 12.970902 L 86.237603 9.499307 L 82.615916 6.658916 L 78.909555 4.449728 L 75.118518 2.871739 L 71.242800 1.924947 L 67.282398 1.609351 L 63.281583 1.869141 L 59.469369 2.648512 L 55.845751 3.947466 L 52.410728 5.766005 L 49.164295 8.104132 L 46.106451 10.961847 L 43.237191 14.339153 L 40.556512 18.236052 L 36.230479 16.457913 L 32.366316 15.187819 L 28.964008 14.425765 L 26.023542 14.171747 L 20.700675 14.510437 L 15.939749 15.526509 L 11.740746 17.219969 L 8.103651 19.590820 L 5.167027 22.523589 L 4.013356 24.157390 L 3.069446 25.902804 L 1.810902 29.728479 L 1.391389 34.000628 L 1.703137 37.633879 L 2.638385 41.020794 L 4.197138 44.161386 L 6.379400 47.055668 L 8.985024 49.480404 L 11.813866 51.212351 L 14.865939 52.251515 L 18.141253 52.597902 L 21.805283 52.290002 L 26.393024 51.366294 L 25.838800 55.707713 L 25.654060 59.125422 L 25.785879 61.763765 L 26.181337 64.321276 L 26.840436 66.797959 L 27.763176 69.193815 L 28.949559 71.508847 L 30.399585 73.743056 L 32.113256 75.896445 L 34.090572 77.969017 L 36.241080 79.874168 L 38.474331 81.525296 L 40.790326 82.922401 L 43.189069 84.065485 L 45.670560 84.954548 L 48.234803 85.589592 L 50.881800 85.970618 L 53.611553 86.097626 L 56.588590 85.953299 L 59.484795 85.520314 L 62.300170 84.798673 L 65.034718 83.788373 L 67.688441 82.489414 L 70.261341 80.901794 L 72.753423 79.025513 L 75.164687 76.860570 L 78.674775 73.165746 L 80.830082 69.963568 L 82.615911 65.406628 L 85.017548 57.647493 Z" transform="scale(1.000000,1.000000) translate(578.000000,362.000000)" fill="#0b2365" opacity="0.343112"></path>
        <path d="M 3.413436 11.779362 L 3.413436 8.564669 L 5.301092 8.564669 Q 5.863602 8.564669 6.144858 8.759499 Q 6.642463 9.100451 6.642463 10.107072 Q 6.642463 11.194872 6.161084 11.568296 Q 5.890646 11.779362 5.349771 11.779362 Z M 5.695931 13.857548 Q 6.534288 13.833194 6.985919 13.549067 Q 7.437550 13.264940 7.751258 12.712922 Q 8.010878 12.258319 8.162323 11.706301 Q 8.313769 11.154283 8.313769 10.448024 Q 8.313769 9.595644 8.027105 8.771675 Q 7.740441 7.947707 7.080572 7.606755 Q 7.632265 7.273921 7.862138 6.661018 Q 8.092010 6.048116 8.092010 4.789840 L 8.092010 3.986166 Q 8.092010 3.166257 8.135280 2.874012 Q 8.200185 2.411291 8.438170 2.192108 L 8.438170 1.891745 L 6.604602 1.891745 Q 6.528879 2.289523 6.496427 2.533060 Q 6.431522 3.036371 6.426113 3.564035 L 6.415295 4.676189 Q 6.404478 5.820814 6.136745 6.202356 Q 5.869011 6.583898 5.133420 6.583898 L 3.413436 6.583898 L 3.413436 1.891745 L 1.785401 1.891745 L 1.785401 13.857548 Z M 11.948452 9.067979 Q 11.412985 9.067979 11.118208 8.564669 Q 10.823431 8.061358 10.747708 7.200859 L 13.143787 7.200859 Q 13.105926 8.118184 12.773287 8.593081 Q 12.440649 9.067979 11.948452 9.067979 Z M 11.948452 10.975689 Q 12.684043 10.975689 13.273597 10.561675 Q 13.863152 10.147662 14.247173 9.254691 Q 14.593334 8.467254 14.696100 7.428161 Q 14.755596 6.819318 14.744779 5.674692 L 10.709847 5.674692 Q 10.742300 4.343354 11.266949 3.807572 Q 11.586066 3.474738 12.034992 3.474738 Q 12.510963 3.474738 12.808444 3.880633 Q 12.970707 4.099817 13.095108 4.489477 L 14.669056 4.489477 Q 14.609560 3.702039 14.122772 2.890248 Q 13.365546 1.599500 12.002540 1.599500 Q 10.877519 1.599500 10.017527 2.687300 Q 9.157534 3.775101 9.157534 6.226710 Q 9.157534 8.524079 9.933691 9.749884 Q 10.709847 10.975689 11.948452 10.975689 Z M 19.033922 6.194238 Q 18.887885 6.056234 18.739144 5.970996 Q 18.590404 5.885758 18.330783 5.812696 L 17.984623 5.715282 Q 17.497835 5.585395 17.286894 5.398683 Q 16.929916 5.082084 16.929916 4.416416 Q 16.929916 3.823808 17.148970 3.559976 Q 17.368025 3.296144 17.681733 3.296144 Q 18.179338 3.296144 18.598517 3.734511 Q 19.017695 4.172878 19.033922 5.333740 Z M 18.098207 7.273921 Q 18.525499 7.355100 18.709396 7.476868 Q 19.039330 7.687934 19.039330 8.134419 Q 19.039330 8.678320 18.787823 8.885326 Q 18.536316 9.092333 18.049528 9.092333 Q 17.503244 9.092333 17.276076 8.686437 Q 17.113813 8.386075 17.059726 7.874646 L 15.572318 7.874646 Q 15.620997 9.035508 16.005019 9.782356 Q 16.616208 10.951335 18.103616 10.951335 Q 19.071783 10.951335 19.823600 10.374963 Q 20.575417 9.798591 20.575417 8.199363 L 20.575417 4.140407 Q 20.575417 3.718275 20.586234 3.117550 Q 20.602461 2.662947 20.678183 2.500588 Q 20.753906 2.338230 20.905351 2.232697 L 20.905351 1.891745 L 19.228637 1.891745 Q 19.158323 2.159636 19.131279 2.395055 Q 19.104235 2.630475 19.088009 2.930838 Q 18.768893 2.411291 18.352418 2.045985 Q 17.854813 1.615736 17.227397 1.615736 Q 16.426902 1.615736 15.904957 2.301699 Q 15.383012 2.987663 15.383012 4.245939 Q 15.383012 5.877640 16.221369 6.608252 Q 16.681113 7.006030 17.573558 7.176506 Z M 25.464932 7.566166 Q 25.421662 8.061358 25.243173 8.459136 Q 24.983552 8.994918 24.437268 8.994918 Q 23.658407 8.994918 23.371743 7.834057 Q 23.220298 7.217095 23.220298 6.194238 Q 23.220298 5.220089 23.371743 4.627481 Q 23.647590 3.523445 24.410224 3.523445 Q 24.951100 3.523445 25.178268 3.961813 Q 25.405435 4.400180 25.454114 5.098320 L 27.028062 5.098320 Q 26.973974 4.042992 26.519639 3.101314 Q 25.794866 1.583264 24.372363 1.583264 Q 22.949860 1.583264 22.279175 2.849659 Q 21.608489 4.116053 21.608489 6.137413 Q 21.608489 8.418546 22.349489 9.684941 Q 23.090488 10.951335 24.393998 10.951335 Q 25.502793 10.951335 26.208636 10.204487 Q 26.914478 9.457639 27.044288 7.566166 Z M 27.498624 9.011154 L 27.498624 10.659090 L 28.320754 10.659090 L 28.320754 13.126935 L 29.846023 13.126935 L 29.846023 10.659090 L 30.803373 10.659090 L 30.803373 9.011154 L 29.846023 9.011154 L 29.846023 4.335236 Q 29.846023 3.791336 29.937972 3.657391 Q 30.029921 3.523445 30.500483 3.523445 Q 30.570797 3.523445 30.649224 3.527504 Q 30.727651 3.531563 30.803373 3.539681 L 30.803373 1.810566 L 30.073191 1.769976 Q 28.980623 1.713151 28.580375 2.338230 Q 28.320754 2.736008 28.320754 3.564035 L 28.320754 9.011154 Z" transform="scale(1.000000,1.000000) translate(624.000000,392.000000)" fill="#100065" opacity="0.455704"></path>
        <path d="M 81.148903 54.493677 L 86.343838 56.078575 L 88.523064 56.474797 L 90.423472 56.606870 L 92.602705 56.390416 L 94.679207 55.741052 L 96.652984 54.658775 L 98.524045 53.143581 L 100.116284 51.364241 L 101.253592 49.489519 L 101.935973 47.519410 L 102.163433 45.453906 L 101.693834 41.579719 L 105.978922 42.900467 L 109.677008 43.340713 L 111.520556 43.206806 L 113.118294 42.805082 L 114.470224 42.135541 L 115.576347 41.198181 L 116.436664 39.993003 L 117.051174 38.520004 L 117.419880 36.779184 L 117.542782 34.770541 L 117.197923 31.857557 L 116.163344 29.106008 L 114.439038 26.515884 L 112.025000 24.087176 L 109.178053 22.032676 L 106.155020 20.565182 L 102.955886 19.684688 L 99.580641 19.391192 L 96.498905 19.625990 L 92.184466 20.330388 L 88.974309 15.817822 L 85.683451 11.906939 L 82.311886 8.597736 L 78.859613 5.890212 L 75.326627 3.784363 L 71.712925 2.280188 L 68.018503 1.377685 L 64.243359 1.076851 L 60.429692 1.324489 L 56.795804 2.067403 L 53.341690 3.305596 L 50.067349 5.039069 L 46.972776 7.267824 L 44.057970 9.991863 L 41.322927 13.211187 L 38.767644 16.925800 L 34.643972 15.230837 L 30.960564 14.020154 L 27.717408 13.293747 L 24.914490 13.051612 L 19.840613 13.374459 L 15.302391 14.343002 L 11.299808 15.957246 L 7.832846 18.217195 L 5.033591 21.012777 L 3.933886 22.570153 L 3.034129 24.233921 L 1.834457 27.880641 L 1.434568 31.952951 L 1.731733 35.416247 L 2.623233 38.644731 L 4.109071 41.638415 L 6.189252 44.397310 L 8.672991 46.708623 L 11.369507 48.359554 L 14.278812 49.350109 L 17.400915 49.680293 L 20.893550 49.386796 L 25.266689 48.506296 L 24.738389 52.644635 L 24.562291 55.902472 L 24.687944 58.417400 L 25.064904 60.855278 L 25.693172 63.216108 L 26.572748 65.499893 L 27.703635 67.706633 L 29.085832 69.836332 L 30.719342 71.888992 L 32.604164 73.864614 L 34.654077 75.680647 L 36.782862 77.254539 L 38.990521 78.586292 L 41.277056 79.675905 L 43.642469 80.523380 L 46.086763 81.128719 L 48.609940 81.491921 L 51.212002 81.612988 L 54.049781 81.475412 L 56.810509 81.062682 L 59.494187 80.374797 L 62.100819 79.411756 L 64.630408 78.173559 L 67.082955 76.660204 L 69.458463 74.871690 L 71.756934 72.808017 L 75.102829 69.286027 L 77.157316 66.233639 L 78.859608 61.889860 L 81.148903 54.493677 Z" transform="scale(1.000000,1.000000) translate(331.000000,127.000000)" fill="#0b2365" opacity="0.343112"></path>
        <path d="M 1.501464 7.398061 Q 1.501464 10.385033 2.625434 12.002330 Q 3.602799 13.410695 5.112284 13.410695 Q 7.132172 13.410695 8.066098 11.522558 Q 8.581930 10.462415 8.619939 9.394534 L 6.947559 9.394534 Q 6.784664 10.214791 6.529464 10.632657 Q 6.073360 11.375531 5.177442 11.375531 Q 4.265235 11.375531 3.738544 10.326996 Q 3.211853 9.278460 3.211853 7.359370 Q 3.211853 5.440280 3.768408 4.484604 Q 4.324963 3.528927 5.182872 3.528927 Q 6.062500 3.528927 6.524034 4.349184 Q 6.779235 4.790265 6.947559 5.672428 L 8.603649 5.672428 Q 8.386457 3.807505 7.493254 2.639027 Q 6.600051 1.470548 5.204591 1.470548 Q 3.477913 1.470548 2.489688 3.049155 Q 1.501464 4.635500 1.501464 7.398061 Z M 11.090500 5.308729 Q 11.166517 4.527164 11.389139 4.140251 Q 11.796375 3.436068 12.784599 3.436068 Q 13.376448 3.436068 13.745675 3.621787 Q 14.446119 3.977747 14.446119 4.945030 Q 14.446119 5.509924 14.098612 5.819455 Q 13.751104 6.121247 13.007221 6.353395 L 12.160171 6.624234 Q 10.911316 7.026624 10.433493 7.498659 Q 9.624452 8.287962 9.624452 9.967166 Q 9.624452 11.499343 10.406344 12.513056 Q 11.188236 13.526769 12.703152 13.526769 Q 13.968297 13.526769 14.861500 12.571093 Q 15.754703 11.615417 15.798141 9.796924 L 14.190919 9.796924 Q 14.147480 10.826114 13.561061 11.259457 Q 13.170115 11.545773 12.589126 11.545773 Q 11.942979 11.545773 11.557463 11.174336 Q 11.171947 10.802899 11.171947 10.137408 Q 11.171947 9.526085 11.552033 9.224292 Q 11.796375 9.023097 12.594556 8.752258 L 13.973726 8.280224 Q 14.880504 7.970693 15.342037 7.452229 Q 16.058772 6.647449 16.058772 5.123011 Q 16.058772 3.559881 15.219867 2.526822 Q 14.380962 1.493763 12.849757 1.493763 Q 11.285973 1.493763 10.390055 2.511345 Q 9.494137 3.528927 9.494137 5.308729 Z M 18.507614 5.308729 Q 18.583631 4.527164 18.806253 4.140251 Q 19.213488 3.436068 20.201713 3.436068 Q 20.793562 3.436068 21.162789 3.621787 Q 21.863233 3.977747 21.863233 4.945030 Q 21.863233 5.509924 21.515726 5.819455 Q 21.168218 6.121247 20.424335 6.353395 L 19.577285 6.624234 Q 18.328430 7.026624 17.850607 7.498659 Q 17.041566 8.287962 17.041566 9.967166 Q 17.041566 11.499343 17.823458 12.513056 Q 18.605350 13.526769 20.120266 13.526769 Q 21.385411 13.526769 22.278613 12.571093 Q 23.171816 11.615417 23.215255 9.796924 L 21.608033 9.796924 Q 21.564594 10.826114 20.978175 11.259457 Q 20.587229 11.545773 20.006240 11.545773 Q 19.360093 11.545773 18.974577 11.174336 Q 18.589061 10.802899 18.589061 10.137408 Q 18.589061 9.526085 18.969147 9.224292 Q 19.213488 9.023097 20.011670 8.752258 L 21.390840 8.280224 Q 22.297618 7.970693 22.759151 7.452229 Q 23.475886 6.647449 23.475886 5.123011 Q 23.475886 3.559881 22.636981 2.526822 Q 21.798076 1.493763 20.266871 1.493763 Q 18.703087 1.493763 17.807169 2.511345 Q 16.911251 3.528927 16.911251 5.308729 Z" transform="scale(1.000000,1.000000) translate(378.000000,155.000000)" fill="#100065" opacity="0.455704"></path>
        <path d="M 80.831047 54.986759 L 86.025982 56.571657 L 88.205209 56.967878 L 90.105617 57.099952 L 92.284850 56.883498 L 94.361351 56.234134 L 96.335129 55.151856 L 98.206190 53.636663 L 99.798428 51.857323 L 100.935736 49.982601 L 101.618118 48.012492 L 101.845577 45.946988 L 101.375979 42.072801 L 105.661067 43.393548 L 109.359152 43.833795 L 111.202700 43.699887 L 112.800439 43.298163 L 114.152369 42.628622 L 115.258492 41.691263 L 116.118808 40.486084 L 116.733319 39.013086 L 117.102025 37.272265 L 117.224926 35.263623 L 116.880068 32.350639 L 115.845489 29.599090 L 114.121183 27.008966 L 111.707145 24.580258 L 108.860198 22.525758 L 105.837164 21.058264 L 102.638031 20.177770 L 99.262786 19.884273 L 96.181050 20.119071 L 91.866611 20.823470 L 88.656454 16.310904 L 85.365595 12.400021 L 81.994031 9.090818 L 78.541757 6.383293 L 75.008771 4.277445 L 71.395069 2.773270 L 67.700648 1.870767 L 63.925504 1.569933 L 60.111837 1.817571 L 56.477948 2.560485 L 53.023835 3.798678 L 49.749493 5.532150 L 46.654921 7.760905 L 43.740114 10.484944 L 41.005071 13.704269 L 38.449788 17.418881 L 34.326116 15.723919 L 30.642709 14.513236 L 27.399553 13.786829 L 24.596634 13.544694 L 19.522758 13.867541 L 14.984536 14.836083 L 10.981952 16.450327 L 7.514991 18.710277 L 4.715735 21.505859 L 3.616031 23.063235 L 2.716274 24.727003 L 1.516602 28.373723 L 1.116712 32.446032 L 1.413878 35.909329 L 2.305377 39.137813 L 3.791216 42.131496 L 5.871397 44.890392 L 8.355136 47.201704 L 11.051652 48.852636 L 13.960956 49.843191 L 17.083059 50.173374 L 20.575695 49.879878 L 24.948833 48.999378 L 24.420534 53.137716 L 24.244436 56.395554 L 24.370089 58.910482 L 24.747049 61.348360 L 25.375316 63.709190 L 26.254893 65.992974 L 27.385780 68.199715 L 28.767977 70.329414 L 30.401486 72.382073 L 32.286309 74.357695 L 34.336222 76.173729 L 36.465006 77.747621 L 38.672665 79.079373 L 40.959200 80.168987 L 43.324614 81.016462 L 45.768908 81.621801 L 48.292085 81.985003 L 50.894147 82.106070 L 53.731926 81.968494 L 56.492653 81.555763 L 59.176332 80.867878 L 61.782964 79.904838 L 64.312552 78.666640 L 66.765099 77.153285 L 69.140607 75.364772 L 71.439079 73.301099 L 74.784973 69.779109 L 76.839461 66.726720 L 78.541753 62.382942 L 80.831047 54.986759 Z" transform="scale(1.000000,1.000000) translate(73.000000,144.000000)" fill="#0b2365" opacity="0.343112"></path>
        <path d="M 3.498700 9.239365 L 3.498700 8.976264 Q 3.520420 7.653020 3.702318 7.115211 Q 3.884217 6.577401 4.481495 6.577401 Q 5.073344 6.577401 5.263387 7.165509 Q 5.377413 7.513731 5.377413 8.341726 L 5.377413 16.319880 L 7.049793 16.319880 L 7.049793 8.380417 Q 7.049793 6.925623 6.696856 6.074414 Q 6.099577 4.635096 4.541223 4.635096 Q 2.982869 4.635096 2.450748 5.799705 Q 1.918627 6.964314 1.918627 8.976264 L 1.918627 9.239365 Z M 11.844311 9.014955 Q 11.697706 8.883405 11.548387 8.802153 Q 11.399067 8.720901 11.138436 8.651257 L 10.790929 8.558397 Q 10.302246 8.434585 10.090484 8.256605 Q 9.732117 7.954813 9.732117 7.320275 Q 9.732117 6.755381 9.952024 6.503887 Q 10.171931 6.252394 10.486860 6.252394 Q 10.986402 6.252394 11.407212 6.670260 Q 11.828022 7.088127 11.844311 8.194699 Z M 10.904955 10.044145 Q 11.333909 10.121528 11.518523 10.237602 Q 11.849741 10.438796 11.849741 10.864401 Q 11.849741 11.382865 11.597255 11.580191 Q 11.344769 11.777517 10.856086 11.777517 Q 10.307676 11.777517 10.079624 11.390603 Q 9.916730 11.104288 9.862432 10.616777 L 8.369236 10.616777 Q 8.418104 11.723349 8.803620 12.435270 Q 9.417188 13.549580 10.910385 13.549580 Q 11.882320 13.549580 12.637063 13.000163 Q 13.391805 12.450746 13.391805 10.926307 L 13.391805 7.057174 Q 13.391805 6.654784 13.402665 6.082152 Q 13.418955 5.648809 13.494972 5.494044 Q 13.570989 5.339278 13.723024 5.238681 L 13.723024 4.913673 L 12.039784 4.913673 Q 11.969197 5.169036 11.942047 5.393446 Q 11.914898 5.617856 11.898609 5.904172 Q 11.578251 5.408923 11.160156 5.060701 Q 10.660613 4.650572 10.030756 4.650572 Q 9.227145 4.650572 8.703169 5.304456 Q 8.179192 5.958340 8.179192 7.157771 Q 8.179192 8.713163 9.020812 9.409607 Q 9.482346 9.788782 10.378264 9.951286 Z M 18.414375 13.348385 L 20.075896 13.348385 L 17.941982 4.913673 L 16.307611 4.913673 L 14.184557 13.348385 L 15.922095 13.348385 L 17.154660 7.126818 Z M 24.213407 9.014955 Q 24.066803 8.883405 23.917483 8.802153 Q 23.768163 8.720901 23.507533 8.651257 L 23.160025 8.558397 Q 22.671343 8.434585 22.459580 8.256605 Q 22.101213 7.954813 22.101213 7.320275 Q 22.101213 6.755381 22.321120 6.503887 Q 22.541027 6.252394 22.855956 6.252394 Q 23.355498 6.252394 23.776308 6.670260 Q 24.197118 7.088127 24.213407 8.194699 Z M 23.274051 10.044145 Q 23.703006 10.121528 23.887619 10.237602 Q 24.218837 10.438796 24.218837 10.864401 Q 24.218837 11.382865 23.966351 11.580191 Q 23.713865 11.777517 23.225183 11.777517 Q 22.676772 11.777517 22.448721 11.390603 Q 22.285826 11.104288 22.231528 10.616777 L 20.738332 10.616777 Q 20.787200 11.723349 21.172716 12.435270 Q 21.786284 13.549580 23.279481 13.549580 Q 24.251416 13.549580 25.006159 13.000163 Q 25.760902 12.450746 25.760902 10.926307 L 25.760902 7.057174 Q 25.760902 6.654784 25.771761 6.082152 Q 25.788051 5.648809 25.864068 5.494044 Q 25.940085 5.339278 26.092120 5.238681 L 26.092120 4.913673 L 24.408880 4.913673 Q 24.338293 5.169036 24.311144 5.393446 Q 24.283995 5.617856 24.267705 5.904172 Q 23.947347 5.408923 23.529252 5.060701 Q 23.029710 4.650572 22.399852 4.650572 Q 21.596241 4.650572 21.072265 5.304456 Q 20.548289 5.958340 20.548289 7.157771 Q 20.548289 8.713163 21.389909 9.409607 Q 21.851442 9.788782 22.747360 9.951286 Z M 28.340059 7.606591 Q 28.388927 7.018482 28.551822 6.770858 Q 28.839601 6.329776 29.616063 6.329776 Q 30.072167 6.329776 30.340942 6.523233 Q 30.609718 6.716690 30.609718 7.103603 Q 30.609718 7.475040 30.392526 7.668497 Q 30.175333 7.861953 28.779873 8.333988 Q 27.775359 8.689948 27.362694 9.223888 Q 26.950029 9.750091 26.950029 10.740589 Q 26.950029 11.909067 27.593461 12.748669 Q 28.236893 13.588271 29.404301 13.588271 Q 30.511981 13.588271 31.209711 12.957603 Q 31.907441 12.326934 32.010608 10.779280 L 30.463113 10.779280 Q 30.430534 11.204885 30.294789 11.452510 Q 30.039588 11.901329 29.426020 11.901329 Q 28.921048 11.901329 28.706571 11.676919 Q 28.492094 11.452510 28.492094 11.150717 Q 28.492094 10.771542 28.720146 10.601300 Q 28.948197 10.423320 30.332798 9.989977 Q 31.255865 9.680446 31.717398 9.053647 Q 32.173502 8.419109 32.173502 7.467302 Q 32.173502 6.213702 31.519210 5.420530 Q 30.864919 4.627358 29.496608 4.627358 Q 28.101148 4.627358 27.435997 5.466960 Q 26.770845 6.306562 26.770845 7.606591 Z M 36.853994 10.322722 Q 36.810555 10.794757 36.631372 11.173932 Q 36.370741 11.684658 35.822331 11.684658 Q 35.040439 11.684658 34.752659 10.578085 Q 34.600625 9.989977 34.600625 9.014955 Q 34.600625 8.086363 34.752659 7.521470 Q 35.029579 6.469065 35.795182 6.469065 Q 36.338162 6.469065 36.566214 6.886932 Q 36.794266 7.304798 36.843134 7.970289 L 38.423207 7.970289 Q 38.368909 6.964314 37.912806 6.066675 Q 37.185212 4.619619 35.757173 4.619619 Q 34.329134 4.619619 33.655838 5.826789 Q 32.982543 7.033959 32.982543 8.960787 Q 32.982543 11.135241 33.726426 12.342410 Q 34.470309 13.549580 35.778892 13.549580 Q 36.892002 13.549580 37.600592 12.837659 Q 38.309182 12.125739 38.439497 10.322722 Z M 42.718183 13.549580 Q 42.761622 13.549580 42.791486 13.545711 Q 42.821350 13.541842 42.924516 13.534104 L 42.924516 11.274529 Q 42.777911 11.297744 42.663885 11.305482 Q 42.549859 11.313221 42.479272 11.313221 Q 41.545345 11.313221 41.224987 10.446535 Q 41.045803 9.959024 41.045803 8.945311 L 41.045803 4.913673 L 39.487449 4.913673 L 39.487449 13.348385 L 40.964356 13.348385 L 40.964356 11.878114 Q 41.322723 12.721585 41.588784 13.031116 Q 42.023168 13.549580 42.718183 13.549580 Z M 45.422226 14.354360 L 43.853013 14.354360 L 43.853013 16.389524 L 45.422226 16.389524 Z M 43.853013 13.348385 L 45.422226 13.348385 L 45.422226 4.913673 L 43.853013 4.913673 Z M 50.998636 9.131029 Q 50.998636 10.106051 50.686422 10.856663 Q 50.374209 11.607275 49.673764 11.607275 Q 48.832144 11.607275 48.517215 10.469750 Q 48.354321 9.866165 48.354321 8.937573 Q 48.354321 7.467302 48.902731 6.871455 Q 49.228520 6.523233 49.673764 6.523233 Q 50.319911 6.523233 50.659273 7.235154 Q 50.998636 7.947074 50.998636 9.131029 Z M 50.119008 13.534104 Q 51.156101 13.534104 51.875550 12.443008 Q 52.594999 11.351912 52.594999 9.239365 Q 52.594999 7.010744 51.891839 5.842266 Q 51.188679 4.673787 50.080999 4.673787 Q 49.375125 4.673787 48.908161 5.176775 Q 48.652960 5.455352 48.408619 5.989293 L 48.408619 1.593957 L 46.877414 1.593957 L 46.877414 13.348385 L 48.359751 13.348385 L 48.359751 12.102524 Q 48.609522 12.651941 48.891872 12.969210 Q 49.407703 13.534104 50.119008 13.534104 Z M 53.105401 11.700134 L 53.105401 13.271002 L 53.930731 13.271002 L 53.930731 15.623436 L 55.461936 15.623436 L 55.461936 13.271002 L 56.423012 13.271002 L 56.423012 11.700134 L 55.461936 11.700134 L 55.461936 7.242892 Q 55.461936 6.724428 55.554243 6.596747 Q 55.646550 6.469065 56.118943 6.469065 Q 56.189530 6.469065 56.268262 6.472934 Q 56.346994 6.476804 56.423012 6.484542 L 56.423012 4.836291 L 55.689988 4.797599 Q 54.593167 4.743432 54.191362 5.339278 Q 53.930731 5.718453 53.930731 6.507757 L 53.930731 11.700134 Z" transform="scale(1.000000,1.000000) translate(103.000000,171.000000)" fill="#100065" opacity="0.455704"></path>
        <path d="M 80.989975 54.937540 L 86.184910 56.522438 L 88.364136 56.918660 L 90.264544 57.050733 L 92.443777 56.834279 L 94.520279 56.184915 L 96.494056 55.102638 L 98.365117 53.587444 L 99.957356 51.808104 L 101.094664 49.933382 L 101.777046 47.963273 L 102.004505 45.897769 L 101.534907 42.023582 L 105.819995 43.344330 L 109.518080 43.784576 L 111.361628 43.650669 L 112.959367 43.248945 L 114.311297 42.579404 L 115.417420 41.642044 L 116.277736 40.436866 L 116.892247 38.963867 L 117.260952 37.223047 L 117.383854 35.214404 L 117.038996 32.301420 L 116.004417 29.549871 L 114.280111 26.959747 L 111.866072 24.531039 L 109.019126 22.476540 L 105.996092 21.009045 L 102.796959 20.128551 L 99.421714 19.835055 L 96.339977 20.069853 L 92.025538 20.774252 L 88.815382 16.261685 L 85.524523 12.350802 L 82.152958 9.041599 L 78.700685 6.334075 L 75.167699 4.228226 L 71.553997 2.724051 L 67.859575 1.821548 L 64.084431 1.520714 L 60.270765 1.768352 L 56.636876 2.511266 L 53.182762 3.749459 L 49.908421 5.482932 L 46.813848 7.711687 L 43.899042 10.435726 L 41.163999 13.655050 L 38.608716 17.369663 L 34.485044 15.674700 L 30.801637 14.464017 L 27.558481 13.737610 L 24.755562 13.495475 L 19.681686 13.818322 L 15.143464 14.786865 L 11.140880 16.401109 L 7.673919 18.661058 L 4.874663 21.456640 L 3.774958 23.014016 L 2.875202 24.677784 L 1.675530 28.324504 L 1.275640 32.396814 L 1.572806 35.860110 L 2.464305 39.088594 L 3.950143 42.082278 L 6.030324 44.841173 L 8.514063 47.152486 L 11.210580 48.803417 L 14.119884 49.793972 L 17.241987 50.124156 L 20.734623 49.830659 L 25.107761 48.950159 L 24.579462 53.088498 L 24.403363 56.346335 L 24.529016 58.861263 L 24.905976 61.299141 L 25.534244 63.659971 L 26.413821 65.943756 L 27.544707 68.150496 L 28.926905 70.280195 L 30.560414 72.332855 L 32.445236 74.308477 L 34.495149 76.124510 L 36.623934 77.698402 L 38.831593 79.030155 L 41.118128 80.119768 L 43.483542 80.967243 L 45.927836 81.572582 L 48.451013 81.935784 L 51.053075 82.056851 L 53.890853 81.919275 L 56.651581 81.506545 L 59.335260 80.818660 L 61.941892 79.855619 L 64.471480 78.617422 L 66.924027 77.104067 L 69.299535 75.315553 L 71.598006 73.251880 L 74.943901 69.729890 L 76.998388 66.677502 L 78.700680 62.333723 L 80.989975 54.937540 Z" transform="scale(1.000000,1.000000) translate(202.000000,46.000000)" fill="#0b2365" opacity="0.343112"></path>
        <path d="M 1.462940 1.239419 L 1.462940 12.645625 L 3.119031 12.645625 L 3.119031 8.296719 L 6.246599 8.296719 L 6.246599 12.645625 L 7.908119 12.645625 L 7.908119 1.239419 L 6.246599 1.239419 L 6.246599 6.331199 L 3.119031 6.331199 L 3.119031 1.239419 Z M 15.319803 12.645625 L 15.319803 10.625937 L 12.925259 10.625937 L 12.925259 1.239419 L 11.242020 1.239419 L 11.242020 10.625937 L 8.836616 10.625937 L 8.836616 12.645625 Z M 21.602088 12.645625 L 24.007492 12.645625 L 24.007492 1.239419 L 22.449138 1.239419 L 22.449138 8.954471 Q 22.449138 9.287217 22.454567 9.886933 Q 22.459997 10.486648 22.459997 10.811656 L 20.945081 1.239419 L 19.321570 1.239419 L 17.817514 10.811656 Q 17.817514 10.486648 17.822943 9.886933 Q 17.828373 9.287217 17.828373 8.954471 L 17.828373 1.239419 L 16.270019 1.239419 L 16.270019 12.645625 L 18.702572 12.645625 L 20.157760 3.676973 Z M 25.560416 12.645625 L 27.232796 12.645625 L 27.232796 3.290059 L 31.196554 3.290059 L 31.196554 1.239419 L 25.560416 1.239419 Z" transform="scale(1.000000,1.000000) translate(245.000000,75.000000)" fill="#100065" opacity="0.455704"></path>
        <path d="M 81.307830 54.937540 L 86.502765 56.522438 L 88.681992 56.918660 L 90.582399 57.050733 L 92.761633 56.834279 L 94.838134 56.184915 L 96.811912 55.102638 L 98.682973 53.587444 L 100.275211 51.808104 L 101.412519 49.933382 L 102.094901 47.963273 L 102.322360 45.897769 L 101.852762 42.023582 L 106.137850 43.344330 L 109.835935 43.784576 L 111.679483 43.650669 L 113.277222 43.248945 L 114.629152 42.579404 L 115.735275 41.642044 L 116.595591 40.436866 L 117.210102 38.963867 L 117.578808 37.223047 L 117.701709 35.214404 L 117.356851 32.301420 L 116.322272 29.549871 L 114.597966 26.959747 L 112.183928 24.531039 L 109.336981 22.476540 L 106.313947 21.009045 L 103.114814 20.128551 L 99.739569 19.835055 L 96.657833 20.069853 L 92.343394 20.774252 L 89.133237 16.261685 L 85.842378 12.350802 L 82.470814 9.041599 L 79.018540 6.334075 L 75.485554 4.228226 L 71.871852 2.724051 L 68.177431 1.821548 L 64.402287 1.520714 L 60.588620 1.768352 L 56.954731 2.511266 L 53.500618 3.749459 L 50.226276 5.482932 L 47.131704 7.711687 L 44.216897 10.435726 L 41.481854 13.655050 L 38.926571 17.369663 L 34.802899 15.674700 L 31.119492 14.464017 L 27.876336 13.737610 L 25.073417 13.495475 L 19.999541 13.818322 L 15.461319 14.786865 L 11.458735 16.401109 L 7.991774 18.661058 L 5.192518 21.456640 L 4.092814 23.014016 L 3.193057 24.677784 L 1.993385 28.324504 L 1.593495 32.396814 L 1.890661 35.860110 L 2.782160 39.088594 L 4.267999 42.082278 L 6.348180 44.841173 L 8.831919 47.152486 L 11.528435 48.803417 L 14.437739 49.793972 L 17.559842 50.124156 L 21.052478 49.830659 L 25.425616 48.950159 L 24.897317 53.088498 L 24.721219 56.346335 L 24.846872 58.861263 L 25.223832 61.299141 L 25.852099 63.659971 L 26.731676 65.943756 L 27.862563 68.150496 L 29.244760 70.280195 L 30.878269 72.332855 L 32.763092 74.308477 L 34.813005 76.124510 L 36.941789 77.698402 L 39.149448 79.030155 L 41.435983 80.119768 L 43.801397 80.967243 L 46.245691 81.572582 L 48.768868 81.935784 L 51.370930 82.056851 L 54.208709 81.919275 L 56.969436 81.506545 L 59.653115 80.818660 L 62.259747 79.855619 L 64.789335 78.617422 L 67.241882 77.104067 L 69.617390 75.315553 L 71.915862 73.251880 L 75.261756 69.729890 L 77.316244 66.677502 L 79.018536 62.333723 L 81.307830 54.937540 Z" transform="scale(1.000000,1.000000) translate(460.000000,46.000000)" fill="#0b2365" opacity="0.343112"></path>
        <path d="M 3.765357 6.530288 L 5.796104 6.530288 L 4.797020 11.018483 Z M 3.868523 13.626279 L 5.758095 13.626279 L 8.592454 2.220073 L 6.778899 2.220073 L 6.263067 4.564768 L 3.314683 4.564768 L 2.760843 2.220073 L 1.012446 2.220073 Z M 10.699218 13.626279 L 11.758030 7.095181 L 11.986082 5.276689 L 12.219564 7.056490 L 13.120911 13.626279 L 14.885598 13.626279 L 15.835814 7.095181 L 16.080155 5.276689 L 16.324496 7.025537 L 17.394168 13.626279 L 19.093697 13.626279 L 16.840328 2.220073 L 15.243965 2.220073 L 14.277460 8.890460 L 13.995110 11.095866 L 13.712760 8.890460 L 12.746255 2.220073 L 11.193330 2.220073 L 8.923672 13.626279 Z M 21.314487 5.740985 Q 21.390505 4.959420 21.613127 4.572506 Q 22.020362 3.868324 23.008587 3.868324 Q 23.600435 3.868324 23.969662 4.054042 Q 24.670107 4.410003 24.670107 5.377286 Q 24.670107 5.942180 24.322599 6.251710 Q 23.975092 6.553503 23.231209 6.785651 L 22.384159 7.056490 Q 21.135304 7.458880 20.657481 7.930914 Q 19.848440 8.720218 19.848440 10.399422 Q 19.848440 11.931599 20.630332 12.945312 Q 21.412224 13.959025 22.927139 13.959025 Q 24.192284 13.959025 25.085487 13.003349 Q 25.978690 12.047673 26.022128 10.229180 L 24.414906 10.229180 Q 24.371468 11.258369 23.785049 11.691712 Q 23.394103 11.978028 22.813114 11.978028 Q 22.166967 11.978028 21.781451 11.606591 Q 21.395934 11.235155 21.395934 10.569664 Q 21.395934 9.958340 21.776021 9.656548 Q 22.020362 9.455353 22.818543 9.184514 L 24.197714 8.712479 Q 25.104491 8.402949 25.566025 7.884485 Q 26.282759 7.079705 26.282759 5.555266 Q 26.282759 3.992136 25.443854 2.959077 Q 24.604949 1.926019 23.073744 1.926019 Q 21.509960 1.926019 20.614042 2.943601 Q 19.718125 3.961183 19.718125 5.740985 Z" transform="scale(1.000000,1.000000) translate(506.000000,74.000000)" fill="#100065" opacity="0.455704"></path>
        <path d="M 81.466758 54.493677 L 86.661693 56.078575 L 88.840919 56.474797 L 90.741327 56.606870 L 92.920560 56.390416 L 94.997062 55.741052 L 96.970839 54.658775 L 98.841900 53.143581 L 100.434139 51.364241 L 101.571447 49.489519 L 102.253829 47.519410 L 102.481288 45.453906 L 102.011690 41.579719 L 106.296778 42.900467 L 109.994863 43.340713 L 111.838411 43.206806 L 113.436150 42.805082 L 114.788080 42.135541 L 115.894203 41.198181 L 116.754519 39.993003 L 117.369030 38.520004 L 117.737735 36.779184 L 117.860637 34.770541 L 117.515779 31.857557 L 116.481200 29.106008 L 114.756894 26.515884 L 112.342855 24.087176 L 109.495909 22.032676 L 106.472875 20.565182 L 103.273741 19.684688 L 99.898497 19.391192 L 96.816760 19.625990 L 92.502321 20.330388 L 89.292165 15.817822 L 86.001306 11.906939 L 82.629741 8.597736 L 79.177468 5.890212 L 75.644482 3.784363 L 72.030780 2.280188 L 68.336358 1.377685 L 64.561214 1.076851 L 60.747548 1.324489 L 57.113659 2.067403 L 53.659545 3.305596 L 50.385204 5.039069 L 47.290631 7.267824 L 44.375825 9.991863 L 41.640782 13.211187 L 39.085499 16.925800 L 34.961827 15.230837 L 31.278420 14.020154 L 28.035263 13.293747 L 25.232345 13.051612 L 20.158468 13.374459 L 15.620247 14.343002 L 11.617663 15.957246 L 8.150702 18.217195 L 5.351446 21.012777 L 4.251741 22.570153 L 3.351985 24.233921 L 2.152313 27.880641 L 1.752423 31.952951 L 2.049589 35.416247 L 2.941088 38.644731 L 4.426926 41.638415 L 6.507107 44.397310 L 8.990846 46.708623 L 11.687363 48.359554 L 14.596667 49.350109 L 17.718770 49.680293 L 21.211406 49.386796 L 25.584544 48.506296 L 25.056245 52.644635 L 24.880146 55.902472 L 25.005799 58.417400 L 25.382759 60.855278 L 26.011027 63.216108 L 26.890604 65.499893 L 28.021490 67.706633 L 29.403688 69.836332 L 31.037197 71.888992 L 32.922019 73.864614 L 34.971932 75.680647 L 37.100717 77.254539 L 39.308376 78.586292 L 41.594911 79.675905 L 43.960325 80.523380 L 46.404619 81.128719 L 48.927796 81.491921 L 51.529858 81.612988 L 54.367636 81.475412 L 57.128364 81.062682 L 59.812043 80.374797 L 62.418675 79.411756 L 64.948263 78.173559 L 67.400810 76.660204 L 69.776318 74.871690 L 72.074789 72.808017 L 75.420684 69.286027 L 77.475171 66.233639 L 79.177463 61.889860 L 81.466758 54.493677 Z" transform="scale(1.000000,1.000000) translate(589.000000,127.000000)" fill="#0b2365" opacity="0.343112"></path>
        <path d="M 6.669312 13.313967 L 9.074716 13.313967 L 9.074716 1.907760 L 7.516362 1.907760 L 7.516362 9.622813 Q 7.516362 9.955559 7.521792 10.555274 Q 7.527221 11.154990 7.527221 11.479997 L 6.012306 1.907760 L 4.388794 1.907760 L 2.884738 11.479997 Q 2.884738 11.154990 2.890168 10.555274 Q 2.895598 9.955559 2.895598 9.622813 L 2.895598 1.907760 L 1.337243 1.907760 L 1.337243 13.313967 L 3.769796 13.313967 L 5.224984 4.345315 Z M 12.093688 11.348447 L 10.524474 11.348447 L 10.524474 13.383611 L 12.093688 13.383611 Z M 10.524474 10.342472 L 12.093688 10.342472 L 12.093688 1.907760 L 10.524474 1.907760 Z M 17.127117 7.316809 Q 17.083678 7.788844 16.904495 8.168019 Q 16.643864 8.678745 16.095454 8.678745 Q 15.313562 8.678745 15.025782 7.572172 Q 14.873748 6.984064 14.873748 6.009042 Q 14.873748 5.080450 15.025782 4.515557 Q 15.302702 3.463152 16.068305 3.463152 Q 16.611285 3.463152 16.839337 3.881019 Q 17.067389 4.298885 17.116257 4.964376 L 18.696331 4.964376 Q 18.642033 3.958401 18.185929 3.060762 Q 17.458335 1.613706 16.030296 1.613706 Q 14.602258 1.613706 13.928962 2.820876 Q 13.255666 4.028046 13.255666 5.954874 Q 13.255666 8.129328 13.999549 9.336497 Q 14.743432 10.543667 16.052016 10.543667 Q 17.165126 10.543667 17.873715 9.831746 Q 18.582305 9.119826 18.712620 7.316809 Z M 22.991307 10.543667 Q 23.034745 10.543667 23.064609 10.539798 Q 23.094473 10.535929 23.197639 10.528190 L 23.197639 8.268616 Q 23.051034 8.291831 22.937009 8.299569 Q 22.822983 8.307308 22.752395 8.307308 Q 21.818469 8.307308 21.498110 7.440622 Q 21.318927 6.953111 21.318927 5.939398 L 21.318927 1.907760 L 19.760572 1.907760 L 19.760572 10.342472 L 21.237479 10.342472 L 21.237479 8.872201 Q 21.595847 9.715672 21.861907 10.025203 Q 22.296291 10.543667 22.991307 10.543667 Z M 26.759591 3.463152 Q 27.438317 3.463152 27.802114 4.151858 Q 28.165911 4.840564 28.165911 6.109640 Q 28.165911 7.378716 27.802114 8.063552 Q 27.438317 8.748389 26.759591 8.748389 Q 26.080866 8.748389 25.714354 8.063552 Q 25.347842 7.378716 25.347842 6.109640 Q 25.347842 4.840564 25.714354 4.151858 Q 26.080866 3.463152 26.759591 3.463152 Z M 29.789423 6.109640 Q 29.789423 4.252455 29.040110 2.933081 Q 28.290796 1.613706 26.765021 1.613706 Q 25.239246 1.613706 24.489933 2.933081 Q 23.740620 4.252455 23.740620 6.109640 Q 23.740620 7.935871 24.489933 9.274591 Q 25.239246 10.613311 26.765021 10.613311 Q 28.290796 10.613311 29.040110 9.274591 Q 29.789423 7.935871 29.789423 6.109640 Z M 32.102520 4.600678 Q 32.151388 4.012569 32.314282 3.764945 Q 32.602062 3.323863 33.378524 3.323863 Q 33.834628 3.323863 34.103403 3.517320 Q 34.372178 3.710777 34.372178 4.097690 Q 34.372178 4.469127 34.154986 4.662584 Q 33.937794 4.856040 32.542334 5.328075 Q 31.537820 5.684035 31.125155 6.217975 Q 30.712490 6.744178 30.712490 7.734676 Q 30.712490 8.903154 31.355921 9.742756 Q 31.999353 10.582358 33.166761 10.582358 Q 34.274442 10.582358 34.972172 9.951690 Q 35.669902 9.321021 35.773068 7.773367 L 34.225574 7.773367 Q 34.192995 8.198972 34.057250 8.446597 Q 33.802049 8.895416 33.188481 8.895416 Q 32.683509 8.895416 32.469032 8.671006 Q 32.254554 8.446597 32.254554 8.144804 Q 32.254554 7.765629 32.482606 7.595387 Q 32.710658 7.417407 34.095258 6.984064 Q 35.018325 6.674533 35.479859 6.047734 Q 35.935962 5.413196 35.935962 4.461389 Q 35.935962 3.207789 35.281671 2.414617 Q 34.627379 1.621445 33.259068 1.621445 Q 31.863608 1.621445 31.198457 2.461047 Q 30.533306 3.300649 30.533306 4.600678 Z M 39.416467 8.748389 Q 38.878917 8.748389 38.582992 8.268616 Q 38.287068 7.788844 38.211051 6.968587 L 40.616454 6.968587 Q 40.578446 7.843012 40.244513 8.295700 Q 39.910580 8.748389 39.416467 8.748389 Z M 39.416467 10.566882 Q 40.154921 10.566882 40.746770 10.172230 Q 41.338618 9.777579 41.724134 8.926369 Q 42.071642 8.175757 42.174808 7.185259 Q 42.234536 6.604889 42.223677 5.513793 L 38.173042 5.513793 Q 38.205621 4.244717 38.732312 3.733992 Q 39.052670 3.416723 39.503344 3.416723 Q 39.981167 3.416723 40.279806 3.803636 Q 40.442700 4.012569 40.567586 4.384006 L 42.147659 4.384006 Q 42.087931 3.633394 41.599249 2.859567 Q 40.839076 1.629183 39.470765 1.629183 Q 38.341366 1.629183 37.478027 2.666111 Q 36.614688 3.703038 36.614688 6.039995 Q 36.614688 8.229925 37.393865 9.398403 Q 38.173042 10.566882 39.416467 10.566882 Z M 46.480644 10.543667 Q 46.524082 10.543667 46.553946 10.539798 Q 46.583810 10.535929 46.686976 10.528190 L 46.686976 8.268616 Q 46.540372 8.291831 46.426346 8.299569 Q 46.312320 8.307308 46.241732 8.307308 Q 45.307806 8.307308 44.987447 7.440622 Q 44.808264 6.953111 44.808264 5.939398 L 44.808264 1.907760 L 43.249910 1.907760 L 43.249910 10.342472 L 44.726817 10.342472 L 44.726817 8.872201 Q 45.085184 9.715672 45.351244 10.025203 Q 45.785629 10.543667 46.480644 10.543667 Z M 51.242583 10.342472 L 52.904103 10.342472 L 50.770190 1.907760 L 49.135819 1.907760 L 47.012765 10.342472 L 48.750302 10.342472 L 49.982868 4.120905 Z M 55.369235 11.348447 L 53.800021 11.348447 L 53.800021 13.383611 L 55.369235 13.383611 Z M 53.800021 10.342472 L 55.369235 10.342472 L 55.369235 1.907760 L 53.800021 1.907760 Z M 60.402664 7.316809 Q 60.359226 7.788844 60.180042 8.168019 Q 59.919412 8.678745 59.371001 8.678745 Q 58.589109 8.678745 58.301330 7.572172 Q 58.149295 6.984064 58.149295 6.009042 Q 58.149295 5.080450 58.301330 4.515557 Q 58.578250 3.463152 59.343852 3.463152 Q 59.886833 3.463152 60.114885 3.881019 Q 60.342937 4.298885 60.391805 4.964376 L 61.971878 4.964376 Q 61.917580 3.958401 61.461476 3.060762 Q 60.733882 1.613706 59.305844 1.613706 Q 57.877805 1.613706 57.204509 2.820876 Q 56.531213 4.028046 56.531213 5.954874 Q 56.531213 8.129328 57.275097 9.336497 Q 58.018980 10.543667 59.327563 10.543667 Q 60.440673 10.543667 61.149263 9.831746 Q 61.857852 9.119826 61.988167 7.316809 Z M 65.387226 8.748389 Q 64.849675 8.748389 64.553750 8.268616 Q 64.257826 7.788844 64.181809 6.968587 L 66.587212 6.968587 Q 66.549204 7.843012 66.215271 8.295700 Q 65.881338 8.748389 65.387226 8.748389 Z M 65.387226 10.566882 Q 66.125679 10.566882 66.717528 10.172230 Q 67.309377 9.777579 67.694893 8.926369 Q 68.042400 8.175757 68.145567 7.185259 Q 68.205294 6.604889 68.194435 5.513793 L 64.143800 5.513793 Q 64.176379 4.244717 64.703070 3.733992 Q 65.023429 3.416723 65.474102 3.416723 Q 65.951925 3.416723 66.250565 3.803636 Q 66.413459 4.012569 66.538344 4.384006 L 68.118418 4.384006 Q 68.058690 3.633394 67.570007 2.859567 Q 66.809834 1.629183 65.441524 1.629183 Q 64.312124 1.629183 63.448785 2.666111 Q 62.585446 3.703038 62.585446 6.039995 Q 62.585446 8.229925 63.364623 9.398403 Q 64.143800 10.566882 65.387226 10.566882 Z M 70.442374 4.600678 Q 70.491242 4.012569 70.654137 3.764945 Q 70.941916 3.323863 71.718378 3.323863 Q 72.174482 3.323863 72.443257 3.517320 Q 72.712033 3.710777 72.712033 4.097690 Q 72.712033 4.469127 72.494841 4.662584 Q 72.277648 4.856040 70.882188 5.328075 Q 69.877674 5.684035 69.465009 6.217975 Q 69.052344 6.744178 69.052344 7.734676 Q 69.052344 8.903154 69.695776 9.742756 Q 70.339208 10.582358 71.506616 10.582358 Q 72.614296 10.582358 73.312026 9.951690 Q 74.009756 9.321021 74.112922 7.773367 L 72.565428 7.773367 Q 72.532849 8.198972 72.397104 8.446597 Q 72.141903 8.895416 71.528335 8.895416 Q 71.023363 8.895416 70.808886 8.671006 Q 70.594409 8.446597 70.594409 8.144804 Q 70.594409 7.765629 70.822461 7.595387 Q 71.050512 7.417407 72.435113 6.984064 Q 73.358180 6.674533 73.819713 6.047734 Q 74.275817 5.413196 74.275817 4.461389 Q 74.275817 3.207789 73.621525 2.414617 Q 72.967234 1.621445 71.598923 1.621445 Q 70.203463 1.621445 69.538312 2.461047 Q 68.873160 3.300649 68.873160 4.600678 Z" transform="scale(1.000000,1.000000) translate(611.000000,155.000000)" fill="#100065" opacity="0.455704"></path>
    </g>
</svg>