<?xml version="1.0" encoding="UTF-8" standalone="yes"?>
<!DOCTYPE svg PUBLIC "-//W3C//DTD SVG 1.1//EN" "http://www.w3.org/Graphics/SVG/1.1/DTD/svg11.dtd">

<svg width="700" height="700" viewBox="0 0 700 700" xmlns="http://www.w3.org/2000/svg" xmlns:xlink="http://www.w3.org/1999/xlink" version="1.1" baseProfile="full">
    <defs>
        <radialGradient id="1998449613942784" cx="1186" cy="1492" r="1385" fx="689" fy="2296" gradientUnits="userSpaceOnUse">
            <stop offset="0%" style="stop-color:#fffcda;stop-opacity:1.000000"></stop>
            <stop offset="100%" style="stop-color:#fcb7a0;stop-opacity:1.000000"></stop>
        </radialGradient>
    </defs>
    <g transform="scale(1,-1) translate(0,-700)">
        <path d="M 4.166667 4.166667 L 2920.833222 4.166667 L 2920.833222 2920.833222 L 4.166667 2920.833222 Z" transform="scale(0.240000,0.240000) translate(-4.166667,-4.166667)" fill="url(#1998449613942784)" opacity="1.000000"></path>
        <path d="M 474.588581 318.226850 L 505.279521 327.590203 L 518.154080 329.931023 L 529.381421 330.711294 L 542.256022 329.432514 L 554.523698 325.596163 L 566.184494 319.202224 L 577.238458 310.250678 L 586.645178 299.738587 L 593.364232 288.663001 L 597.395646 277.023876 L 598.739445 264.821174 L 595.965124 241.933028 L 621.280817 249.735815 L 643.128581 252.336731 L 654.020000 251.545623 L 663.459213 249.172295 L 671.446225 245.216742 L 677.981042 239.678956 L 683.063669 232.558933 L 686.694110 223.856666 L 688.872371 213.572149 L 689.598457 201.705376 L 687.561083 184.495878 L 681.448937 168.240119 L 671.261983 152.938039 L 657.000186 138.589577 L 640.180829 126.451886 L 622.321173 117.782137 L 603.421147 112.580307 L 583.480680 110.846369 L 565.274219 112.233523 L 539.785124 116.395011 L 520.819974 89.735414 L 501.378047 66.630472 L 481.459322 47.080174 L 461.063780 31.084505 L 440.191399 18.643452 L 418.842160 9.757002 L 397.016043 4.425141 L 374.713026 2.647858 L 352.182425 4.110866 L 330.713926 8.499897 L 310.307513 15.814962 L 290.963167 26.056073 L 272.680872 39.223239 L 255.460609 55.316473 L 239.302362 74.335784 L 224.206113 96.281185 L 199.844044 86.267589 L 178.082996 79.115047 L 158.922889 74.823537 L 142.363644 73.393038 L 112.387901 75.300370 L 85.576729 81.022383 L 61.930033 90.559106 L 41.447718 103.910567 L 24.910111 120.426464 L 18.413212 129.627219 L 13.097578 139.456526 L 6.010085 161.000829 L 3.647595 185.059451 L 5.403206 205.520113 L 10.670059 224.593536 L 19.448180 242.279792 L 31.737595 258.578952 L 46.411173 272.233858 L 62.341809 281.987325 L 79.529567 287.839383 L 97.974508 289.790062 L 118.608505 288.056125 L 144.444385 282.854260 L 141.323268 307.302972 L 140.282903 326.549812 L 141.025244 341.407649 L 143.252269 355.810284 L 146.963986 369.757732 L 152.160400 383.250004 L 158.841518 396.287113 L 167.007345 408.869071 L 176.657887 420.995890 L 187.793150 432.667583 L 199.903744 443.396449 L 212.480302 452.694780 L 225.522838 460.562584 L 239.031363 466.999864 L 253.005892 472.006628 L 267.446435 475.582881 L 282.353007 477.728629 L 297.725619 478.443877 L 314.490814 477.631094 L 330.800800 475.192742 L 346.655593 471.128816 L 362.055207 465.439309 L 376.999656 458.124216 L 391.488955 449.183531 L 405.523119 438.617248 L 419.102162 426.425362 L 438.869232 405.617949 L 451.006853 387.584870 L 461.063753 361.922447 L 474.588581 318.226850 Z" transform="scale(0.240000,0.240000) translate(62.499998,2241.666578)" fill="#0b215e" opacity="0.333818"></path>
        <path d="M 474.223225 318.200285 L 504.914164 327.563637 L 517.788723 329.904457 L 529.016063 330.684727 L 541.890664 329.405948 L 554.158339 325.569597 L 565.819136 319.175658 L 576.873098 310.224113 L 586.279818 299.712024 L 592.998873 288.636438 L 597.030286 276.997314 L 598.374085 264.794613 L 595.599764 241.906468 L 620.915456 249.709255 L 642.763220 252.310170 L 653.654638 251.519063 L 663.093851 249.145735 L 671.080863 245.190182 L 677.615680 239.652397 L 682.698307 232.532374 L 686.328748 223.830108 L 688.507009 213.545592 L 689.233095 201.678819 L 687.195721 184.469323 L 681.083575 168.213565 L 670.896621 152.911486 L 656.634824 138.563026 L 639.815468 126.425335 L 621.955813 117.755587 L 603.055787 112.553757 L 583.115320 110.819820 L 564.908860 112.206973 L 539.419766 116.368461 L 520.454617 89.708866 L 501.012690 66.603926 L 481.093966 47.053629 L 460.698424 31.057961 L 439.826044 18.616909 L 418.476806 9.730460 L 396.650689 4.398600 L 374.347673 2.621316 L 351.817072 4.084324 L 330.348574 8.473355 L 309.942161 15.788420 L 290.597816 26.029529 L 272.315521 39.196695 L 255.095259 55.289927 L 238.937013 74.309238 L 223.840764 96.254637 L 199.478696 86.241042 L 177.717648 79.088500 L 158.557541 74.796990 L 141.998297 73.366492 L 112.022555 75.273823 L 85.211384 80.995836 L 61.564689 90.532558 L 41.082374 103.884018 L 24.544767 120.399913 L 18.047869 129.600668 L 12.732235 139.429974 L 5.644742 160.974276 L 3.282252 185.032896 L 5.037863 205.493556 L 10.304716 224.566978 L 19.082836 242.253233 L 31.372251 258.552392 L 46.045829 272.207297 L 61.976465 281.960762 L 79.164222 287.812820 L 97.609163 289.763499 L 118.243159 288.029562 L 144.079038 282.827697 L 140.957922 307.276407 L 139.917556 326.523246 L 140.659897 341.381082 L 142.886923 355.783716 L 146.598639 369.731163 L 151.795053 383.223434 L 158.476171 396.260542 L 166.641997 408.842499 L 176.292539 420.969317 L 187.427802 432.641010 L 199.538395 443.369874 L 212.114953 452.668205 L 225.157489 460.536008 L 238.666014 466.973288 L 252.640542 471.980052 L 267.081085 475.556304 L 281.987656 477.702052 L 297.360268 478.417299 L 314.125462 477.604517 L 330.435448 475.166165 L 346.290241 471.102239 L 361.689854 465.412733 L 376.634302 458.097640 L 391.123601 449.156955 L 405.157764 438.590673 L 418.736807 426.398788 L 438.503877 405.591377 L 450.641497 387.558300 L 460.698397 361.895878 L 474.223225 318.200285 Z" transform="scale(0.240000,0.240000) translate(1074.999957,1312.499948)" fill="#0b215e" opacity="0.333818"></path>
        <path d="M 475.084611 320.220395 L 505.775550 329.583748 L 518.650109 331.924568 L 529.877449 332.704838 L 542.752050 331.426058 L 555.019726 327.589708 L 566.680522 321.195769 L 577.734485 312.244224 L 587.141205 301.732134 L 593.860259 290.656548 L 597.891673 279.017425 L 599.235472 266.814724 L 596.461151 243.926579 L 621.776843 251.729366 L 643.624606 254.330281 L 654.516025 253.539173 L 663.955238 251.165846 L 671.942250 247.210292 L 678.477067 241.672508 L 683.559693 234.552485 L 687.190134 225.850218 L 689.368395 215.565702 L 690.094481 203.698930 L 688.057107 186.489434 L 681.944961 170.233676 L 671.758007 154.931597 L 657.496211 140.583136 L 640.676855 128.445446 L 622.817199 119.775698 L 603.917174 114.573868 L 583.976707 112.839930 L 565.770246 114.227084 L 540.281153 118.388571 L 521.316003 91.728976 L 501.874077 68.624037 L 481.955352 49.073739 L 461.559811 33.078072 L 440.687431 20.637020 L 419.338192 11.750570 L 397.512075 6.418710 L 375.209059 4.641427 L 352.678458 6.104435 L 331.209961 10.493466 L 310.803548 17.808530 L 291.459203 28.049640 L 273.176908 41.216806 L 255.956646 57.310038 L 239.798399 76.329348 L 224.702150 98.274747 L 200.340082 88.261152 L 178.579035 81.108610 L 159.418928 76.817101 L 142.859683 75.386602 L 112.883941 77.293934 L 86.072770 83.015947 L 62.426075 92.552669 L 41.943761 105.904129 L 25.406154 122.420024 L 18.909256 131.620779 L 13.593621 141.450084 L 6.506128 162.994386 L 4.143638 187.053006 L 5.899250 207.513667 L 11.166103 226.587089 L 19.944223 244.273343 L 32.233637 260.572502 L 46.907216 274.227407 L 62.837851 283.980873 L 80.025608 289.832930 L 98.470549 291.783609 L 119.104545 290.049672 L 144.940424 284.847808 L 141.819308 309.296518 L 140.778943 328.543357 L 141.521283 343.401192 L 143.748309 357.803827 L 147.460026 371.751274 L 152.656440 385.243545 L 159.337557 398.280652 L 167.503383 410.862609 L 177.153925 422.989428 L 188.289188 434.661120 L 200.399782 445.389985 L 212.976340 454.688316 L 226.018875 462.556118 L 239.527400 468.993399 L 253.501928 474.000162 L 267.942471 477.576415 L 282.849042 479.722162 L 298.221654 480.437410 L 314.986848 479.624627 L 331.296835 477.186276 L 347.151627 473.122350 L 362.551240 467.432843 L 377.495689 460.117751 L 391.984987 451.177066 L 406.019151 440.610784 L 419.598193 428.418899 L 439.365264 407.611487 L 451.502884 389.578410 L 461.559784 363.915989 L 475.084611 320.220395 Z" transform="scale(0.240000,0.240000) translate(2149.999915,187.499993)" fill="#0b215e" opacity="0.333818"></path>
        <path d="M 219.153606 320.404581 L 188.462667 329.767934 L 175.588108 332.108754 L 164.360768 332.889024 L 151.486167 331.610245 L 139.218492 327.773894 L 127.557695 321.379955 L 116.503732 312.428410 L 107.097013 301.916320 L 100.377958 290.840734 L 96.346544 279.201611 L 95.002745 266.998910 L 97.777066 244.110765 L 72.461375 251.913552 L 50.613611 254.514467 L 39.722193 253.723359 L 30.282980 251.350032 L 22.295967 247.394479 L 15.761150 241.856694 L 10.678524 234.736671 L 7.048083 226.034405 L 4.869822 215.749888 L 4.143736 203.883116 L 6.181110 186.673620 L 12.293256 170.417862 L 22.480210 155.115783 L 36.742006 140.767322 L 53.561363 128.629632 L 71.421018 119.959884 L 90.321043 114.758054 L 110.261510 113.024116 L 128.467971 114.411270 L 153.957065 118.572758 L 172.922214 91.913162 L 192.364141 68.808223 L 212.282865 49.257926 L 232.678407 33.262258 L 253.550787 20.821206 L 274.900025 11.934756 L 296.726142 6.602897 L 319.029158 4.825613 L 341.559759 6.288621 L 363.028257 10.677652 L 383.434669 17.992716 L 402.779015 28.233826 L 421.061309 41.400992 L 438.281571 57.494224 L 454.439818 76.513534 L 469.536067 98.458933 L 493.898135 88.445338 L 515.659183 81.292797 L 534.819289 77.001287 L 551.378534 75.570788 L 581.354276 77.478120 L 608.165447 83.200133 L 631.812142 92.736855 L 652.294457 106.088315 L 668.832064 122.604210 L 675.328962 131.804965 L 680.644596 141.634270 L 687.732089 163.178573 L 690.094579 187.237192 L 688.338967 207.697853 L 683.072115 226.771275 L 674.293994 244.457529 L 662.004580 260.756688 L 647.331002 274.411593 L 631.400366 284.165059 L 614.212609 290.017116 L 595.767668 291.967795 L 575.133672 290.233858 L 549.297793 285.031994 L 552.418909 309.480704 L 553.459275 328.727543 L 552.716934 343.585378 L 550.489908 357.988013 L 546.778192 371.935460 L 541.581778 385.427731 L 534.900660 398.464838 L 526.734834 411.046795 L 517.084292 423.173614 L 505.949029 434.845306 L 493.838436 445.574171 L 481.261877 454.872502 L 468.219342 462.740304 L 454.710817 469.177585 L 440.736289 474.184348 L 426.295746 477.760601 L 411.389175 479.906348 L 396.016563 480.621596 L 379.251369 479.808814 L 362.941383 477.370462 L 347.086590 473.306536 L 331.686977 467.617029 L 316.742528 460.301937 L 302.253230 451.361252 L 288.219066 440.794970 L 274.640024 428.603085 L 254.872954 407.795674 L 242.735333 389.762596 L 232.678434 364.100175 L 219.153606 320.404581 Z" transform="scale(0.240000,0.240000) translate(2149.999915,2233.333245)" fill="#0b215e" opacity="0.333818"></path>
        <path d="M 218.657465 318.231364 L 187.966526 327.594717 L 175.091967 329.935537 L 163.864627 330.715807 L 150.990026 329.437027 L 138.722350 325.600677 L 127.061554 319.206738 L 116.007591 310.255193 L 106.600871 299.743103 L 99.881817 288.667517 L 95.850403 277.028394 L 94.506604 264.825693 L 97.280925 241.937548 L 71.965233 249.740335 L 50.117470 252.341250 L 39.226051 251.550142 L 29.786839 249.176815 L 21.799826 245.221262 L 15.265009 239.683477 L 10.182383 232.563454 L 6.551942 223.861187 L 4.373681 213.576671 L 3.647595 201.709899 L 5.684969 184.500403 L 11.797115 168.244645 L 21.984069 152.942566 L 36.245865 138.594105 L 53.065221 126.456415 L 70.924877 117.786667 L 89.824902 112.584837 L 109.765369 110.850899 L 127.971830 112.238053 L 153.460924 116.399540 L 172.426073 89.739945 L 191.868000 66.635006 L 211.786724 47.084709 L 232.182266 31.089041 L 253.054646 18.647989 L 274.403884 9.761539 L 296.230001 4.429679 L 318.533017 2.652396 L 341.063618 4.115404 L 362.532116 8.504435 L 382.938528 15.819499 L 402.282873 26.060609 L 420.565168 39.227775 L 437.785430 55.321007 L 453.943677 74.340317 L 469.039926 96.285716 L 493.401994 86.272121 L 515.163042 79.119579 L 534.323148 74.828070 L 550.882393 73.397571 L 580.858135 75.304903 L 607.669306 81.026916 L 631.316001 90.563638 L 651.798316 103.915098 L 668.335922 120.430993 L 674.832821 129.631748 L 680.148455 139.461053 L 687.235948 161.005356 L 689.598438 185.063975 L 687.842826 205.524636 L 682.575974 224.598058 L 673.797853 242.284312 L 661.508439 258.583471 L 646.834861 272.238376 L 630.904225 281.991842 L 613.716468 287.843899 L 595.271527 289.794578 L 574.637531 288.060641 L 548.801652 282.858777 L 551.922768 307.307487 L 552.963133 326.554326 L 552.220793 341.412161 L 549.993767 355.814796 L 546.282050 369.762243 L 541.085636 383.254514 L 534.404519 396.291621 L 526.238693 408.873578 L 516.588151 421.000397 L 505.452888 432.672089 L 493.342294 443.400954 L 480.765736 452.699285 L 467.723201 460.567087 L 454.214676 467.004368 L 440.240148 472.011131 L 425.799605 475.587384 L 410.893034 477.733131 L 395.520422 478.448379 L 378.755228 477.635596 L 362.445242 475.197245 L 346.590449 471.133319 L 331.190836 465.443812 L 316.246387 458.128720 L 301.757089 449.188035 L 287.722925 438.621753 L 274.143883 426.429868 L 254.376812 405.622456 L 242.239192 387.589379 L 232.182293 361.926958 L 218.657465 318.231364 Z" transform="scale(0.240000,0.240000) translate(62.499998,183.333326)" fill="#0b215e" opacity="0.333818"></path>
        <path d="M 4.850310 69.001804 L 17.678045 69.001804 L 17.678045 43.303997 L 41.767093 69.001804 L 58.616726 69.001804 L 33.045927 43.303997 L 59.929135 6.598892 L 43.164174 6.598892 L 23.901402 33.863122 L 17.678045 27.470422 L 17.678045 6.598892 L 4.850310 6.598892 Z M 78.302855 52.744872 L 78.302855 24.930277 Q 78.302855 20.993051 79.234242 19.003270 Q 80.885337 15.489402 85.711614 15.489402 Q 91.892635 15.489402 94.178766 20.485022 Q 95.364167 23.194510 95.364167 27.639765 L 95.364167 52.744872 L 107.599202 52.744872 L 107.599202 6.598892 L 95.872196 6.598892 L 95.872196 13.118599 Q 95.702853 12.906920 95.025481 11.848526 Q 94.348109 10.790132 93.416722 9.985753 Q 90.580226 7.445607 87.934241 6.514220 Q 85.288256 5.582834 81.732052 5.582834 Q 71.486798 5.582834 67.930594 12.949256 Q 65.940813 17.013489 65.940813 24.930277 L 65.940813 52.744872 Z M 144.177300 53.760930 Q 153.279488 53.760930 158.423283 47.198887 Q 163.567078 40.636844 163.567078 30.264582 Q 163.567078 19.511299 158.486787 12.441227 Q 153.406496 5.371155 144.304307 5.371155 Q 138.588979 5.371155 135.117447 7.657286 Q 133.042995 9.012030 130.629856 12.398891 L 130.629856 6.598892 L 118.818179 6.598892 L 118.818179 68.917132 L 130.841535 68.917132 L 130.841535 46.733194 Q 133.127666 49.950711 135.879491 51.644142 Q 139.139344 53.760930 144.177300 53.760930 Z M 141.086789 15.320059 Q 145.743723 15.320059 148.326204 19.087942 Q 150.908686 22.855824 150.908686 28.994510 Q 150.908686 33.905458 149.638613 37.122976 Q 147.225475 43.219325 140.748103 43.219325 Q 134.186060 43.219325 131.730586 37.249983 Q 130.460513 34.074801 130.460513 29.036845 Q 130.460513 23.109839 133.085330 19.214949 Q 135.710147 15.320059 141.086789 15.320059 Z M 190.407951 44.023705 Q 186.216711 44.023705 183.909412 41.398888 Q 181.602113 38.774070 181.009412 34.286480 L 199.764154 34.286480 Q 199.467804 39.070421 196.864155 41.547063 Q 194.260505 44.023705 190.407951 44.023705 Z M 190.407951 53.972609 Q 196.165614 53.972609 200.780212 51.813485 Q 205.394810 49.654361 208.400649 44.997427 Q 211.110138 40.890859 211.914518 35.471881 Q 212.380211 32.296699 212.295539 26.327357 L 180.713062 26.327357 Q 180.967076 19.384292 185.073645 16.590132 Q 187.571455 14.854365 191.085323 14.854365 Q 194.810870 14.854365 197.139337 16.971153 Q 198.409410 18.114219 199.383132 20.146336 L 211.702839 20.146336 Q 211.237145 16.039767 207.426927 11.806191 Q 201.499920 5.074805 190.831309 5.074805 Q 182.025470 5.074805 175.294084 10.747797 Q 168.562698 16.420789 168.562698 29.206188 Q 168.562698 41.187209 174.637880 47.579909 Q 180.713062 53.972609 190.407951 53.972609 Z M 245.486776 53.845601 Q 245.825462 53.845601 246.058309 53.824434 Q 246.291156 53.803266 247.095535 53.760930 L 247.095535 41.398888 Q 245.952470 41.525895 245.063419 41.568231 Q 244.174368 41.610566 243.624003 41.610566 Q 236.342252 41.610566 233.844442 36.868961 Q 232.447362 34.201808 232.447362 28.655824 L 232.447362 6.598892 L 220.296998 6.598892 L 220.296998 52.744872 L 231.812325 52.744872 L 231.812325 44.701077 Q 234.606486 49.315675 236.680938 51.009105 Q 240.067799 53.845601 245.486776 53.845601 Z M 279.736407 53.845601 Q 286.891151 53.845601 291.442245 50.098887 Q 295.993339 46.352172 295.993339 37.673341 L 295.993339 6.598892 L 283.631297 6.598892 L 283.631297 34.667502 Q 283.631297 38.308377 282.657575 40.255822 Q 280.879473 43.812026 275.883853 43.812026 Q 269.745167 43.812026 267.459036 38.604727 Q 266.273635 35.852903 266.273635 31.576991 L 266.273635 6.598892 L 254.250279 6.598892 L 254.250279 52.660200 L 265.892613 52.660200 L 265.892613 45.928814 Q 268.221080 49.485018 270.295532 51.051441 Q 274.021079 53.845601 279.736407 53.845601 Z M 325.332022 44.023705 Q 321.140781 44.023705 318.833482 41.398888 Q 316.526183 38.774070 315.933483 34.286480 L 334.688225 34.286480 Q 334.391875 39.070421 331.788225 41.547063 Q 329.184576 44.023705 325.332022 44.023705 Z M 325.332022 53.972609 Q 331.089685 53.972609 335.704283 51.813485 Q 340.318881 49.654361 343.324720 44.997427 Q 346.034209 40.890859 346.838588 35.471881 Q 347.304282 32.296699 347.219610 26.327357 L 315.637133 26.327357 Q 315.891147 19.384292 319.997716 16.590132 Q 322.495526 14.854365 326.009394 14.854365 Q 329.734941 14.854365 332.063408 16.971153 Q 333.333481 18.114219 334.307203 20.146336 L 346.626910 20.146336 Q 346.161216 16.039767 342.350998 11.806191 Q 336.423991 5.074805 325.755379 5.074805 Q 316.949541 5.074805 310.218155 10.747797 Q 303.486769 16.420789 303.486769 29.206188 Q 303.486769 41.187209 309.561951 47.579909 Q 315.637133 53.972609 325.332022 53.972609 Z M 350.606471 43.727355 L 350.606471 52.321514 L 357.041507 52.321514 L 357.041507 65.191585 L 368.980192 65.191585 L 368.980192 52.321514 L 376.473621 52.321514 L 376.473621 43.727355 L 368.980192 43.727355 L 368.980192 19.341956 Q 368.980192 16.505460 369.699900 15.806920 Q 370.419607 15.108380 374.102819 15.108380 Q 374.653184 15.108380 375.267052 15.129548 Q 375.880921 15.150716 376.473621 15.193051 L 376.473621 6.175534 L 370.758294 5.963856 Q 362.206470 5.667505 359.073623 8.927359 Q 357.041507 11.001811 357.041507 15.320059 L 357.041507 43.727355 Z M 402.425443 44.023705 Q 398.234203 44.023705 395.926904 41.398888 Q 393.619605 38.774070 393.026904 34.286480 L 411.781646 34.286480 Q 411.485296 39.070421 408.881647 41.547063 Q 406.277997 44.023705 402.425443 44.023705 Z M 402.425443 53.972609 Q 408.183106 53.972609 412.797704 51.813485 Q 417.412302 49.654361 420.418141 44.997427 Q 423.127630 40.890859 423.932010 35.471881 Q 424.397703 32.296699 424.313031 26.327357 L 392.730554 26.327357 Q 392.984568 19.384292 397.091137 16.590132 Q 399.588947 14.854365 403.102815 14.854365 Q 406.828362 14.854365 409.156829 16.971153 Q 410.426902 18.114219 411.400624 20.146336 L 423.720331 20.146336 Q 423.254637 16.039767 419.444419 11.806191 Q 413.517412 5.074805 402.848801 5.074805 Q 394.042962 5.074805 387.311576 10.747797 Q 380.580190 16.420789 380.580190 29.206188 Q 380.580190 41.187209 386.655372 47.579909 Q 392.730554 53.972609 402.425443 53.972609 Z M 441.840037 21.331737 Q 442.221058 18.114219 443.491131 16.759475 Q 445.734927 14.346336 451.788940 14.346336 Q 455.345144 14.346336 457.440765 15.404730 Q 459.536385 16.463124 459.536385 18.579912 Q 459.536385 20.612029 457.842954 21.670423 Q 456.149524 22.728817 445.269233 25.311298 Q 437.437117 27.258743 434.219600 30.179911 Q 431.002082 33.058743 431.002082 38.477720 Q 431.002082 44.870420 436.018869 49.463850 Q 441.035657 54.057280 450.137846 54.057280 Q 458.774341 54.057280 464.214486 50.606916 Q 469.654632 47.156551 470.459011 38.689399 L 458.393319 38.689399 Q 458.139305 41.017866 457.080911 42.372610 Q 455.091130 44.828084 450.307189 44.828084 Q 446.369963 44.828084 444.697700 43.600347 Q 443.025438 42.372610 443.025438 40.721515 Q 443.025438 38.647063 444.803540 37.715676 Q 446.581642 36.741954 457.377261 34.371151 Q 464.574340 32.677721 468.172880 29.248524 Q 471.729084 25.776992 471.729084 20.569693 Q 471.729084 13.711300 466.627625 9.371884 Q 461.526166 5.032469 450.857554 5.032469 Q 439.977263 5.032469 434.791132 9.625899 Q 429.605002 14.219329 429.605002 21.331737 Z" transform="scale(0.240000,0.240000) translate(170.833327,2408.333238)" opacity="0.158880"></path>
        <path d="M 4.408720 35.146243 Q 4.408720 51.487847 13.172223 60.336021 Q 20.792660 68.041129 32.562001 68.041129 Q 48.310904 68.041129 55.592655 57.711204 Q 59.614553 51.911204 59.910903 46.068869 L 46.871489 46.068869 Q 45.601416 50.556460 43.611635 52.842591 Q 40.055431 56.906824 33.070030 56.906824 Q 25.957623 56.906824 21.851054 51.170329 Q 17.744485 45.433833 17.744485 34.934564 Q 17.744485 24.435295 22.083900 19.206829 Q 26.423316 13.978362 33.112366 13.978362 Q 39.970759 13.978362 43.569299 18.465953 Q 45.559080 20.879091 46.871489 25.705368 L 59.783896 25.705368 Q 58.090465 15.502450 51.126233 9.109750 Q 44.162000 2.717050 33.281709 2.717050 Q 19.818937 2.717050 12.113829 11.353545 Q 4.408720 20.032376 4.408720 35.146243 Z M 81.671484 4.452816 L 68.716741 4.452816 L 68.716741 66.855728 L 81.671484 66.855728 Z M 130.738631 68.760837 L 140.772207 68.760837 L 116.513816 4.452816 L 106.564912 4.452816 Z M 163.379503 35.146243 Q 163.379503 51.487847 172.143006 60.336021 Q 179.763443 68.041129 191.532785 68.041129 Q 207.281688 68.041129 214.563439 57.711204 Q 218.585336 51.911204 218.881686 46.068869 L 205.842272 46.068869 Q 204.572199 50.556460 202.582418 52.842591 Q 199.026214 56.906824 192.040814 56.906824 Q 184.928406 56.906824 180.821837 51.170329 Q 176.715268 45.433833 176.715268 34.934564 Q 176.715268 24.435295 181.054684 19.206829 Q 185.394099 13.978362 192.083149 13.978362 Q 198.941543 13.978362 202.540082 18.465953 Q 204.529863 20.879091 205.842272 25.705368 L 218.754679 25.705368 Q 217.061249 15.502450 210.097016 9.109750 Q 203.132783 2.717050 192.252492 2.717050 Q 178.789720 2.717050 171.084612 11.353545 Q 163.379503 20.032376 163.379503 35.146243 Z M 241.361975 56.017773 L 241.361975 15.290771 L 253.385332 15.290771 Q 262.614528 15.290771 266.255403 24.392960 Q 268.245184 29.388579 268.245184 36.289308 Q 268.245184 45.814855 265.260513 50.916314 Q 262.275841 56.017773 253.385332 56.017773 Z M 255.586791 66.855728 Q 261.386790 66.771057 265.239345 65.500984 Q 271.801388 63.341860 275.865621 57.584196 Q 279.125474 52.927263 280.310876 47.508285 Q 281.496277 42.089308 281.496277 37.178359 Q 281.496277 24.731646 276.500657 16.095150 Q 269.726935 4.452816 255.586791 4.452816 L 228.703583 4.452816 L 228.703583 66.855728 Z" transform="scale(0.240000,0.240000) translate(2354.166573,2408.333238)" opacity="0.158880"></path>
        <path d="M 44.168343 65.349971 L 62.923085 65.349971 L 62.923085 2.947059 L 50.772721 2.947059 L 50.772721 45.155813 Q 50.772721 46.976251 50.815057 50.257273 Q 50.857393 53.538294 50.857393 55.316396 L 39.045716 2.947059 L 26.387323 2.947059 L 14.660317 55.316396 Q 14.660317 53.538294 14.702653 50.257273 Q 14.744989 46.976251 14.744989 45.155813 L 14.744989 2.947059 L 2.594625 2.947059 L 2.594625 65.349971 L 21.561046 65.349971 L 32.907030 16.282824 Z M 86.461768 54.596688 L 74.226733 54.596688 L 74.226733 65.730993 L 86.461768 65.730993 Z M 74.226733 49.093039 L 86.461768 49.093039 L 86.461768 2.947059 L 74.226733 2.947059 Z M 125.707019 32.539757 Q 125.368333 35.122238 123.971253 37.196690 Q 121.939136 39.990850 117.663224 39.990850 Q 111.566875 39.990850 109.323079 33.936837 Q 108.137678 30.719319 108.137678 25.385013 Q 108.137678 20.304722 109.323079 17.214211 Q 111.482203 11.456547 117.451545 11.456547 Q 121.685121 11.456547 123.463223 13.742679 Q 125.241325 16.028810 125.622347 19.669685 L 137.942054 19.669685 Q 137.518696 14.166036 133.962492 9.255088 Q 128.289500 1.338301 117.155195 1.338301 Q 106.020890 1.338301 100.771255 7.942679 Q 95.521621 14.547058 95.521621 25.088663 Q 95.521621 36.985011 101.321620 43.589390 Q 107.121620 50.193769 117.324538 50.193769 Q 126.003369 50.193769 131.528186 46.298879 Q 137.053003 42.403989 138.069061 32.539757 Z M 171.429641 50.193769 Q 171.768327 50.193769 172.001174 50.172601 Q 172.234020 50.151433 173.038400 50.109097 L 173.038400 37.747055 Q 171.895334 37.874062 171.006283 37.916398 Q 170.117232 37.958734 169.566867 37.958734 Q 162.285116 37.958734 159.787307 33.217129 Q 158.390226 30.549976 158.390226 25.003991 L 158.390226 2.947059 L 146.239863 2.947059 L 146.239863 49.093039 L 157.755190 49.093039 L 157.755190 41.049245 Q 160.549350 45.663842 162.623803 47.357273 Q 166.010663 50.193769 171.429641 50.193769 Z M 200.810659 11.456547 Q 206.102629 11.456547 208.939125 15.224430 Q 211.775621 18.992313 211.775621 25.935378 Q 211.775621 32.878443 208.939125 36.625157 Q 206.102629 40.371872 200.810659 40.371872 Q 195.518689 40.371872 192.661025 36.625157 Q 189.803361 32.878443 189.803361 25.935378 Q 189.803361 18.992313 192.661025 15.224430 Q 195.518689 11.456547 200.810659 11.456547 Z M 224.434014 25.935378 Q 224.434014 15.774795 218.591679 8.556548 Q 212.749344 1.338301 200.852995 1.338301 Q 188.956646 1.338301 183.114311 8.556548 Q 177.271976 15.774795 177.271976 25.935378 Q 177.271976 35.926617 183.114311 43.250704 Q 188.956646 50.574791 200.852995 50.574791 Q 212.749344 50.574791 218.591679 43.250704 Q 224.434014 35.926617 224.434014 25.935378 Z M 242.469048 17.679904 Q 242.850070 14.462387 244.120143 13.107642 Q 246.363938 10.694504 252.417952 10.694504 Q 255.974156 10.694504 258.069776 11.752898 Q 260.165396 12.811292 260.165396 14.928080 Q 260.165396 16.960196 258.471966 18.018590 Q 256.778535 19.076984 245.898245 21.659466 Q 238.066129 23.606911 234.848611 26.528078 Q 231.631093 29.406910 231.631093 34.825888 Q 231.631093 41.218588 236.647881 45.812018 Q 241.664669 50.405448 250.766857 50.405448 Q 259.403353 50.405448 264.843498 46.955083 Q 270.283643 43.504719 271.088023 35.037566 L 259.022331 35.037566 Q 258.768316 37.366033 257.709922 38.720778 Q 255.720141 41.176252 250.936200 41.176252 Q 246.998975 41.176252 245.326712 39.948515 Q 243.654449 38.720778 243.654449 37.069683 Q 243.654449 34.995231 245.432551 34.063844 Q 247.210653 33.090121 258.006272 30.719319 Q 265.203352 29.025888 268.801892 25.596692 Q 272.358096 22.125159 272.358096 16.917861 Q 272.358096 10.059467 267.256636 5.720052 Q 262.155177 1.380636 251.486565 1.380636 Q 240.606275 1.380636 235.420144 5.974066 Q 230.234013 10.567496 230.234013 17.679904 Z M 299.495318 40.371872 Q 295.304078 40.371872 292.996779 37.747055 Q 290.689480 35.122238 290.096779 30.634647 L 308.851522 30.634647 Q 308.555171 35.418588 305.951522 37.895230 Q 303.347873 40.371872 299.495318 40.371872 Z M 299.495318 50.320776 Q 305.252982 50.320776 309.867580 48.161652 Q 314.482178 46.002529 317.488017 41.345595 Q 320.197506 37.239026 321.001885 31.820049 Q 321.467578 28.644867 321.382907 22.675524 L 289.800429 22.675524 Q 290.054444 15.732459 294.161013 12.938299 Q 296.658822 11.202533 300.172691 11.202533 Q 303.898238 11.202533 306.226704 13.319321 Q 307.496777 14.462387 308.470500 16.494503 L 320.790206 16.494503 Q 320.324513 12.387934 316.514294 8.154358 Q 310.587288 1.422972 299.918676 1.422972 Q 291.112838 1.422972 284.381452 7.095964 Q 277.650066 12.768956 277.650066 25.554356 Q 277.650066 37.535376 283.725247 43.928076 Q 289.800429 50.320776 299.495318 50.320776 Z M 354.574144 50.193769 Q 354.912830 50.193769 355.145677 50.172601 Q 355.378523 50.151433 356.182903 50.109097 L 356.182903 37.747055 Q 355.039837 37.874062 354.150786 37.916398 Q 353.261735 37.958734 352.711370 37.958734 Q 345.429619 37.958734 342.931809 33.217129 Q 341.534729 30.549976 341.534729 25.003991 L 341.534729 2.947059 L 329.384366 2.947059 L 329.384366 49.093039 L 340.899693 49.093039 L 340.899693 41.049245 Q 343.693853 45.663842 345.768305 47.357273 Q 349.155166 50.193769 354.574144 50.193769 Z M 391.702606 49.093039 L 404.657349 49.093039 L 388.019395 2.947059 L 375.276331 2.947059 L 358.723048 49.093039 L 372.270492 49.093039 L 381.880710 15.055087 Z M 423.877785 54.596688 L 411.642750 54.596688 L 411.642750 65.730993 L 423.877785 65.730993 Z M 411.642750 49.093039 L 423.877785 49.093039 L 423.877785 2.947059 L 411.642750 2.947059 Z M 463.123035 32.539757 Q 462.784349 35.122238 461.387269 37.196690 Q 459.355153 39.990850 455.079241 39.990850 Q 448.982891 39.990850 446.739096 33.936837 Q 445.553695 30.719319 445.553695 25.385013 Q 445.553695 20.304722 446.739096 17.214211 Q 448.898220 11.456547 454.867562 11.456547 Q 459.101138 11.456547 460.879240 13.742679 Q 462.657342 16.028810 463.038364 19.669685 L 475.358070 19.669685 Q 474.934713 14.166036 471.378509 9.255088 Q 465.705517 1.338301 454.571212 1.338301 Q 443.436906 1.338301 438.187272 7.942679 Q 432.937638 14.547058 432.937638 25.088663 Q 432.937638 36.985011 438.737637 43.589390 Q 444.537636 50.193769 454.740555 50.193769 Q 463.419386 50.193769 468.944203 46.298879 Q 474.469019 42.403989 475.485078 32.539757 Z M 501.987264 40.371872 Q 497.796024 40.371872 495.488725 37.747055 Q 493.181426 35.122238 492.588725 30.634647 L 511.343467 30.634647 Q 511.047117 35.418588 508.443468 37.895230 Q 505.839818 40.371872 501.987264 40.371872 Z M 501.987264 50.320776 Q 507.744928 50.320776 512.359526 48.161652 Q 516.974124 46.002529 519.979963 41.345595 Q 522.689451 37.239026 523.493831 31.820049 Q 523.959524 28.644867 523.874853 22.675524 L 492.292375 22.675524 Q 492.546389 15.732459 496.652958 12.938299 Q 499.150768 11.202533 502.664636 11.202533 Q 506.390183 11.202533 508.718650 13.319321 Q 509.988723 14.462387 510.962446 16.494503 L 523.282152 16.494503 Q 522.816459 12.387934 519.006240 8.154358 Q 513.079234 1.422972 502.410622 1.422972 Q 493.604783 1.422972 486.873397 7.095964 Q 480.142011 12.768956 480.142011 25.554356 Q 480.142011 37.535376 486.217193 43.928076 Q 492.292375 50.320776 501.987264 50.320776 Z M 541.401858 17.679904 Q 541.782880 14.462387 543.052953 13.107642 Q 545.296748 10.694504 551.350762 10.694504 Q 554.906966 10.694504 557.002586 11.752898 Q 559.098206 12.811292 559.098206 14.928080 Q 559.098206 16.960196 557.404776 18.018590 Q 555.711345 19.076984 544.831054 21.659466 Q 536.998939 23.606911 533.781421 26.528078 Q 530.563903 29.406910 530.563903 34.825888 Q 530.563903 41.218588 535.580691 45.812018 Q 540.597478 50.405448 549.699667 50.405448 Q 558.336162 50.405448 563.776308 46.955083 Q 569.216453 43.504719 570.020832 35.037566 L 557.955140 35.037566 Q 557.701126 37.366033 556.642732 38.720778 Q 554.652951 41.176252 549.869010 41.176252 Q 545.931784 41.176252 544.259522 39.948515 Q 542.587259 38.720778 542.587259 37.069683 Q 542.587259 34.995231 544.365361 34.063844 Q 546.143463 33.090121 556.939082 30.719319 Q 564.136162 29.025888 567.734701 25.596692 Q 571.290905 22.125159 571.290905 16.917861 Q 571.290905 10.059467 566.189446 5.720052 Q 561.087987 1.380636 550.419375 1.380636 Q 539.539084 1.380636 534.352954 5.974066 Q 529.166823 10.567496 529.166823 17.679904 Z" transform="scale(0.240000,0.240000) translate(1141.666621,1487.499941)" opacity="0.158880"></path>
        <path d="M 47.797256 74.325881 L 14.775362 74.325881 L 14.775362 61.074788 L 45.087767 61.074788 L 45.087767 50.236833 L 14.775362 50.236833 L 14.775362 34.191580 L 49.321343 34.191580 L 49.321343 22.972603 L 2.032298 22.972603 L 2.032298 85.375515 L 47.797256 85.375515 Z M 53.978277 22.972603 L 69.727180 46.341943 L 54.655649 69.033911 L 69.430830 69.033911 L 77.135938 55.655810 L 84.671704 69.033911 L 99.023527 69.033911 L 83.867324 46.553622 L 99.616227 22.972603 L 84.587032 22.972603 L 76.627909 36.816397 L 68.626450 22.972603 Z M 138.522792 46.045593 Q 138.522792 51.379899 136.088486 55.486467 Q 133.654179 59.593036 128.192866 59.593036 Q 121.630823 59.593036 119.175349 53.369679 Q 117.905276 50.067490 117.905276 44.987199 Q 117.905276 36.943404 122.181188 33.683550 Q 124.721334 31.778441 128.192866 31.778441 Q 133.230822 31.778441 135.876807 35.673331 Q 138.522792 39.568221 138.522792 46.045593 Z M 131.664399 70.134641 Q 139.750529 70.134641 145.360017 64.165298 Q 150.969506 58.195956 150.969506 46.638293 Q 150.969506 34.445594 145.487025 28.052894 Q 140.004544 21.660194 131.368048 21.660194 Q 125.864399 21.660194 122.223524 24.412019 Q 120.233743 25.936106 118.328634 28.857274 L 118.328634 4.810561 L 106.389949 4.810561 L 106.389949 69.118583 L 117.947612 69.118583 L 117.947612 62.302525 Q 119.895057 65.308364 122.096517 67.044130 Q 126.118414 70.134641 131.664399 70.134641 Z M 184.753443 70.219312 Q 185.092129 70.219312 185.324976 70.198144 Q 185.557823 70.176977 186.362202 70.134641 L 186.362202 57.772599 Q 185.219136 57.899606 184.330086 57.941942 Q 183.441035 57.984277 182.890670 57.984277 Q 175.608919 57.984277 173.111109 53.242672 Q 171.714029 50.575519 171.714029 45.029534 L 171.714029 22.972603 L 159.563665 22.972603 L 159.563665 69.118583 L 171.078992 69.118583 L 171.078992 61.074788 Q 173.873152 65.689386 175.947605 67.382816 Q 179.334466 70.219312 184.753443 70.219312 Z M 211.636651 60.397416 Q 207.445411 60.397416 205.138112 57.772599 Q 202.830813 55.147781 202.238112 50.660191 L 220.992855 50.660191 Q 220.696504 55.444132 218.092855 57.920774 Q 215.489206 60.397416 211.636651 60.397416 Z M 211.636651 70.346320 Q 217.394315 70.346320 222.008913 68.187196 Q 226.623511 66.028072 229.629350 61.371138 Q 232.338839 57.264569 233.143218 51.845592 Q 233.608912 48.670410 233.524240 42.701068 L 201.941762 42.701068 Q 202.195777 35.758003 206.302346 32.963842 Q 208.800155 31.228076 212.314024 31.228076 Q 216.039571 31.228076 218.368037 33.344864 Q 219.638110 34.487930 220.611833 36.520046 L 232.931539 36.520046 Q 232.465846 32.413478 228.655627 28.179901 Q 222.728621 21.448515 212.060009 21.448515 Q 203.254171 21.448515 196.522785 27.121507 Q 189.791399 32.794499 189.791399 45.579899 Q 189.791399 57.560920 195.866580 63.953620 Q 201.941762 70.346320 211.636651 70.346320 Z M 251.051245 37.705448 Q 251.432267 34.487930 252.702340 33.133185 Q 254.946135 30.720047 261.000149 30.720047 Q 264.556353 30.720047 266.651973 31.778441 Q 268.747593 32.836835 268.747593 34.953623 Q 268.747593 36.985740 267.054163 38.044134 Q 265.360732 39.102528 254.480442 41.685009 Q 246.648326 43.632454 243.430808 46.553622 Q 240.213290 49.432454 240.213290 54.851431 Q 240.213290 61.244131 245.230078 65.837561 Q 250.246866 70.430991 259.349054 70.430991 Q 267.985550 70.430991 273.425695 66.980627 Q 278.865840 63.530262 279.670220 55.063110 L 267.604528 55.063110 Q 267.350513 57.391577 266.292119 58.746321 Q 264.302338 61.201795 259.518397 61.201795 Q 255.581172 61.201795 253.908909 59.974058 Q 252.236646 58.746321 252.236646 57.095226 Q 252.236646 55.020774 254.014748 54.089387 Q 255.792850 53.115665 266.588469 50.744862 Q 273.785549 49.051432 277.384089 45.622235 Q 280.940293 42.150703 280.940293 36.943404 Q 280.940293 30.085011 275.838833 25.745595 Q 270.737374 21.406180 260.068762 21.406180 Q 249.188472 21.406180 244.002341 25.999610 Q 238.816210 30.593040 238.816210 37.705448 Z M 299.271677 37.705448 Q 299.652699 34.487930 300.922772 33.133185 Q 303.166567 30.720047 309.220581 30.720047 Q 312.776785 30.720047 314.872405 31.778441 Q 316.968025 32.836835 316.968025 34.953623 Q 316.968025 36.985740 315.274595 38.044134 Q 313.581164 39.102528 302.700874 41.685009 Q 294.868758 43.632454 291.651240 46.553622 Q 288.433722 49.432454 288.433722 54.851431 Q 288.433722 61.244131 293.450510 65.837561 Q 298.467298 70.430991 307.569486 70.430991 Q 316.205982 70.430991 321.646127 66.980627 Q 327.086272 63.530262 327.890652 55.063110 L 315.824960 55.063110 Q 315.570945 57.391577 314.512551 58.746321 Q 312.522770 61.201795 307.738829 61.201795 Q 303.801604 61.201795 302.129341 59.974058 Q 300.457078 58.746321 300.457078 57.095226 Q 300.457078 55.020774 302.235180 54.089387 Q 304.013282 53.115665 314.808901 50.744862 Q 322.005981 49.051432 325.604521 45.622235 Q 329.160725 42.150703 329.160725 36.943404 Q 329.160725 30.085011 324.059265 25.745595 Q 318.957806 21.406180 308.289194 21.406180 Q 297.408904 21.406180 292.222773 25.999610 Q 287.036642 30.593040 287.036642 37.705448 Z" transform="scale(0.240000,0.240000) translate(2337.499907,337.499987)" opacity="0.158880"></path>
        <path d="M 17.292876 43.253804 L 17.292876 41.814388 Q 17.462219 34.574973 18.880467 31.632637 Q 20.298715 28.690302 24.955648 28.690302 Q 29.570246 28.690302 31.051998 31.907820 Q 31.941049 33.812929 31.941049 38.342856 L 31.941049 81.991025 L 44.980464 81.991025 L 44.980464 38.554534 Q 44.980464 30.595411 42.228639 25.938478 Q 37.571705 18.064026 25.421342 18.064026 Q 13.270978 18.064026 9.122074 24.435558 Q 4.973169 30.807090 4.973169 41.814388 L 4.973169 43.253804 Z M 82.362941 42.026067 Q 81.219875 41.306359 80.055642 40.861833 Q 78.891408 40.417308 76.859292 40.036286 L 74.149803 39.528257 Q 70.339584 38.850885 68.688490 37.877162 Q 65.894330 36.226068 65.894330 32.754535 Q 65.894330 29.664025 67.608928 28.288112 Q 69.323526 26.912200 71.779000 26.912200 Q 75.673890 26.912200 78.954912 29.198331 Q 82.235933 31.484462 82.362941 37.538476 Z M 75.038854 47.656723 Q 78.383379 48.080081 79.822795 48.715117 Q 82.405276 49.815847 82.405276 52.144314 Q 82.405276 54.980810 80.436664 56.060372 Q 78.468051 57.139934 74.657832 57.139934 Q 70.381920 57.139934 68.603818 55.023146 Q 67.333745 53.456722 66.910388 50.789569 L 55.268054 50.789569 Q 55.649075 56.843583 58.654914 60.738473 Q 63.438855 66.834823 75.081190 66.834823 Q 82.659291 66.834823 88.543962 63.828984 Q 94.428633 60.823145 94.428633 52.483000 L 94.428633 31.315119 Q 94.428633 29.113660 94.513304 25.980813 Q 94.640311 23.610011 95.233012 22.763296 Q 95.825713 21.916580 97.011114 21.366215 L 97.011114 19.588113 L 83.887028 19.588113 Q 83.336663 20.985194 83.124984 22.212931 Q 82.913306 23.440668 82.786298 25.007091 Q 80.288488 22.297602 77.028635 20.392493 Q 73.133745 18.148698 68.222796 18.148698 Q 61.957104 18.148698 57.871703 21.726069 Q 53.786302 25.303441 53.786302 31.865484 Q 53.786302 40.374972 60.348345 44.185191 Q 63.946885 46.259643 70.932285 47.148694 Z M 133.589212 65.734093 L 146.543955 65.734093 L 129.906000 19.588113 L 117.162936 19.588113 L 100.609654 65.734093 L 114.157097 65.734093 L 123.767315 31.696141 Z M 178.803805 42.026067 Q 177.660739 41.306359 176.496506 40.861833 Q 175.332272 40.417308 173.300156 40.036286 L 170.590667 39.528257 Q 166.780448 38.850885 165.129354 37.877162 Q 162.335194 36.226068 162.335194 32.754535 Q 162.335194 29.664025 164.049792 28.288112 Q 165.764390 26.912200 168.219864 26.912200 Q 172.114754 26.912200 175.395776 29.198331 Q 178.676797 31.484462 178.803805 37.538476 Z M 171.479718 47.656723 Q 174.824243 48.080081 176.263659 48.715117 Q 178.846140 49.815847 178.846140 52.144314 Q 178.846140 54.980810 176.877528 56.060372 Q 174.908915 57.139934 171.098696 57.139934 Q 166.822784 57.139934 165.044682 55.023146 Q 163.774609 53.456722 163.351252 50.789569 L 151.708917 50.789569 Q 152.089939 56.843583 155.095778 60.738473 Q 159.879719 66.834823 171.522054 66.834823 Q 179.100155 66.834823 184.984826 63.828984 Q 190.869497 60.823145 190.869497 52.483000 L 190.869497 31.315119 Q 190.869497 29.113660 190.954168 25.980813 Q 191.081175 23.610011 191.673876 22.763296 Q 192.266577 21.916580 193.451978 21.366215 L 193.451978 19.588113 L 180.327892 19.588113 Q 179.777527 20.985194 179.565848 22.212931 Q 179.354170 23.440668 179.227162 25.007091 Q 176.729352 22.297602 173.469499 20.392493 Q 169.574609 18.148698 164.663660 18.148698 Q 158.397968 18.148698 154.312567 21.726069 Q 150.227166 25.303441 150.227166 31.865484 Q 150.227166 40.374972 156.789209 44.185191 Q 160.387749 46.259643 167.373149 47.148694 Z M 210.978983 34.320958 Q 211.360005 31.103440 212.630078 29.748696 Q 214.873873 27.335558 220.927887 27.335558 Q 224.484091 27.335558 226.579711 28.393952 Q 228.675331 29.452346 228.675331 31.569134 Q 228.675331 33.601250 226.981901 34.659644 Q 225.288470 35.718038 214.408180 38.300520 Q 206.576064 40.247965 203.358546 43.169132 Q 200.141028 46.047964 200.141028 51.466942 Q 200.141028 57.859642 205.157816 62.453072 Q 210.174604 67.046502 219.276792 67.046502 Q 227.913288 67.046502 233.353433 63.596137 Q 238.793578 60.145773 239.597958 51.678620 L 227.532266 51.678620 Q 227.278251 54.007087 226.219857 55.361832 Q 224.230076 57.817306 219.446135 57.817306 Q 215.508910 57.817306 213.836647 56.589569 Q 212.164384 55.361832 212.164384 53.710737 Q 212.164384 51.636285 213.942486 50.704898 Q 215.720588 49.731175 226.516207 47.360373 Q 233.713287 45.666942 237.311827 42.237746 Q 240.868031 38.766213 240.868031 33.558915 Q 240.868031 26.700521 235.766571 22.361106 Q 230.665112 18.021690 219.996500 18.021690 Q 209.116210 18.021690 203.930079 22.615120 Q 198.743948 27.208550 198.743948 34.320958 Z M 277.361457 49.180810 Q 277.022771 51.763292 275.625690 53.837744 Q 273.593574 56.631904 269.317662 56.631904 Q 263.221312 56.631904 260.977517 50.577891 Q 259.792116 47.360373 259.792116 42.026067 Q 259.792116 36.945775 260.977517 33.855265 Q 263.136641 28.097601 269.105983 28.097601 Q 273.339559 28.097601 275.117661 30.383733 Q 276.895763 32.669864 277.276785 36.310739 L 289.596492 36.310739 Q 289.173134 30.807090 285.616930 25.896142 Q 279.943938 17.979354 268.809633 17.979354 Q 257.675328 17.979354 252.425693 24.583733 Q 247.176059 31.188112 247.176059 41.729717 Q 247.176059 53.626065 252.976058 60.230444 Q 258.776058 66.834823 268.978976 66.834823 Q 277.657807 66.834823 283.182624 62.939933 Q 288.707441 59.045043 289.723499 49.180810 Z M 323.084079 66.834823 Q 323.422765 66.834823 323.655612 66.813655 Q 323.888458 66.792487 324.692838 66.750151 L 324.692838 54.388109 Q 323.549772 54.515116 322.660721 54.557452 Q 321.771670 54.599788 321.221305 54.599788 Q 313.939554 54.599788 311.441744 49.858183 Q 310.044664 47.191030 310.044664 41.645045 L 310.044664 19.588113 L 297.894301 19.588113 L 297.894301 65.734093 L 309.409628 65.734093 L 309.409628 57.690298 Q 312.203788 62.304896 314.278240 63.998327 Q 317.665101 66.834823 323.084079 66.834823 Z M 344.167288 71.237742 L 331.932253 71.237742 L 331.932253 82.372047 L 344.167288 82.372047 Z M 331.932253 65.734093 L 344.167288 65.734093 L 344.167288 19.588113 L 331.932253 19.588113 Z M 387.646115 42.661103 Q 387.646115 47.995409 385.211808 52.101978 Q 382.777502 56.208547 377.316189 56.208547 Q 370.754146 56.208547 368.298672 49.985190 Q 367.028599 46.683001 367.028599 41.602709 Q 367.028599 33.558915 371.304511 30.299061 Q 373.844656 28.393952 377.316189 28.393952 Q 382.354144 28.393952 385.000129 32.288842 Q 387.646115 36.183732 387.646115 42.661103 Z M 380.787721 66.750151 Q 388.873852 66.750151 394.483340 60.780809 Q 400.092828 54.811467 400.092828 43.253804 Q 400.092828 31.061105 394.610347 24.668405 Q 389.127866 18.275705 380.491371 18.275705 Q 374.987722 18.275705 371.346846 21.027529 Q 369.357066 22.551617 367.451956 25.472784 L 367.451956 1.426072 L 355.513272 1.426072 L 355.513272 65.734093 L 367.070935 65.734093 L 367.070935 58.918036 Q 369.018380 61.923875 371.219839 63.659641 Q 375.241737 66.750151 380.787721 66.750151 Z M 404.072390 56.716576 L 404.072390 65.310735 L 410.507426 65.310735 L 410.507426 78.180807 L 422.446110 78.180807 L 422.446110 65.310735 L 429.939540 65.310735 L 429.939540 56.716576 L 422.446110 56.716576 L 422.446110 32.331178 Q 422.446110 29.494682 423.165818 28.796141 Q 423.885526 28.097601 427.568737 28.097601 Q 428.119102 28.097601 428.732971 28.118769 Q 429.346839 28.139937 429.939540 28.182273 L 429.939540 19.164756 L 424.224212 18.953077 Q 415.672388 18.656727 412.539542 21.916580 Q 410.507426 23.991033 410.507426 28.309280 L 410.507426 56.716576 Z" transform="scale(0.240000,0.240000) translate(191.666659,349.999986)" opacity="0.158880"></path>
    </g>
</svg>