<?xml version="1.0" encoding="UTF-8" standalone="yes"?>
<!DOCTYPE svg PUBLIC "-//W3C//DTD SVG 1.1//EN" "http://www.w3.org/Graphics/SVG/1.1/DTD/svg11.dtd">

<svg width="100" height="31" viewBox="0 0 100 31" xmlns="http://www.w3.org/2000/svg" xmlns:xlink="http://www.w3.org/1999/xlink" version="1.1" baseProfile="full">
    <defs>
        <radialGradient id="22177430481614976" cx="51" cy="17" r="51" fx="51" fy="17" gradientUnits="userSpaceOnUse">
            <stop offset="0%" style="stop-color:#ff3a3a;stop-opacity:1.000000"></stop>
            <stop offset="100%" style="stop-color:#000000;stop-opacity:1.000000"></stop>
        </radialGradient>
    </defs>
    <g transform="scale(1,-1) translate(0,-31)">
        <path d="M 1.000000 1.000000 L 101.000000 1.000000 L 101.000000 32.906907 L 1.000000 32.906907 Z" transform="scale(1.000000,1.000000) translate(-1.000000,-1.000000)" fill="url(#22177430481614976)" opacity="1.000000"></path>
        <path d="M 58.810000 1.596400 L 58.920000 1.861800 L 58.920000 2.710100 L 58.810000 2.975500 L 58.544600 3.085400 L 2.131200 3.085400 L 1.865800 2.975500 L 1.755900 2.710100 L 1.755900 1.861800 L 1.865800 1.596400 L 2.131200 1.486400 L 58.544600 1.486400 Z M 35.856900 1.570800 L 35.750100 1.598800 L 35.663300 1.648500 L 35.595200 1.723300 L 35.544700 1.823200 L 35.510900 1.948700 L 35.491800 2.101400 L 35.485400 2.283000 L 35.491800 2.464600 L 35.510900 2.617300 L 35.544700 2.742800 L 35.595200 2.842700 L 35.663300 2.918200 L 35.750100 2.970200 L 35.856900 3.000300 L 35.985300 3.010400 L 36.113800 3.000300 L 36.220600 2.970200 L 36.307400 2.918200 L 36.375500 2.842700 L 36.426000 2.742800 L 36.459800 2.617300 L 36.478900 2.464600 L 36.485300 2.283000 L 36.478900 2.101400 L 36.459800 1.948700 L 36.426000 1.823200 L 36.375500 1.723300 L 36.307400 1.648500 L 36.220600 1.598800 L 36.113800 1.570800 L 35.985300 1.561500 Z M 22.895100 1.570800 L 22.788200 1.598800 L 22.701500 1.648500 L 22.633400 1.723300 L 22.582900 1.823200 L 22.549000 1.948700 L 22.529900 2.101400 L 22.523600 2.283000 L 22.529900 2.464600 L 22.549000 2.617300 L 22.582900 2.742800 L 22.633400 2.842700 L 22.701500 2.918200 L 22.788200 2.970200 L 22.895100 3.000300 L 23.023500 3.010400 L 23.151900 3.000300 L 23.258800 2.970200 L 23.345500 2.918200 L 23.413700 2.842700 L 23.464100 2.742800 L 23.498000 2.617300 L 23.517100 2.464600 L 23.523500 2.283000 L 23.517100 2.101400 L 23.498000 1.948700 L 23.464100 1.823200 L 23.413700 1.723300 L 23.345500 1.648500 L 23.258800 1.598800 L 23.151900 1.570800 L 23.023500 1.561500 Z M 20.005200 1.570800 L 19.893500 1.598800 L 19.806200 1.648500 L 19.740500 1.723300 L 19.694200 1.823200 L 19.665000 1.948700 L 19.649600 2.101400 L 19.644500 2.283000 L 19.650600 2.467800 L 19.669000 2.622200 L 19.702100 2.748100 L 19.752300 2.847600 L 19.820400 2.921900 L 19.907200 2.972100 L 20.014500 3.000800 L 20.144400 3.010400 L 20.258600 3.002500 L 20.354200 2.979000 L 20.432400 2.941000 L 20.494400 2.889800 L 20.540900 2.826100 L 20.572800 2.750600 L 20.591200 2.664100 L 20.597300 2.567300 L 20.597300 2.479100 L 20.244400 2.479100 L 20.244400 2.557500 L 20.238500 2.658000 L 20.220900 2.720200 L 20.190000 2.752600 L 20.144400 2.763300 L 20.107400 2.757900 L 20.078700 2.741800 L 20.057200 2.711900 L 20.041500 2.665300 L 20.030900 2.600900 L 20.024800 2.517300 L 20.021900 2.412200 L 20.020900 2.283000 L 20.021900 2.153800 L 20.024800 2.048700 L 20.030900 1.965100 L 20.041500 1.900700 L 20.057200 1.854100 L 20.078700 1.824200 L 20.107400 1.808100 L 20.144400 1.802700 L 20.174800 1.806800 L 20.199300 1.819300 L 20.218400 1.841600 L 20.232600 1.875200 L 20.242700 1.921000 L 20.249300 1.980100 L 20.253000 2.054300 L 20.254200 2.145800 L 20.607100 2.145800 L 20.607100 2.041900 L 20.597300 1.908000 L 20.567900 1.800700 L 20.522300 1.716600 L 20.464000 1.652700 L 20.394600 1.607600 L 20.316000 1.580100 L 20.231400 1.566200 L 20.144400 1.561500 Z M 40.027600 1.583100 L 40.027600 2.982900 L 40.598100 2.982900 L 40.694400 2.976100 L 40.775500 2.955500 L 40.842200 2.922400 L 40.895100 2.878000 L 40.934800 2.823400 L 40.961800 2.759400 L 40.977200 2.687900 L 40.982300 2.610400 L 40.968100 2.483000 L 40.925500 2.383000 L 40.851500 2.313400 L 40.743200 2.277100 L 40.743200 2.273200 L 40.853900 2.244300 L 40.923500 2.181100 L 40.960300 2.085500 L 40.972500 1.959500 L 40.972500 1.783100 L 40.973000 1.754400 L 40.974500 1.727200 L 40.977000 1.701900 L 40.980400 1.679100 L 40.984800 1.660000 L 40.990200 1.645800 L 40.998000 1.634300 L 41.005900 1.623300 L 41.016200 1.612700 L 41.031400 1.602700 L 41.031400 1.583100 L 40.643200 1.583100 L 40.631200 1.613000 L 40.622600 1.647800 L 40.616700 1.685000 L 40.612800 1.722300 L 40.610300 1.758800 L 40.608900 1.793800 L 40.608100 1.825000 L 40.607900 1.849700 L 40.607900 1.943800 L 40.606400 1.997700 L 40.602000 2.041900 L 40.593900 2.076900 L 40.581400 2.103600 L 40.564700 2.122700 L 40.544200 2.135000 L 40.518900 2.141600 L 40.488300 2.143800 L 40.392200 2.143800 L 40.392200 1.583100 Z M 38.588000 1.583100 L 38.588000 2.982900 L 39.417300 2.982900 L 39.417300 2.684900 L 38.952700 2.684900 L 38.952700 2.445700 L 39.387900 2.445700 L 39.387900 2.159500 L 38.952700 2.159500 L 38.952700 1.881100 L 39.435000 1.881100 L 39.435000 1.583100 Z M 37.062200 1.583100 L 37.062200 2.982900 L 37.609200 2.982900 L 37.706200 2.974600 L 37.789600 2.949600 L 37.859400 2.910100 L 37.916000 2.858400 L 37.959400 2.795400 L 37.989500 2.722200 L 38.007200 2.640300 L 38.013100 2.551600 L 37.983900 2.361200 L 37.896400 2.225200 L 37.752600 2.143600 L 37.554300 2.116400 L 37.426900 2.116400 L 37.426900 1.583100 Z M 34.159600 1.583100 L 34.159600 2.982900 L 34.524200 2.982900 L 34.524200 1.881100 L 34.973200 1.881100 L 34.973200 1.583100 Z M 32.720000 1.583100 L 32.720000 2.982900 L 33.549300 2.982900 L 33.549300 2.684900 L 33.084700 2.684900 L 33.084700 2.445700 L 33.519900 2.445700 L 33.519900 2.159500 L 33.084700 2.159500 L 33.084700 1.881100 L 33.567000 1.881100 L 33.567000 1.583100 Z M 31.429500 1.583100 L 31.133400 2.982900 L 31.515700 2.982900 L 31.662800 1.928100 L 31.666700 1.928100 L 31.813700 2.982900 L 32.201900 2.982900 L 31.900000 1.583100 Z M 29.801700 1.583100 L 29.801700 2.982900 L 30.631000 2.982900 L 30.631000 2.684900 L 30.166400 2.684900 L 30.166400 2.445700 L 30.601600 2.445700 L 30.601600 2.159500 L 30.166400 2.159500 L 30.166400 1.881100 L 30.648700 1.881100 L 30.648700 1.583100 Z M 28.217100 1.583100 L 28.217100 2.982900 L 28.746400 2.982900 L 28.887600 2.968500 L 28.993400 2.925100 L 29.070600 2.857400 L 29.125800 2.770200 L 29.161300 2.665800 L 29.179700 2.546700 L 29.187100 2.417500 L 29.189500 2.283000 L 29.187100 2.148500 L 29.179700 2.019300 L 29.161300 1.900200 L 29.125800 1.795800 L 29.070600 1.708600 L 28.993400 1.640900 L 28.887600 1.597500 L 28.746400 1.583100 Z M 25.663400 1.583100 L 25.663400 2.982900 L 26.192800 2.982900 L 26.333900 2.968500 L 26.439800 2.925100 L 26.517000 2.857400 L 26.572100 2.770200 L 26.607700 2.665800 L 26.626100 2.546700 L 26.633400 2.417500 L 26.635900 2.283000 L 26.633400 2.148500 L 26.626100 2.019300 L 26.607700 1.900200 L 26.572100 1.795800 L 26.517000 1.708600 L 26.439800 1.640900 L 26.333900 1.597500 L 26.192800 1.583100 Z M 24.465300 1.566900 L 24.369900 1.583100 L 24.288100 1.614000 L 24.220900 1.663500 L 24.168200 1.732100 L 24.129800 1.820300 L 24.106200 1.930600 L 24.098400 2.065400 L 24.098400 2.982900 L 24.463100 2.982900 L 24.463100 1.973200 L 24.470400 1.888200 L 24.492500 1.837000 L 24.527300 1.811200 L 24.572800 1.802700 L 24.618400 1.811200 L 24.653200 1.837000 L 24.675300 1.888200 L 24.682600 1.973200 L 24.682600 2.982900 L 25.047300 2.982900 L 25.047300 2.065400 L 25.039500 1.930600 L 25.015900 1.820300 L 24.977500 1.732100 L 24.924800 1.663500 L 24.857900 1.614000 L 24.776700 1.583100 L 24.681700 1.566900 L 24.572800 1.561500 Z M 21.197700 1.583100 L 21.197700 2.982900 L 21.562400 2.982900 L 21.562400 1.881100 L 22.011400 1.881100 L 22.011400 1.583100 Z M 36.022300 1.808100 L 36.051000 1.824200 L 36.072600 1.854100 L 36.088300 1.900700 L 36.098800 1.965100 L 36.104900 2.048700 L 36.107900 2.153800 L 36.108900 2.283000 L 36.107900 2.412200 L 36.104900 2.517300 L 36.098800 2.600900 L 36.088300 2.665300 L 36.072600 2.711900 L 36.051000 2.741800 L 36.022300 2.757900 L 35.985300 2.763300 L 35.948300 2.757900 L 35.919700 2.741800 L 35.898100 2.711900 L 35.882400 2.665300 L 35.871900 2.600900 L 35.865700 2.517300 L 35.862800 2.412200 L 35.861800 2.283000 L 35.862800 2.153800 L 35.865700 2.048700 L 35.871900 1.965100 L 35.882400 1.900700 L 35.898100 1.854100 L 35.919700 1.824200 L 35.948300 1.808100 L 35.985300 1.802700 Z M 23.060500 1.808100 L 23.089200 1.824200 L 23.110800 1.854100 L 23.126400 1.900700 L 23.137000 1.965100 L 23.143100 2.048700 L 23.146000 2.153800 L 23.147000 2.283000 L 23.146000 2.412200 L 23.143100 2.517300 L 23.137000 2.600900 L 23.126400 2.665300 L 23.110800 2.711900 L 23.089200 2.741800 L 23.060500 2.757900 L 23.023500 2.763300 L 22.986500 2.757900 L 22.957800 2.741800 L 22.936300 2.711900 L 22.920600 2.665300 L 22.910000 2.600900 L 22.903900 2.517300 L 22.901000 2.412200 L 22.900000 2.283000 L 22.901000 2.153800 L 22.903900 2.048700 L 22.910000 1.965100 L 22.920600 1.900700 L 22.936300 1.854100 L 22.957800 1.824200 L 22.986500 1.808100 L 23.023500 1.802700 Z M 40.532900 2.402400 L 40.580400 2.436900 L 40.608400 2.490100 L 40.617700 2.557500 L 40.608600 2.633000 L 40.581400 2.683000 L 40.533600 2.710900 L 40.462800 2.720200 L 40.392200 2.720200 L 40.392200 2.390800 L 40.464800 2.390800 Z M 37.556000 2.389400 L 37.600400 2.420200 L 37.627600 2.473200 L 37.636600 2.549600 L 37.601300 2.677600 L 37.495500 2.720200 L 37.426900 2.720200 L 37.426900 2.379100 L 37.495500 2.379100 Z M 28.701800 1.849500 L 28.738600 1.860500 L 28.766300 1.883300 L 28.786600 1.922300 L 28.800300 1.979100 L 28.808200 2.055600 L 28.811900 2.155600 L 28.813100 2.283000 L 28.811900 2.410400 L 28.808200 2.510400 L 28.800300 2.586900 L 28.786600 2.643700 L 28.766300 2.682700 L 28.738600 2.705500 L 28.701800 2.716500 L 28.654300 2.720200 L 28.581700 2.720200 L 28.581700 1.845800 L 28.654300 1.845800 Z M 26.148200 1.849500 L 26.184900 1.860500 L 26.212600 1.883300 L 26.233000 1.922300 L 26.246700 1.979100 L 26.254500 2.055600 L 26.258200 2.155600 L 26.259400 2.283000 L 26.258200 2.410400 L 26.254500 2.510400 L 26.246700 2.586900 L 26.233000 2.643700 L 26.212600 2.682700 L 26.184900 2.705500 L 26.148200 2.716500 L 26.100600 2.720200 L 26.028100 2.720200 L 26.028100 1.845800 L 26.100600 1.845800 Z" transform="scale(1.000000,1.000000) translate(19.000000,10.000000)" fill="#000000" opacity="1.000000"></path>
        <path d="M 4.280898 1.664714 Q 4.971530 1.664714 5.437817 1.933048 Q 5.904103 2.201383 5.904103 2.962398 Q 5.904103 3.719014 5.358636 3.996147 Q 4.813169 4.273279 3.968574 4.273279 Q 3.761824 4.273279 3.706838 4.273279 Q 3.651851 4.273279 3.537479 4.277678 L 3.537479 2.034224 Q 3.537479 1.801080 3.669447 1.732897 Q 3.801415 1.664714 4.280898 1.664714 Z M 1.755912 1.501953 Q 2.301380 1.532746 2.461940 1.671312 Q 2.622501 1.809878 2.622501 2.315755 L 2.622501 6.323181 Q 2.622501 6.820260 2.461940 6.963225 Q 2.301380 7.106190 1.755912 7.132584 L 1.755912 7.299743 L 4.280898 7.299743 Q 5.363035 7.299743 5.998680 6.952228 Q 6.634326 6.604712 6.634326 5.755719 Q 6.634326 5.117874 6.190034 4.787954 Q 5.939295 4.598800 5.437817 4.475630 Q 6.058066 4.326066 6.497959 3.976351 Q 6.937852 3.626636 6.937852 2.997589 Q 6.937852 1.941846 5.961289 1.545942 Q 5.446615 1.339193 4.694398 1.339193 L 1.755912 1.339193 Z M 4.395270 4.633991 Q 4.848360 4.642789 5.147487 4.779156 Q 5.719348 5.043092 5.719348 5.724926 Q 5.719348 6.529930 5.059509 6.811462 Q 4.694398 6.965424 3.950978 6.965424 Q 3.669447 6.965424 3.603463 6.917036 Q 3.537479 6.868648 3.537479 6.653100 L 3.537479 4.620795 Z M 8.899775 4.317268 Q 8.899775 2.896414 9.458439 2.216779 Q 10.017103 1.537145 10.830905 1.537145 Q 11.627111 1.537145 12.192374 2.199184 Q 12.757637 2.861223 12.757637 4.317268 Q 12.757637 5.790910 12.185776 6.446351 Q 11.613915 7.101791 10.830905 7.101791 Q 10.021502 7.101791 9.460638 6.422157 Q 8.899775 5.742522 8.899775 4.317268 Z M 7.879223 4.317268 Q 7.879223 5.760118 8.785403 6.631106 Q 9.616800 7.427312 10.830905 7.427312 Q 12.049409 7.427312 12.880807 6.626707 Q 13.782587 5.760118 13.782587 4.317268 Q 13.782587 2.852425 12.850014 1.985835 Q 12.014217 1.211624 10.830905 1.211624 Q 9.564013 1.211624 8.728216 2.069415 Q 7.879223 2.944802 7.879223 4.317268 Z M 16.364759 7.299743 L 16.364759 7.132584 Q 16.096425 7.123786 15.982052 7.084196 Q 15.779702 7.009414 15.779702 6.811462 Q 15.779702 6.723483 15.803896 6.639904 Q 15.828090 6.556324 15.876478 6.424356 L 17.178561 3.037180 L 18.137528 5.579761 L 17.710832 6.666297 Q 17.592061 6.965424 17.354519 7.066600 Q 17.213753 7.128185 16.927822 7.132584 L 16.927822 7.299743 L 19.338436 7.299743 L 19.338436 7.132584 Q 18.999718 7.128185 18.872149 7.084196 Q 18.669799 7.009414 18.669799 6.776270 Q 18.669799 6.697090 18.687394 6.637704 Q 18.704990 6.578319 18.775373 6.393563 L 20.077456 3.015185 L 21.203582 6.072442 Q 21.300359 6.331978 21.335550 6.534329 Q 21.357545 6.648701 21.357545 6.719084 Q 21.357545 6.969823 21.120003 7.066600 Q 20.988035 7.123786 20.724099 7.132584 L 20.724099 7.299743 L 22.510065 7.299743 L 22.510065 7.132584 Q 22.268124 7.097392 22.140555 7.022611 Q 21.911810 6.895042 21.797438 6.582717 L 20.838471 3.903769 L 20.464562 2.870020 L 19.923494 1.233618 L 19.787127 1.233618 L 19.422016 2.276165 L 18.348677 5.047491 L 16.963014 1.233618 L 16.826647 1.233618 L 16.180004 3.107563 L 15.405793 5.214650 Q 14.926309 6.516734 14.739355 6.813661 Q 14.552400 7.110589 14.156496 7.132584 L 14.156496 7.299743 Z M 28.941301 7.299743 L 28.941301 7.132584 Q 28.624578 7.141382 28.466216 7.084196 Q 28.307855 7.027009 28.307855 6.837855 Q 28.307855 6.780669 28.334248 6.694890 Q 28.360642 6.609111 28.453019 6.468345 L 29.785895 4.466832 L 31.079181 6.499138 Q 31.158361 6.626707 31.182556 6.710286 Q 31.206750 6.793866 31.206750 6.833457 Q 31.206750 7.027009 31.000000 7.088594 Q 30.876830 7.128185 30.577703 7.132584 L 30.577703 7.299743 L 32.548423 7.299743 L 32.548423 7.132584 Q 32.275690 7.119387 32.060142 6.969823 Q 31.725823 6.736680 31.307925 6.103234 L 29.975049 4.070928 L 29.975049 2.315755 Q 29.975049 1.792283 30.144408 1.662514 Q 30.313767 1.532746 30.903224 1.501953 L 30.903224 1.339193 L 28.149493 1.339193 L 28.149493 1.501953 Q 28.760945 1.537145 28.908309 1.684509 Q 29.055673 1.831873 29.055673 2.421330 L 29.055673 3.987349 L 27.876760 5.716128 Q 27.265308 6.609111 27.018968 6.862050 Q 26.772628 7.114988 26.420714 7.132584 L 26.420714 7.299743 Z M 36.749402 3.653030 L 35.706855 6.134027 L 34.677506 3.653030 Z M 32.860747 1.339193 L 32.860747 1.501953 Q 33.208263 1.541543 33.382021 1.765889 Q 33.555778 1.990234 33.978076 2.984393 L 35.856419 7.405317 L 36.032376 7.405317 L 38.275831 2.298159 Q 38.500176 1.787884 38.634343 1.666913 Q 38.768511 1.545942 39.085234 1.501953 L 39.085234 1.339193 L 36.793391 1.339193 L 36.793391 1.501953 Q 37.189295 1.537145 37.303667 1.587732 Q 37.418039 1.638320 37.418039 1.836272 Q 37.418039 1.902256 37.374050 2.069415 Q 37.330061 2.236574 37.250880 2.421330 L 36.876971 3.287919 L 34.519144 3.287919 Q 34.167230 2.403734 34.099046 2.207981 Q 34.030863 2.012229 34.030863 1.897857 Q 34.030863 1.669112 34.215618 1.581134 Q 34.329990 1.528347 34.646713 1.501953 L 34.646713 1.339193 Z M 41.482651 7.299743 L 41.482651 7.132584 Q 41.214316 7.123786 41.099944 7.084196 Q 40.897593 7.009414 40.897593 6.811462 Q 40.897593 6.723483 40.921787 6.639904 Q 40.945981 6.556324 40.994369 6.424356 L 42.296453 3.037180 L 43.255419 5.579761 L 42.828723 6.666297 Q 42.709952 6.965424 42.472410 7.066600 Q 42.331644 7.128185 42.045714 7.132584 L 42.045714 7.299743 L 44.456327 7.299743 L 44.456327 7.132584 Q 44.117610 7.128185 43.990041 7.084196 Q 43.787690 7.009414 43.787690 6.776270 Q 43.787690 6.697090 43.805286 6.637704 Q 43.822881 6.578319 43.893264 6.393563 L 45.195348 3.015185 L 46.321474 6.072442 Q 46.418250 6.331978 46.453442 6.534329 Q 46.475436 6.648701 46.475436 6.719084 Q 46.475436 6.969823 46.237894 7.066600 Q 46.105926 7.123786 45.841990 7.132584 L 45.841990 7.299743 L 47.627956 7.299743 L 47.627956 7.132584 Q 47.386015 7.097392 47.258446 7.022611 Q 47.029702 6.895042 46.915329 6.582717 L 45.956363 3.903769 L 45.582454 2.870020 L 45.041385 1.233618 L 44.905018 1.233618 L 44.539907 2.276165 L 43.466568 5.047491 L 42.080905 1.233618 L 41.944538 1.233618 L 41.297896 3.107563 L 40.523684 5.214650 Q 40.044200 6.516734 39.857246 6.813661 Q 39.670291 7.110589 39.274388 7.132584 L 39.274388 7.299743 Z M 48.318588 3.151552 Q 48.547332 2.544500 48.855258 2.183787 Q 49.391927 1.554740 50.188133 1.554740 Q 50.619229 1.554740 50.933752 1.827474 Q 51.248276 2.100208 51.248276 2.588489 Q 51.248276 3.028382 50.931553 3.353903 Q 50.724803 3.560652 50.060564 3.974152 L 49.290752 4.453635 Q 48.943236 4.673582 48.736486 4.897927 Q 48.353780 5.324623 48.353780 5.839298 Q 48.353780 6.521132 48.806869 6.974222 Q 49.259959 7.427312 50.007777 7.427312 Q 50.315702 7.427312 50.748997 7.275549 Q 51.182292 7.123786 51.243877 7.123786 Q 51.411036 7.123786 51.474821 7.202967 Q 51.538605 7.282147 51.573796 7.427312 L 51.758552 7.427312 L 51.956503 5.509379 L 51.740956 5.509379 Q 51.521009 6.375968 51.034928 6.719084 Q 50.548846 7.062201 50.073761 7.062201 Q 49.704251 7.062201 49.429318 6.844454 Q 49.154385 6.626707 49.154385 6.239601 Q 49.154385 5.892085 49.365534 5.645745 Q 49.576682 5.395006 50.020974 5.122273 L 50.812782 4.633991 Q 51.556201 4.176503 51.859727 3.793796 Q 52.158854 3.406690 52.158854 2.878818 Q 52.158854 2.170591 51.624384 1.695506 Q 51.089914 1.220422 50.258516 1.220422 Q 49.840618 1.220422 49.385329 1.378783 Q 48.930039 1.537145 48.864055 1.537145 Q 48.705694 1.537145 48.650707 1.440368 Q 48.595721 1.343592 48.578125 1.233618 L 48.380173 1.233618 L 48.111838 3.151552 Z M 54.037197 4.317268 Q 54.037197 2.896414 54.595861 2.216779 Q 55.154526 1.537145 55.968328 1.537145 Q 56.764534 1.537145 57.329797 2.199184 Q 57.895059 2.861223 57.895059 4.317268 Q 57.895059 5.790910 57.323198 6.446351 Q 56.751337 7.101791 55.968328 7.101791 Q 55.158925 7.101791 54.598061 6.422157 Q 54.037197 5.742522 54.037197 4.317268 Z M 53.016646 4.317268 Q 53.016646 5.760118 53.922825 6.631106 Q 54.754223 7.427312 55.968328 7.427312 Q 57.186831 7.427312 58.018229 6.626707 Q 58.920010 5.760118 58.920010 4.317268 Q 58.920010 2.852425 57.987437 1.985835 Q 57.151640 1.211624 55.968328 1.211624 Q 54.701436 1.211624 53.865639 2.069415 Q 53.016646 2.944802 53.016646 4.317268 Z" transform="scale(1.000000,1.000000) translate(19.000000,13.000000)" fill="#000000" opacity="1.000000"></path>
        <path d="M 1.271361 1.881983 Q 2.094773 1.966270 2.328181 2.254788 Q 2.561589 2.543306 2.561589 3.593643 L 2.561589 9.448295 L 2.380050 9.662252 Q 2.088289 10.005881 1.884057 10.086925 Q 1.679825 10.167970 1.271361 10.180937 L 1.271361 10.427312 L 3.547090 10.427312 L 8.662617 4.034525 L 8.662617 8.475761 Q 8.662617 9.571483 8.338439 9.902144 Q 8.124481 10.116101 7.391839 10.180937 L 7.391839 10.427312 L 10.510430 10.427312 L 10.510430 10.180937 Q 9.751854 10.103134 9.498995 9.811374 Q 9.246137 9.519614 9.246137 8.475761 L 9.246137 1.486486 L 9.019212 1.486486 L 3.145109 8.767521 L 3.145109 3.593643 Q 3.145109 2.504405 3.462804 2.173744 Q 3.670277 1.959786 4.389952 1.881983 L 4.389952 1.642092 L 1.271361 1.642092 Z" transform="scale(1.000000,1.000000) translate(78.000000,10.000000)" fill="#000000" opacity="1.000000"></path>
        <path d="M 1.486486 1.730627 Q 2.232105 1.809808 2.453151 1.997862 Q 2.674198 2.185916 2.674198 2.951330 L 2.674198 8.962468 Q 2.674198 9.681693 2.456451 9.902740 Q 2.238704 10.123786 1.486486 10.176573 L 1.486486 10.427312 L 8.665541 10.427312 L 8.711729 8.487384 L 8.368613 8.487384 Q 8.197054 9.384766 7.853938 9.648701 Q 7.510821 9.912637 6.323110 9.912637 L 4.488756 9.912637 Q 4.191829 9.912637 4.122545 9.816961 Q 4.053262 9.721284 4.053262 9.457348 L 4.053262 6.441881 L 6.131757 6.441881 Q 6.996147 6.441881 7.233689 6.699219 Q 7.471231 6.956556 7.616396 7.741765 L 7.933119 7.741765 L 7.933119 4.614126 L 7.616396 4.614126 Q 7.464633 5.399335 7.227090 5.653373 Q 6.989548 5.907411 6.131757 5.907411 L 4.053262 5.907411 L 4.053262 2.562025 Q 4.053262 2.159523 4.307300 2.086940 Q 4.561339 2.014358 5.828231 2.014358 Q 7.200697 2.014358 7.853938 2.314585 Q 8.507179 2.614812 9.028452 3.769531 L 9.404561 3.769531 L 8.790910 1.486486 L 1.486486 1.486486 Z" transform="scale(1.000000,1.000000) translate(10.000000,10.000000)" fill="#000000" opacity="1.000000"></path>
    </g>
</svg>